<?xml version="1.0" encoding="iso-8859-1"?>
<!-- Generator: Adobe Illustrator 19.0.0, SVG Export Plug-In . SVG Version: 6.00 Build 0)  -->
<svg version="1.1" id="Capa_1" xmlns="http://www.w3.org/2000/svg" xmlns:xlink="http://www.w3.org/1999/xlink" x="0px" y="0px"
	 viewBox="0 0 490 490" style="enable-background:new 0 0 490 490;" xml:space="preserve">
<g>
	<g>
		<g>
			<rect y="261.278" width="490" height="94.9"/>
			<rect y="375.678" width="490" height="94.9"/>
			<path d="M271.1,97.178c-16.3,7.4-28,24.1-28,43.2c0,26.1,21.4,47.4,47.4,47.4s47.4-21.4,47.4-47.4s-21-47.4-47.4-47.4
				c-12.4-37.3-50.6-69.6-52.5-71.2c-4.3-3.5-10.5-3.1-14,1.2s-3.1,10.5,1.2,14C236.1,45.878,261.7,71.578,271.1,97.178z"/>
			<path d="M417.3,94.878l-63.8,22.6c2.7,7.4,4.3,15.2,4.3,23.3c0,36.9-29.9,67.3-67.3,67.3c-29.6,0-54.8-19.4-63.8-45.9L0,241.478
				h490C490,187.778,463.6,137.678,417.3,94.878z"/>
		</g>
	</g>
</g>
<g>
</g>
<g>
</g>
<g>
</g>
<g>
</g>
<g>
</g>
<g>
</g>
<g>
</g>
<g>
</g>
<g>
</g>
<g>
</g>
<g>
</g>
<g>
</g>
<g>
</g>
<g>
</g>
<g>
</g>
</svg>
