<?xml version="1.0" encoding="iso-8859-1"?>
<!-- Generator: Adobe Illustrator 19.0.0, SVG Export Plug-In . SVG Version: 6.00 Build 0)  -->
<svg version="1.1" id="Capa_1" xmlns="http://www.w3.org/2000/svg" xmlns:xlink="http://www.w3.org/1999/xlink" x="0px" y="0px"
	 viewBox="0 0 490 490" style="enable-background:new 0 0 490 490;" xml:space="preserve">
<g>
	<g>
		<g>
			<path d="M351.9,5.85l-14.4,36.9c57.9,22.6,101.5,73.9,113.2,136.5l39.3-7.4C475.6,95.75,422.7,33.15,351.9,5.85z"/>
			<path d="M330.2,61.45l-59.1,152.1l160.2-30.3l0,0C420.8,128.35,382.3,81.75,330.2,61.45z M360.1,172.35
				c-19.1,0-34.6-15.6-34.6-34.6s15.6-34.6,34.6-34.6c19.1,0,34.6,15.6,34.6,34.6S378.8,172.35,360.1,172.35z"/>
			<path d="M442.2,219.75l-29.6,5.4l0,0c2.3,12.1,3.5,24.1,3.5,36.2c0,106.6-86.7,192.9-192.9,192.9s-193.3-86.7-193.3-192.9
				s86.8-192.9,192.9-192.9c24.1,0,47.8,4.3,70,13.2l10.9-28c-25.3-9.7-52.5-15.2-80.9-15.2C99.9,38.55,0,138.15,0,261.35
				s99.9,222.8,222.8,222.8s222.8-99.9,222.8-222.8C446.1,246.95,444.5,233.35,442.2,219.75z"/>
			<path d="M393.1,228.85l-170.2,32.2l62.2-159.8c0,0-24.6-13.2-62.6-13.2c-95.3,0-173.1,77.8-173.1,173.1s77.8,172.9,173,172.9
				s173.1-77.8,173.1-173.1C397.1,250.85,393.1,228.85,393.1,228.85z M154.8,133.45c5.8-2.3,11.7-3.9,17.5-4.7
				c5.4-0.8,10.5,3.1,11.3,8.2c0.8,5.4-3.1,10.5-8.2,11.3c-4.3,0.8-8.9,1.9-12.8,3.5c-6.6,2.8-11.3-1.6-12.8-5.4
				C147.4,141.25,149.7,135.35,154.8,133.45z M123.7,173.85c4.7-0.4,9.3,1.2,12.8,3.9c4.3,3.1,5.1,9.3,1.9,14
				c-1.9,2.7-7,6.1-13.6,1.9c-5.4,0.4-10.1-3.9-10.5-9.3C113.9,178.95,118.2,174.25,123.7,173.85z M91,287.05
				c-4.3-3.1-5.4-9.3-1.9-14c3.1-4.3,9.3-5.4,14-1.9l11.7,8.6c4.3,3.1,5.4,9.3,1.9,14c-1.9,2.7-7.2,6.2-13.6,1.9L91,287.05z
				 M122.5,369.15c-1.9,1.9-8.6,5.2-14,0l-4.7-4.7c-3.9-3.9-3.9-10.1,0-14s10.1-3.9,14,0l4.7,4.7
				C126.4,358.95,126.4,365.25,122.5,369.15z M118.6,238.45c0-16.3,13.2-29.6,29.6-29.6s29.6,13.2,29.6,29.6s-13.2,29.6-29.6,29.6
				S118.6,254.75,118.6,238.45z M155.2,334.85c-1.9,1.9-8.5,5.3-14-0.4l-7.4-7.4c-3.9-3.9-3.9-10.1,0-14s10.1-3.9,14,0l7.4,7.4
				C159.1,324.75,159.1,330.95,155.2,334.85z M204.2,404.45c-1.6,4.3-5.6,7.8-12.4,6.2l-16.3-5.4c-5.1-1.6-7.8-7.4-6.2-12.4
				c1.6-5.1,7.4-7.8,12.4-6.2l16.3,5.4C203,393.65,205.7,399.05,204.2,404.45z M216.2,304.15c-1.9,3.1-6.5,7-13.2,3.9
				c-5.4-3.1-10.5-7-14.8-12.1c-3.5-4.3-3.1-10.5,0.8-14c4.3-3.5,10.5-3.1,14,0.8c2.7,3.1,5.8,5.8,9.3,7.8
				C217,293.65,218.9,299.45,216.2,304.15z M215.8,199.55c-1.8,1.2-7.4,5.4-14-1.2c-4.3-4.3-7-9.3-9.7-14.8
				c-2.3-5.1-0.4-10.9,4.7-13.2c5.1-2.3,10.9-0.4,13.2,4.7c1.9,3.9,4.3,7.4,7,10.5C220.5,189.85,219.7,196.05,215.8,199.55z
				 M218.6,125.25c-0.8-5.4,2.7-10.5,8.2-11.3c7-1.2,14.4,1.6,19.1,7c3.5,4.3,3.1,10.5-1.2,14c-8,6.1-14.8-1.6-14.8-1.6
				C224.4,134.65,219.3,130.75,218.6,125.25z M253.6,387.35c-16.7,0-30.3-13.6-30.3-30.3s13.6-30.3,30.3-30.3s30.3,13.6,30.3,30.3
				S270.3,387.35,253.6,387.35z M296.3,312.75c-5.2,1.3-8.6-1.2-10.5-3.9c-3.9-1.6-6.2-5.4-6.2-9.7c0.4-5.4,5.1-9.7,10.5-9.3
				c6.6,0.4,12.1,5.1,13.6,11.3C304.9,306.15,301.4,311.15,296.3,312.75z M355.8,320.15l-4.7,7.4c-4.7,7-12.1,4.3-13.6,3.1
				c-4.7-2.7-6.2-8.9-3.1-13.6l4.7-7.4c2.7-4.7,8.9-6.2,13.6-3.1C357.4,309.25,358.9,315.45,355.8,320.15z M359.7,265.25
				c-1.2,4.7-5.1,7.4-9.7,7.4c-0.8,0-1.6,0-2.3-0.4c-2.7-0.8-5.1-0.8-7.8-0.8c-5.4,0.8-10.1-3.1-10.5-8.6
				c-0.4-5.4,3.5-10.1,8.9-10.5c4.7-0.4,9.3,0,14,1.2C357.8,254.75,361.3,260.25,359.7,265.25z"/>
		</g>
	</g>
</g>
<g>
</g>
<g>
</g>
<g>
</g>
<g>
</g>
<g>
</g>
<g>
</g>
<g>
</g>
<g>
</g>
<g>
</g>
<g>
</g>
<g>
</g>
<g>
</g>
<g>
</g>
<g>
</g>
<g>
</g>
</svg>
