<?xml version="1.0" encoding="iso-8859-1"?>
<!-- Generator: Adobe Illustrator 19.0.0, SVG Export Plug-In . SVG Version: 6.00 Build 0)  -->
<svg version="1.1" id="Capa_1" xmlns="http://www.w3.org/2000/svg" xmlns:xlink="http://www.w3.org/1999/xlink" x="0px" y="0px"
	 viewBox="0 0 489.6 489.6" style="enable-background:new 0 0 489.6 489.6;" xml:space="preserve">
<g>
	<g>
		<g>
			<rect x="0" y="260.7" width="489.6" height="61.4"/>
			<path d="M460.5,447.3H29.1C13.2,447.3,0,434.1,0,418.2v-52.5h489.6v52.1C489.6,434,476.4,447.3,460.5,447.3z"/>
			<path d="M331.1,42.3H158.5C71.1,42.3,0,113.4,0,200.8v14h489.6v-14C489.6,113.5,418.5,42.3,331.1,42.3z M132.9,141
				c-1.2,4.7-6.1,8.8-12,7c-3.5-0.8-7.4-1.2-11.3-0.8c-5.4,0.4-10.1-3.5-10.9-8.9c-0.4-5.4,3.5-10.1,8.9-10.9
				c5.8-0.8,12-0.4,17.9,1.2C130.9,130.6,134.1,136,132.9,141z M239,114.6c-6,6.2-12,2.7-14,1.2c-3.5-3.1-7.8-5.4-12-7.4
				c-5.1-1.9-7.4-7.8-5.4-12.8c1.9-5.1,7.8-7.4,12.8-5.4c6.6,2.7,12.4,6.2,17.9,10.9C242.1,104.5,242.5,110.7,239,114.6z M361,122.8
				c-6.4,5.1-12,1.9-14,0c-4.7-4.7-10.1-8.5-15.9-11.3c-5.1-2.3-7-8.2-4.7-13.2c2.3-5.1,8.2-7,13.2-4.7c8.2,3.9,15.2,8.9,21.4,15.2
				C364.9,112.7,364.9,119.3,361,122.8z"/>
		</g>
	</g>
</g>
<g>
</g>
<g>
</g>
<g>
</g>
<g>
</g>
<g>
</g>
<g>
</g>
<g>
</g>
<g>
</g>
<g>
</g>
<g>
</g>
<g>
</g>
<g>
</g>
<g>
</g>
<g>
</g>
<g>
</g>
</svg>
