<?xml version="1.0" encoding="iso-8859-1"?>
<!-- Generator: Adobe Illustrator 19.0.0, SVG Export Plug-In . SVG Version: 6.00 Build 0)  -->
<svg version="1.1" id="Capa_1" xmlns="http://www.w3.org/2000/svg" xmlns:xlink="http://www.w3.org/1999/xlink" x="0px" y="0px"
	 viewBox="0 0 489.625 489.625" style="enable-background:new 0 0 489.625 489.625;" xml:space="preserve">
<g>
	<g>
		<g>
			<path d="M48.225,99.112c-50.9,0-48.2,177.6-48.2,204h48.2V99.112z"/>
			<ellipse cx="453.125" cy="157.412" rx="36.5" ry="58.3"/>
			<path d="M244.825,84.712c-88.6,0-160.1,71.9-160.1,160.1c0,88.6,71.9,160.1,160.1,160.1c88.6,0,160.1-71.9,160.1-160.1
				C404.925,156.212,333.425,84.712,244.825,84.712z M244.825,347.812c-56.7,0-103-46-103-103c0-56.7,46-103,103-103s103,46,103,103
				C347.825,301.512,301.825,347.812,244.825,347.812z"/>
			<path d="M244.825,161.612c-46,0-83.2,37.3-83.2,83.2c0,46,37.3,83.2,83.2,83.2c46,0,83.2-37.3,83.2-83.2
				C328.025,198.812,290.825,161.612,244.825,161.612z"/>
			<path d="M18.325,322.912l-1.9,49.3c-0.4,10.1,7.4,18.3,17.5,18.3s17.9-8.5,17.5-18.3l-1.9-49.3H18.325z"/>
			<path d="M441.425,233.912l-5.8,138.3c-0.4,10.1,7.4,18.3,17.5,18.3s17.9-8.5,17.5-18.3l-5.8-138.3
				C460.425,236.012,444.925,236.012,441.425,233.912z"/>
		</g>
	</g>
</g>
<g>
</g>
<g>
</g>
<g>
</g>
<g>
</g>
<g>
</g>
<g>
</g>
<g>
</g>
<g>
</g>
<g>
</g>
<g>
</g>
<g>
</g>
<g>
</g>
<g>
</g>
<g>
</g>
<g>
</g>
</svg>
