<?xml version="1.0" encoding="iso-8859-1"?>
<!-- Generator: Adobe Illustrator 19.0.0, SVG Export Plug-In . SVG Version: 6.00 Build 0)  -->
<svg version="1.1" id="Capa_1" xmlns="http://www.w3.org/2000/svg" xmlns:xlink="http://www.w3.org/1999/xlink" x="0px" y="0px"
	 viewBox="0 0 512 512" style="enable-background:new 0 0 512 512;" xml:space="preserve">
<g>
	<g>
		<path d="M251.138,36.47V0h-30v75.44c2.59,1.15,4.93,2.42,7.02,3.64c13.413,7.827,10.519-0.614,29.48-6.01
			c20.324-5.807,45.755,2.939,61.4,34.5c13.941,28.123,38.824,50.668,58.63,78.73c21.168-2.451,32.367-6.887,43.26-10.64
			C409.214,65.31,343.666,19.478,251.138,36.47z"/>
	</g>
</g>
<g>
	<g>
		<path d="M340.068,186.55c-17.152-20.962-35.51-40.607-47.91-65.66c-15.315-30.931-31.516-16.37-37.91-13.01
			c-0.104,0-18.654,10.725-38.58-1.32c-6.576-3.987-21.402-14.174-35.55,14.33c-19.283,38.904-52.941,64.988-71.32,99.24
			c-45.237,84.35-4.279,207.861,127.34,232.24C368.909,427.709,426.469,292.412,340.068,186.55z"/>
	</g>
</g>
<g>
	<g>
		<path d="M275.298,472.76c-37.371,12.993-45.335,11.48-78.32,0l-12.96,18.83l24.71,17.01l12.41-18.02V512h30v-21.42l12.41,18.02
			l24.71-17.01L275.298,472.76z"/>
	</g>
</g>
<g>
</g>
<g>
</g>
<g>
</g>
<g>
</g>
<g>
</g>
<g>
</g>
<g>
</g>
<g>
</g>
<g>
</g>
<g>
</g>
<g>
</g>
<g>
</g>
<g>
</g>
<g>
</g>
<g>
</g>
</svg>
