<svg height="512pt" viewBox="0 -48 512 512" width="512pt" xmlns="http://www.w3.org/2000/svg"><path d="m284.054688 289.199219-66.402344-66.398438h-184.453125c-18.335938 0-33.199219 14.863281-33.199219 33.199219s14.863281 33.199219 33.199219 33.199219zm0 0"/><path d="m143.515625 415.601562h224.96875c57.152344 0 103.132813-42.621093 110.375-96.402343h-445.71875c7.230469 53.695312 53.136719 96.402343 110.375 96.402343zm0 0"/><path d="m336.332031 0h-160.664062c-74.078125 0-135.207031 56.414062-142.734375 128.53125h446.136718c-7.527343-72.117188-68.660156-128.53125-142.738281-128.53125zm0 0"/><path d="m380.453125 222.800781h-120.375l60.1875 60.1875zm0 0"/><path d="m17.132812 192.800781h477.734376c9.460937 0 17.132812-7.671875 17.132812-17.132812 0-9.464844-7.671875-17.132813-17.132812-17.132813h-477.734376c-9.460937-.003906-17.132812 7.667969-17.132812 17.132813 0 9.460937 7.671875 17.132812 17.132812 17.132812zm0 0"/><path d="m478.800781 222.800781h-55.921875l-66.398437 66.398438h122.320312c18.335938 0 33.199219-14.863281 33.199219-33.199219s-14.863281-33.199219-33.199219-33.199219zm0 0"/></svg>