<svg height="512pt" viewBox="-80 0 512 512" width="512pt" xmlns="http://www.w3.org/2000/svg"><path d="m81.398438 47.128906c0-8.277344-6.710938-15-15-15h-19.261719c-8.289063 0-15 6.722656-15 15v115.671875h49.261719zm0 0"/><path d="m319.195312 63.199219c0-8.277344-6.707031-15-15-15h-19.257812c-8.289062 0-15 6.722656-15 15v99.601562h49.257812zm0 0"/><path d="m175.667969 351.332031c-13.878907 0-25.167969 11.289063-25.167969 25.167969s11.289062 25.167969 25.167969 25.167969c13.875 0 25.167969-11.289063 25.167969-25.167969s-11.292969-25.167969-25.167969-25.167969zm0 0"/><path d="m347.511719 197.796875c-2.847657-3.179687-6.910157-4.996094-11.175781-4.996094h-100.667969c-8.285157 0-15 6.714844-15 15 0 24.851563-20.148438 45-45 45-24.855469 0-45-20.148437-45-45 0-8.285156-6.71875-15-15-15h-100.667969c-4.265625 0-8.332031 1.816407-11.175781 4.996094-2.847657 3.179687-4.203125 7.417969-3.730469 11.660156l32.132812 289.199219c.84375 7.597656 7.265626 13.34375 14.90625 13.34375h257.066407c7.644531 0 14.066406-5.746094 14.910156-13.34375l32.132813-289.199219c.472656-4.242187-.886719-8.480469-3.730469-11.660156zm-171.84375 233.871094c-30.417969 0-55.167969-24.75-55.167969-55.167969s24.75-55.167969 55.167969-55.167969 55.167969 24.75 55.167969 55.167969-24.75 55.167969-55.167969 55.167969zm0 0"/><path d="m235.667969 162.800781h4.269531v-147.800781c0-8.28125-6.71875-15-15-15h-19.269531c-8.28125 0-15 6.71875-15 15v192.800781c0-24.816406 20.1875-45 45-45zm0 0"/><path d="m160.667969 207.800781v-160.671875c0-8.277344-6.722657-15-15-15h-19.269531c-8.28125 0-15 6.722656-15 15v115.671875h4.269531c24.8125 0 45 20.183594 45 45zm0 0"/></svg>