<svg height="512pt" viewBox="-30 0 512 512" width="512pt" xmlns="http://www.w3.org/2000/svg"><path d="m361.523438 321.464844c23.207031-4.535156 44.441406-16.238282 60.84375-33.753906 19.738281-21.074219 30.605468-48.597657 30.605468-77.503907 0-56.773437-41.566406-104-96.546875-112.136719-16.316406-57.453124-69.265625-98.070312-129.9375-98.070312-60.675781 0-113.625 40.617188-129.941406 98.070312-54.980469 8.136719-96.546875 55.363282-96.546875 112.136719 0 28.910157 10.867188 56.441407 30.597656 77.519531 16.40625 17.519532 37.636719 29.226563 60.851563 33.753907v190.519531h270.074219zm-30.007813 160.527344h-210.058594v-39.761719h210.058594zm13.96875-188.625-13.96875.964843v117.890625h-30.007813v-65.808594h-30.007812v65.808594h-30.011719v-65.808594h-30.003906v65.808594h-30.011719v-65.808594h-30.007812v65.808594h-30.007813v-117.882812l-13.976562-.957032c-43.441407-2.988281-77.472657-39.519531-77.472657-83.175781 0-44.582031 34.851563-81.160156 79.34375-83.273437l11.757813-.554688 2.257813-11.554687c9.59375-49.148438 52.960937-84.816407 103.121093-84.816407 50.15625 0 93.527344 35.667969 103.121094 84.816407l2.253906 11.554687 11.757813.554688c44.492187 2.113281 79.34375 38.691406 79.34375 83.273437 0 43.632813-34.03125 80.164063-77.480469 83.160157zm0 0"/></svg>