<svg height="512pt" viewBox="0 -60 512 512" width="512pt" xmlns="http://www.w3.org/2000/svg"><path d="m429.464844 273.589844c4.890625-1.515625 10.089844-2.332032 15.472656-2.332032 5.386719 0 10.582031.816407 15.476562 2.332032v-95.558594h-30.949218zm0 0"/><path d="m258.097656 105.21875c-7.320312-40.625-42.941406-71.546875-85.644531-71.546875s-78.324219 30.921875-85.644531 71.546875c-47.886719.117188-86.808594 39.109375-86.808594 87.027344 0 37.703125 24.066406 70.492187 58.808594 82.332031v102.257813c0 8.546874 6.929687 15.476562 15.476562 15.476562h17.582032v-84.394531c0-8.546875 6.929687-15.472657 15.476562-15.472657s15.476562 6.925782 15.476562 15.472657v84.394531h34.15625v-84.394531c0-8.546875 6.929688-15.472657 15.476563-15.472657s15.476563 6.925782 15.476563 15.472657v84.394531h34.160156v-84.394531c0-8.546875 6.925781-15.472657 15.472656-15.472657s15.476562 6.925782 15.476562 15.472657v84.394531h17.582032c8.546875 0 15.476562-6.929688 15.476562-15.476562v-102.257813c34.742188-11.839844 58.8125-44.628906 58.8125-82.335937 0-47.914063-38.921875-86.90625-86.8125-87.023438zm0 0"/><path d="m490.015625 0h-90.15625c-12.121094 0-21.984375 9.859375-21.984375 21.984375v103.113281c0 12.121094 9.863281 21.980469 21.984375 21.980469h90.15625c12.121094 0 21.984375-9.859375 21.984375-21.980469v-103.117187c0-12.121094-9.863281-21.980469-21.984375-21.980469zm-83.59375 97.242188v-47.40625c0-8.546876 6.929687-15.476563 15.476563-15.476563 8.546874 0 15.476562 6.929687 15.476562 15.476563v47.40625c0 8.546874-6.929688 15.476562-15.476562 15.476562-8.546876 0-15.476563-6.929688-15.476563-15.476562zm77.035156 0c0 8.546874-6.929687 15.476562-15.476562 15.476562s-15.476563-6.929688-15.476563-15.476562v-47.40625c0-8.546876 6.929688-15.476563 15.476563-15.476563s15.476562 6.929687 15.476562 15.476563zm0 0"/><path d="m423.445312 323.703125v45.765625c0 11.851562 9.640626 21.492188 21.492188 21.492188s21.492188-9.640626 21.492188-21.492188v-45.765625c0-11.851563-9.640626-21.496094-21.492188-21.496094s-21.492188 9.644531-21.492188 21.496094zm0 0"/></svg>