<?xml version="1.0" encoding="iso-8859-1"?>
<!-- Generator: Adobe Illustrator 19.0.0, SVG Export Plug-In . SVG Version: 6.00 Build 0)  -->
<svg version="1.1" id="Capa_1" xmlns="http://www.w3.org/2000/svg" xmlns:xlink="http://www.w3.org/1999/xlink" x="0px" y="0px"
	 viewBox="0 0 490.4 490.4" style="enable-background:new 0 0 490.4 490.4;" xml:space="preserve">
<g>
	<g>
		<g>
			<path d="M0,211.568c0,105.8,67.3,196,161.4,230.2v39.7H329v-39.7c94.1-34.2,161.4-124.4,161.4-230.2L0,211.568L0,211.568z"/>
			<path d="M457.3,166.468c2.3-5.4,3.5-11.7,3.5-17.9c0-26.4-22.5-50.9-52.1-47.4c3.1-28.7-21-52.1-47.4-52.1
				c-8.2,0-15.9,1.9-22.9,5.8c-5.9-19.9-24.2-34.7-46-34.7c-12.1,0-23.3,4.7-31.5,12.1c-8.2-14-23.7-22.6-40.8-23.3
				c-26-1.1-50.9,23.3-47.4,54.4c-22.3-16-43.3-8.5-49.5-5.6c-16.3,7.6-29,26.4-27.1,47.6c-55.7-6.2-59.5,54.5-53.7,59.9
				c-15.6,2.7-28.4,13.2-34.6,27.2h477.9C480.3,180.068,469.8,170.668,457.3,166.468z"/>
		</g>
	</g>
</g>
<g>
</g>
<g>
</g>
<g>
</g>
<g>
</g>
<g>
</g>
<g>
</g>
<g>
</g>
<g>
</g>
<g>
</g>
<g>
</g>
<g>
</g>
<g>
</g>
<g>
</g>
<g>
</g>
<g>
</g>
</svg>
