<?xml version="1.0" encoding="iso-8859-1"?>
<!-- Generator: Adobe Illustrator 19.0.0, SVG Export Plug-In . SVG Version: 6.00 Build 0)  -->
<svg version="1.1" id="Capa_1" xmlns="http://www.w3.org/2000/svg" xmlns:xlink="http://www.w3.org/1999/xlink" x="0px" y="0px"
	 viewBox="0 0 490.003 490.003" style="enable-background:new 0 0 490.003 490.003;" xml:space="preserve">
<g>
	<g>
		<g>
			<path d="M0,272.014h26.4c8.6,0,15.9,5.4,18.7,13.2l32.7,98.8c7.8,24.1,30.3,40.1,55.6,40.1h220.1c25.3,0,47.4-16.3,55.6-40.1
				l32.7-98.8c2.7-8.2,10.1-13.2,18.7-13.2h26.4v-34.2H0V272.014z"/>
			<path d="M288.2,165.014c1.9,5.8,6.2,20.2-0.4,29.9c-3.1,4.7-1.9,10.5,2.7,13.6c6.6,3.8,11.7,0,13.6-2.7
				c11.3-16.7,6.2-36.9,2.3-47.8c-2.3-6.2-14-29.9-15.9-36.2c-2.7-8.9-5.7-28.9,15.2-39.7c3.5-4.3,2.7-10.5-1.2-14
				c-4.3-3.5-10.5-2.7-14,1.2c-1.2,1.6-9.3,7.8-11.3,9.7c-10.5,11.3-13.6,29.2-7.8,47.8C274.6,135.514,286.2,160.014,288.2,165.014z
				"/>
			<path d="M220.3,165.014c1.9,5.8,6.2,20.2-0.4,29.9c-3.1,4.7-1.9,10.5,2.7,13.6c6.6,3.8,11.7,0,13.6-2.7
				c11.3-16.7,6.2-36.9,2.3-47.8c-2.3-6.2-14-29.9-15.9-36.2c-2.7-8.9-5.9-29.8,15.2-39.7c3.5-4.3,2.7-10.5-1.2-14
				c-4.3-3.5-10.5-2.7-14,1.2c-1.2,1.6-9.3,7.8-11.3,9.7c-10.5,11.3-13.6,29.2-7.8,47.8C206.7,135.514,218.4,160.014,220.3,165.014z
				"/>
			<path d="M152.5,165.014c1.9,5.8,6.2,20.2-0.4,29.9c-3.1,4.7-1.9,10.5,2.7,13.6c6.6,3.8,11.7,0,13.6-2.7
				c11.3-16.7,6.2-36.9,2.3-47.8c-2.3-6.2-14-29.9-15.9-36.2c-2.7-8.9-4.5-29.8,15.2-39.7c3.5-4.3,2.7-10.5-1.2-14
				c-4.3-3.5-10.5-2.7-14,1.2c-1.2,1.6-9.3,7.8-11.3,9.7c-10.5,11.3-13.6,29.2-7.8,47.8C138.9,135.514,150.6,160.014,152.5,165.014z
				"/>
			<path d="M479.1,135.114c10.1-4.7,14-17.5,8.2-26.8c-4.3-7-12.8-10.5-21-8.2c-63.4,18.3-89.4,84.4-98.8,117.8h29.9
				C420,169.714,456.6,146.014,479.1,135.114z"/>
		</g>
	</g>
</g>
<g>
</g>
<g>
</g>
<g>
</g>
<g>
</g>
<g>
</g>
<g>
</g>
<g>
</g>
<g>
</g>
<g>
</g>
<g>
</g>
<g>
</g>
<g>
</g>
<g>
</g>
<g>
</g>
<g>
</g>
</svg>
