<?xml version="1.0" encoding="iso-8859-1"?>
<!-- Generator: Adobe Illustrator 19.0.0, SVG Export Plug-In . SVG Version: 6.00 Build 0)  -->
<svg version="1.1" id="Capa_1" xmlns="http://www.w3.org/2000/svg" xmlns:xlink="http://www.w3.org/1999/xlink" x="0px" y="0px"
	 viewBox="0 0 489.664 489.664" style="enable-background:new 0 0 489.664 489.664;" xml:space="preserve">
<g>
	<g>
		<path d="M433.432,340.564c0-60.7-45.5-110.9-103.9-118.7c-3.2-7.3-14.7-67.7-5.8-121.8c10.5,20.2,30,36.6,56.4,45.1
			c31.9-52.1,12.8-109.7-41.6-132.3c1.4-3.6,0-8.2-2.7-10.5s-6.6-3.1-10.1-1.6c-104.4,47.1-136.7,190.3-140.2,207.8
			c-70.7-7.4-129.3,53.3-129.3,119.1c0,40.1,19.8,75.5,50.2,97.3l-10.1,10.5c-3.9,3.9-3.5,10.1,0.4,13.6c6,5.3,11.7,1.6,13.6-0.4
			l9-9.3l-5.1,11.3c-2.3,4.7,0,10.5,4.7,12.8c5.7,2.5,10.9-1.2,12.8-4.7l7-15.6l-0.8,17.5c-0.4,5.4,3.9,9.7,9,10.1
			c5.1,0.2,9.8-3.9,10.1-9l0.8-16c14.2,6.6,46.3-1.6,59.5-6.2c-25.7-25.3-42-60.3-42-99.2c0-47.9,24.5-90.3,61.9-115.6
			c-10.1-5.8-21-10.5-32.3-13.2c3.5-16.3,30-127.3,104.3-179.4c-4.7,16.3-5.8,32.7-2.3,48.6c-8.2,59.9-7.4,107,2.7,140.1
			c-64.6,2.7-115.2,55.3-115.2,119.5c0,57.2,40.5,105.5,94.2,116.8l-6.2,13.6c-2.3,4.7,0,10.5,4.7,12.8c6.2,2.4,10.9-1.2,12.5-4.7
			l7-15.2l-0.4,16.3c0,5.4,4.3,9.7,9.3,9.7l0,0c5.1,0,9.7-4.3,9.7-9.3l0.4-16.7l3.5,16.7c0.8,4.7,5.8,8.6,11.3,7.8
			c5.1-1.2,8.6-6.2,7.4-11.3l-4.3-20.6C395.632,442.864,433.432,396.164,433.432,340.564z"/>
	</g>
</g>
<g>
</g>
<g>
</g>
<g>
</g>
<g>
</g>
<g>
</g>
<g>
</g>
<g>
</g>
<g>
</g>
<g>
</g>
<g>
</g>
<g>
</g>
<g>
</g>
<g>
</g>
<g>
</g>
<g>
</g>
</svg>
