<?xml version="1.0" encoding="iso-8859-1"?>
<!-- Generator: Adobe Illustrator 18.0.0, SVG Export Plug-In . SVG Version: 6.00 Build 0)  -->
<!DOCTYPE svg PUBLIC "-//W3C//DTD SVG 1.1//EN" "http://www.w3.org/Graphics/SVG/1.1/DTD/svg11.dtd">
<svg version="1.1" id="Capa_1" xmlns="http://www.w3.org/2000/svg" xmlns:xlink="http://www.w3.org/1999/xlink" x="0px" y="0px"
	 viewBox="0 0 57 57" style="enable-background:new 0 0 57 57;" xml:space="preserve">
<g>
	<path d="M50.002,24.802c0.956-0.566,1.771-1.352,2.34-2.347c0.865-1.511,1.093-3.262,0.639-4.931
		c-0.767-2.824-3.35-4.796-6.281-4.796c-0.571,0-1.141,0.076-1.694,0.227L44.839,13l-0.549,0.379L50.002,24.802z"/>
	<path d="M14.318,13.84L9.395,25.326l4.999,2.164c2.005,1.245,5.049,3.995,3.565,8.671l-2.527,4.411l12.22,6.401l0.737-1.044
		c0.393-0.557,1.294-0.557,1.685,0l1.439,2.037l11.725-7.035l-2.733-4.77c-1.463-4.612,1.501-7.354,3.452-8.599l4.218-1.938
		l-5.548-11.095l-4.058,2.803c0.626-0.841,1.146-2.084,1.146-4.399c0-2.189-0.244-4.008-0.656-5.542l-0.516-1.546
		C36.663,1.186,32.831,0,29.456,0c-9.611,0-10.723,7.419-10.723,13c0,2.292,0.923,3.759,1.553,4.627L14.318,13.84z M29.233,40
		c-1.93,0-3.5-1.57-3.5-3.5s1.57-3.5,3.5-3.5s3.5,1.57,3.5,3.5S31.163,40,29.233,40z M29.233,31c-1.93,0-3.5-1.57-3.5-3.5
		s1.57-3.5,3.5-3.5s3.5,1.57,3.5,3.5S31.163,31,29.233,31z M32.733,6c1.105,0,2,0.896,2,2s-0.895,2-2,2s-2-0.896-2-2
		S31.628,6,32.733,6z M25.733,6c1.105,0,2,0.896,2,2s-0.895,2-2,2s-2-0.896-2-2S24.628,6,25.733,6z M24.733,12c0.553,0,1,0.447,1,1
		c0,1.202,1.706,2.356,3.511,2.375c1.756,0,3.489-1.177,3.489-2.375c0-0.553,0.447-1,1-1s1,0.447,1,1c0,2.578-2.898,4.375-5.5,4.375
		c-2.661-0.027-5.5-1.792-5.5-4.375C23.733,12.447,24.18,12,24.733,12z"/>
	<polygon points="26.489,48.62 14.438,42.307 13.614,43.745 25.539,49.966 	"/>
	<polygon points="32.697,49.614 32.689,49.628 33.826,51.236 44.91,43.847 44.234,42.666 32.673,49.602 	"/>
	<path d="M46.733,45.035L34.98,52.871l0.622,0.88c0.037,0.064,0.079,0.122,0.1,0.141c0.18,0.292,0.363,0.549,0.562,0.785
		c0.086,0.102,0.176,0.197,0.267,0.292c0.198,0.209,0.408,0.406,0.628,0.583c0.104,0.085,0.21,0.163,0.316,0.238
		c0.244,0.174,0.501,0.333,0.77,0.474c0.093,0.048,0.184,0.091,0.273,0.132c0.304,0.141,0.611,0.257,0.909,0.343l0.247,0.064
		c0.328,0.082,0.658,0.139,0.979,0.168c0.082,0.007,0.163,0.011,0.244,0.015l0.128,0.006C41.093,56.996,41.163,57,41.233,57h1.813
		c3.246,0,6.012-2.226,6.575-5.293C50.114,49.033,48.901,46.427,46.733,45.035z"/>
	<path d="M11.747,45.027c-2.176,1.389-3.396,4.001-2.902,6.68C9.408,54.774,12.173,57,15.419,57h1.813
		c0.07,0,0.14-0.004,0.209-0.009l0.128-0.006c0.082-0.004,0.162-0.008,0.241-0.015c0.323-0.029,0.653-0.086,1.034-0.181l0.189-0.05
		c0.303-0.088,0.61-0.204,0.909-0.343c0.095-0.043,0.186-0.086,0.28-0.135c0.267-0.14,0.523-0.299,0.765-0.471
		c0.109-0.077,0.216-0.155,0.313-0.235c0.226-0.182,0.436-0.379,0.634-0.587c0.091-0.096,0.181-0.191,0.267-0.293
		c0.198-0.236,0.382-0.493,0.537-0.747l1.634-2.315L11.747,45.027z"/>
	<path d="M7.542,24.575l5.066-11.82l-0.339-0.215l-0.274-0.12c-0.554-0.15-1.123-0.227-1.694-0.227
		c-2.932,0-5.515,1.972-6.281,4.796c-0.454,1.669-0.227,3.42,0.639,4.931C5.334,23.101,6.339,24.014,7.542,24.575z"/>
</g>
<g>
</g>
<g>
</g>
<g>
</g>
<g>
</g>
<g>
</g>
<g>
</g>
<g>
</g>
<g>
</g>
<g>
</g>
<g>
</g>
<g>
</g>
<g>
</g>
<g>
</g>
<g>
</g>
<g>
</g>
</svg>
