<svg height="512pt" viewBox="0 0 512 512.00032" width="512pt" xmlns="http://www.w3.org/2000/svg"><path d="m507.605469 4.394531c-4.015625-4.019531-9.960938-5.421875-15.347657-3.625l-365.859374 121.953125v20.828125c0 133.703125 108.183593 242.050781 242.050781 242.050781h20.828125l121.953125-365.855468c1.796875-5.390625.394531-11.335938-3.625-15.351563zm-305.265625 214.011719c-5.855469 5.859375-15.355469 5.859375-21.210938 0l-16.070312-16.066406c-5.855469-5.859375-5.855469-15.355469 0-21.210938 5.859375-5.859375 15.355468-5.859375 21.214844 0l16.066406 16.0625c5.859375 5.859375 5.859375 15.359375 0 21.214844zm38.660156-2.570312c0-30.421876 24.75-55.167969 55.167969-55.167969s55.164062 24.746093 55.164062 55.167969c0 30.417968-24.746093 55.164062-55.164062 55.164062s-55.167969-24.746094-55.167969-55.164062zm105.9375 98.972656-16.0625 16.066406c-5.859375 5.855469-15.355469 5.855469-21.214844 0-5.859375-5.859375-5.859375-15.355469 0-21.214844l16.066406-16.066406c5.855469-5.859375 15.355469-5.859375 21.210938 0 5.859375 5.859375 5.859375 15.355469 0 21.214844zm32.136719-160.667969c-5.855469 5.855469-15.355469 5.859375-21.214844 0l-16.066406-16.066406c-5.855469-5.859375-5.855469-15.355469 0-21.214844 5.859375-5.855469 15.355469-5.855469 21.214843 0l16.066407 16.066406c5.855469 5.859375 5.855469 15.355469 0 21.214844zm0 0"/><path d="m368.449219 415.601562c-150.273438 0-272.050781-121.589843-272.050781-272.050781v-10.828125l-86.140626 28.714844c-6.125 2.042969-10.257812 7.789062-10.257812 14.246094 0 185.679687 150.777344 336.316406 336.332031 336.316406 6.457031 0 12.1875-4.128906 14.230469-10.253906l28.714844-86.144532zm0 0"/><path d="m296.167969 190.667969c-13.878907 0-25.167969 11.289062-25.167969 25.167969 0 13.875 11.289062 25.164062 25.167969 25.164062 13.875 0 25.164062-11.289062 25.164062-25.164062 0-13.878907-11.289062-25.167969-25.164062-25.167969zm0 0"/></svg>