<svg height="512pt" viewBox="0 0 512 512" width="512pt" xmlns="http://www.w3.org/2000/svg"><path d="m437.019531 74.980469c-48.351562-48.351563-112.640625-74.980469-181.019531-74.980469-45.007812 0-89.277344 11.851562-128.023438 34.273438-7.234374 4.183593-9.710937 13.441406-5.53125 20.683593l30.242188 52.378907c.015625.035156.03125.066406.050781.101562l77.023438 133.414062h-214.613281c-8.367188 0-15.148438 6.78125-15.148438 15.148438 0 68.378906 26.628906 132.667969 74.980469 181.019531 48.351562 48.351563 112.640625 74.980469 181.019531 74.980469 45.007812 0 89.277344-11.851562 128.019531-34.269531 38.210938-22.105469 70.253907-53.890625 92.671875-91.917969 23.097656-39.191406 35.308594-84.078125 35.308594-129.8125 0-68.378906-26.628906-132.667969-74.980469-181.019531zm44.164063 165.871093h-30.359375c-4.660157-60.5-36.996094-113.363281-84.332031-145.929687l15.1875-26.308594c56.347656 37.917969 94.730468 100.550781 99.503906 172.238281zm-294.285156-134.847656c21.546874-9.921875 45.160156-15.117187 69.101562-15.117187 24.652344 0 48.050781 5.441406 69.082031 15.167969l-69.082031 119.648437zm95.339843 165.144532h138.171875c-4.503906 49.3125-30.777344 92.425781-69.113281 119.613281zm42.84375 134.796874c-21.03125 9.726563-44.429687 15.167969-69.082031 15.167969s-48.050781-5.441406-69.082031-15.167969l69.082031-119.648437zm-42.84375-165.09375 69.058594-119.613281c38.335937 27.1875 64.605469 70.300781 69.113281 119.613281zm-26.238281-210.554687c35.675781 0 69.4375 8.332031 99.460938 23.132813l-15.179688 26.292968c-25.53125-12.257812-54.117188-19.132812-84.28125-19.132812-29.261719 0-58.101562 6.585937-84.292969 19.105468l-15.199219-26.335937c30.792969-15.128906 64.890626-23.0625 99.492188-23.0625zm-26.238281 240.851563-69.054688 119.609374c-38.332031-27.191406-64.625-70.296874-69.128906-119.609374zm-198.964844 0h30.378906c4.660157 60.5 36.996094 113.363281 84.332031 145.929687l-15.1875 26.308594c-56.351562-37.914063-94.75-100.550781-99.523437-172.238281zm125.738281 187.429687 15.183594-26.300781c25.53125 12.257812 54.117188 19.132812 84.28125 19.132812s58.75-6.875 84.28125-19.132812l1.082031 1.871094 14.132813 24.488281c-30.796875 15.125-64.894532 23.066406-99.496094 23.066406-35.675781 0-69.441406-8.324219-99.464844-23.125zm225.183594-15.113281-14.117188-24.464844-1.113281-1.921875c47.335938-32.566406 79.675781-85.429687 84.335938-145.929687h30.363281c-4.710938 69.476562-41.617188 133.414062-99.46875 172.316406zm0 0"/><path d="m249.046875 125.980469c-.367187-8.207031-6.65625-15.148438-15.148437-15.148438-7.921876 0-15.511719 6.96875-15.144532 15.148438.367188 8.207031 6.65625 15.148437 15.144532 15.148437 7.925781 0 15.515624-6.96875 15.148437-15.148437zm0 0"/><path d="m278.101562 110.832031c-7.925781 0-15.515624 6.96875-15.148437 15.148438.367187 8.207031 6.65625 15.148437 15.148437 15.148437 7.921876 0 15.511719-6.96875 15.144532-15.148437-.363282-8.207031-6.652344-15.148438-15.144532-15.148438zm0 0"/><path d="m256 151.535156c-7.921875 0-15.515625 6.964844-15.148438 15.148438.367188 8.207031 6.65625 15.144531 15.148438 15.144531 7.921875 0 15.515625-6.964844 15.148438-15.144531-.367188-8.210938-6.65625-15.148438-15.148438-15.148438zm0 0"/><path d="m139.300781 340.148438c.371094 8.207031 6.65625 15.148437 15.148438 15.148437 7.925781 0 15.515625-6.96875 15.148437-15.148437-.367187-8.207032-6.65625-15.148438-15.148437-15.148438-7.921875 0-15.511719 6.96875-15.148438 15.148438zm0 0"/><path d="m147.496094 301.871094c-.367188-8.207032-6.65625-15.148438-15.148438-15.148438-7.921875 0-15.511718 6.964844-15.144531 15.148438.367187 8.207031 6.65625 15.148437 15.144531 15.148437 7.925782 0 15.515625-6.96875 15.148438-15.148437zm0 0"/><path d="m178.648438 315.808594c7.921874 0 15.515624-6.96875 15.148437-15.148438-.367187-8.207031-6.65625-15.148437-15.148437-15.148437-7.921876 0-15.515626 6.964843-15.148438 15.148437.367188 8.207032 6.65625 15.148438 15.148438 15.148438zm0 0"/><path d="m262.953125 386.019531c.367187 8.207031 6.65625 15.148438 15.148437 15.148438 7.921876 0 15.511719-6.96875 15.144532-15.148438-.367188-8.207031-6.65625-15.148437-15.144532-15.148437-7.925781 0-15.515624 6.96875-15.148437 15.148437zm0 0"/><path d="m233.898438 401.167969c7.925781 0 15.515624-6.96875 15.148437-15.148438-.367187-8.207031-6.65625-15.148437-15.148437-15.148437-7.921876 0-15.511719 6.96875-15.144532 15.148437.367188 8.207031 6.652344 15.148438 15.144532 15.148438zm0 0"/><path d="m256 360.464844c7.921875 0 15.515625-6.964844 15.148438-15.148438-.367188-8.207031-6.65625-15.144531-15.148438-15.144531-7.921875 0-15.515625 6.964844-15.148438 15.144531.367188 8.210938 6.65625 15.148438 15.148438 15.148438zm0 0"/><path d="m379.652344 317.019531c7.921875 0 15.511718-6.96875 15.144531-15.148437-.367187-8.207032-6.65625-15.148438-15.144531-15.148438-7.925782 0-15.515625 6.964844-15.148438 15.148438.367188 8.207031 6.65625 15.148437 15.148438 15.148437zm0 0"/><path d="m357.550781 325c-7.925781 0-15.515625 6.96875-15.148437 15.148438.367187 8.207031 6.65625 15.148437 15.148437 15.148437 7.921875 0 15.511719-6.96875 15.148438-15.148437-.371094-8.207032-6.65625-15.148438-15.148438-15.148438zm0 0"/><path d="m348.5 300.660156c-.367188-8.207031-6.65625-15.148437-15.148438-15.148437-7.921874 0-15.515624 6.964843-15.148437 15.148437.367187 8.207032 6.65625 15.148438 15.148437 15.148438 7.921876 0 15.515626-6.96875 15.148438-15.148438zm0 0"/><path d="m357.550781 156.703125c-7.925781 0-15.515625 6.96875-15.148437 15.148437.367187 8.207032 6.65625 15.148438 15.148437 15.148438 7.921875 0 15.511719-6.96875 15.148438-15.148438-.371094-8.207031-6.65625-15.148437-15.148438-15.148437zm0 0"/><path d="m364.503906 210.128906c.367188 8.207032 6.65625 15.148438 15.148438 15.148438 7.921875 0 15.511718-6.964844 15.144531-15.148438-.367187-8.207031-6.65625-15.148437-15.144531-15.148437-7.925782 0-15.515625 6.96875-15.148438 15.148437zm0 0"/><path d="m333.351562 196.191406c-7.921874 0-15.515624 6.96875-15.148437 15.148438.367187 8.207031 6.65625 15.148437 15.148437 15.148437 7.921876 0 15.515626-6.964843 15.148438-15.148437-.367188-8.207032-6.65625-15.148438-15.148438-15.148438zm0 0"/></svg>