<?xml version="1.0" encoding="iso-8859-1"?>
<!-- Generator: Adobe Illustrator 19.0.0, SVG Export Plug-In . SVG Version: 6.00 Build 0)  -->
<svg version="1.1" id="Layer_1" xmlns="http://www.w3.org/2000/svg" xmlns:xlink="http://www.w3.org/1999/xlink" x="0px" y="0px"
	 viewBox="0 0 511.978 511.978" style="enable-background:new 0 0 511.978 511.978;" xml:space="preserve">
<g>
	<g>
		<g>
			<path d="M325.859,177.546c-14.763-11.597-66.833-45.559-116.352,3.951c-1.741,1.741-3.593,3.712-5.393,5.572l4.821,1.314
				c0.998,0.145,41.83,7.629,61.636,27.426c3.328,3.336,3.328,8.738,0,12.066c-1.673,1.673-3.857,2.5-6.042,2.5
				c-2.176,0-4.361-0.828-6.033-2.5c-13.321-13.32-42.991-21.018-53.299-22.861l-14.234-3.849
				c-10.061,11.17-20.838,23.979-32.145,38.298l5.103,1.109c11.733,2.893,40.149,11.145,55.45,26.436
				c3.328,3.337,3.328,8.738,0,12.066c-1.673,1.673-3.857,2.5-6.042,2.5c-2.176,0-4.361-0.828-6.033-2.5
				c-10.01-10.01-30.959-17.869-47.232-21.879l-12.809-2.782c-9.131,12.049-18.543,25.037-28.151,38.903l5.828,1.766
				c10.923,3.396,31.002,10.897,43.238,23.125c3.328,3.337,3.328,8.738,0,12.066c-1.672,1.673-3.857,2.5-6.042,2.5
				c-2.176,0-4.361-0.828-6.033-2.5c-6.938-6.938-20.463-13.995-36.181-18.876l-10.897-3.319
				c-9.95,14.814-20.045,30.566-30.216,47.164l6.707,2.927c9.651,4.028,24.047,12.365,31.462,19.772
				c3.328,3.337,3.328,8.738,0,12.066c-1.672,1.673-3.857,2.5-6.042,2.5c-2.176,0-4.361-0.828-6.033-2.5
				c-5.393-5.393-17.843-12.706-26.095-16.145l-8.951-3.908c-23.245,38.989-46.652,82.423-69.035,129.852
				c-1.536,3.251-0.862,7.125,1.681,9.668c1.638,1.638,3.823,2.5,6.042,2.5c1.229,0,2.475-0.265,3.635-0.811
				c153.037-72.218,264.781-155.153,318.31-208.691c49.51-49.51,15.548-101.572,3.951-116.352
				C331.935,182.93,329.05,180.046,325.859,177.546z"/>
			<path d="M498.113,89.471c-1.109-1.109-2.287-2.15-3.558-3.157c7.27-17.434,3.516-38.118-10.189-51.823
				c-14.379-14.379-35.849-17.655-53.564-9.267c-2.193-4.207-4.983-8.047-8.294-11.358c-18.492-18.483-48.572-18.483-67.055,0
				c-13.065,13.065-16.947,32.41-11.042,49.212c-8.789,1.877-16.887,6.212-23.322,12.646c-18.492,18.492-18.483,48.572,0,67.055
				c6.502,6.502,14.66,10.803,23.381,12.664l30.993-30.993v-22.067c0-4.719,3.823-8.533,8.533-8.533
				c4.719,0,8.533,3.814,8.533,8.533v5.001l17.067-17.067V68.248c0-4.719,3.823-8.533,8.533-8.533c4.719,0,8.533,3.814,8.533,8.533
				v17.067h8.533c4.719,0,8.533,3.814,8.533,8.533c0,4.71-3.814,8.533-8.533,8.533h-13.525l-17.067,17.067h13.525
				c4.719,0,8.533,3.814,8.533,8.533c0,4.71-3.814,8.533-8.533,8.533h-30.592l-30.916,30.908c1.86,8.747,6.059,16.947,12.578,23.467
				c9.242,9.25,21.385,13.867,33.528,13.867c12.143,0,24.286-4.625,33.527-13.867c6.434-6.434,10.769-14.532,12.646-23.322
				c16.811,5.897,36.147,2.022,49.212-11.042C516.596,138.042,516.604,107.962,498.113,89.471z"/>
		</g>
	</g>
</g>
<g>
</g>
<g>
</g>
<g>
</g>
<g>
</g>
<g>
</g>
<g>
</g>
<g>
</g>
<g>
</g>
<g>
</g>
<g>
</g>
<g>
</g>
<g>
</g>
<g>
</g>
<g>
</g>
<g>
</g>
</svg>
