<svg height="512pt" viewBox="0 0 512 512" width="512pt" xmlns="http://www.w3.org/2000/svg"><path d="m319.929688 14.828125c-27.699219-9.40625-59.621094-3.089844-81.667969 18.953125-55.542969 55.527344-148.953125 148.949219-204.492188 204.488281-22.128906 22.128907-28.441406 54.011719-18.980469 81.691407zm0 0"/><path d="m192.058594 497.179688c27.710937 9.421874 59.621094 3.101562 81.671875-18.949219 55.539062-55.53125 148.960937-148.949219 204.488281-204.492188 22.132812-22.128906 28.441406-54 18.980469-81.6875zm0 0"/><path d="m484.082031 162.742188c18.003907-18.003907 27.917969-41.941407 27.917969-67.402344 0-56.59375-46.648438-95.339844-95.339844-95.339844-25.457031 0-49.390625 9.914062-67.398437 27.921875l-321.339844 321.335937c-18.003906 18.003907-27.921875 41.941407-27.921875 67.410157 0 52.742187 42.691406 95.332031 95.332031 95.332031 25.460938 0 49.398438-9.914062 67.410157-27.921875zm-67.421875-52.402344c-9.445312 0-17.132812 7.6875-17.132812 17.132812 0 25.988282-21.144532 47.132813-47.132813 47.132813-9.445312 0-17.132812 7.6875-17.132812 17.132812 0 25.988281-21.144531 47.132813-47.132813 47.132813-9.445312 0-17.132812 7.6875-17.132812 17.132812 0 25.988282-21.144532 47.132813-47.132813 47.132813-9.449219 0-17.132812 7.6875-17.132812 17.132812 0 25.992188-21.144531 47.132813-47.132813 47.132813-9.449218 0-17.132812 7.6875-17.132812 17.132812 0 25.992188-21.144532 47.136719-47.132813 47.136719-8.285156 0-15-6.71875-15-15 0-8.285156 6.714844-15 15-15 9.445313 0 17.132813-7.6875 17.132813-17.136719 0-25.988281 21.144531-47.132812 47.132812-47.132812 9.445313 0 17.132813-7.683594 17.132813-17.132813 0-25.988281 21.144531-47.132812 47.132812-47.132812 9.445313 0 17.132813-7.683594 17.132813-17.132813 0-25.988281 21.144531-47.132812 47.132812-47.132812 9.445313 0 17.132813-7.683594 17.132813-17.132813 0-25.988281 21.144531-47.132812 47.132812-47.132812 9.449219 0 17.132813-7.683594 17.132813-17.132813 0-25.988281 21.144531-47.132812 47.132812-47.132812 8.285156 0 15 6.714844 15 15s-6.714844 15-15 15zm0 0"/></svg>