<?xml version="1.0" standalone="no"?>
<!DOCTYPE svg PUBLIC "-//W3C//DTD SVG 1.1//EN" "http://www.w3.org/Graphics/SVG/1.1/DTD/svg11.dtd" >
<!--
2019-5-24: Created with FontForge (http://fontforge.org)
-->
<svg xmlns="http://www.w3.org/2000/svg" xmlns:xlink="http://www.w3.org/1999/xlink" version="1.1">
<metadata>
Created by FontForge 20170731 at Fri May 24 11:55:49 2019
 By root

</metadata>
<defs>
<font id="Flaticon" horiz-adv-x="512" >
  <font-face 
    font-family="Flaticon"
    font-weight="400"
    font-stretch="normal"
    units-per-em="512"
    panose-1="2 0 5 3 0 0 0 0 0 0"
    ascent="448"
    descent="-64"
    bbox="-0.00128125 -64.001 512.668 448.001"
    underline-thickness="25.6"
    underline-position="-51.2"
    unicode-range="U+0020-F11A"
  />
    <missing-glyph />
    <glyph glyph-name="space" unicode=" " horiz-adv-x="200" 
 />
    <glyph glyph-name="026-chef" unicode="&#xf119;" 
d="M361.523 126.535v-190.535h-270.074v190.52c-23.2148 4.52734 -44.4453 16.2344 -60.8516 33.7539c-19.7305 21.0781 -30.5977 48.6094 -30.5977 77.5195c0 56.7734 41.5664 104 96.5469 112.137c16.3164 57.4531 69.2656 98.0703 129.941 98.0703
c60.6719 0 113.621 -40.6172 129.938 -98.0703c54.9805 -8.13672 96.5469 -55.3633 96.5469 -112.137c0 -28.9062 -10.8672 -56.4297 -30.6055 -77.5039c-16.4023 -17.5156 -37.6367 -29.2188 -60.8438 -33.7539zM331.516 -33.9922v39.7617h-210.059v-39.7617h210.059z
M345.484 154.633c43.4492 2.99609 77.4805 39.5273 77.4805 83.1602c0 44.582 -34.8516 81.1602 -79.3438 83.2734l-11.7578 0.554688l-2.25391 11.5547c-9.59375 49.1484 -52.9648 84.8164 -103.121 84.8164c-50.1602 0 -93.5273 -35.668 -103.121 -84.8164
l-2.25781 -11.5547l-11.7578 -0.554688c-44.4922 -2.11328 -79.3438 -38.6914 -79.3438 -83.2734c0 -43.6562 34.0312 -80.1875 77.4727 -83.1758l13.9766 -0.957031v-117.883h30.0078v65.8086h30.0078v-65.8086h30.0117v65.8086h30.0039v-65.8086h30.0117v65.8086h30.0078
v-65.8086h30.0078v117.891zM345.484 154.633z" />
    <glyph glyph-name="002-cake" unicode="&#xf101;" 
d="M0 75.8301v99.1611h512v-99.1611h-512zM0 -43.7061v99.1611h512v-99.1611h-512zM283.271 346.459c-9.82129 26.749 -36.5713 53.6035 -47.9609 62.9023c-4.49219 3.65723 -4.91016 10.1357 -1.25293 14.6289c3.65625 4.49316 10.1348 4.91113 14.6279 1.25391
c1.98535 -1.67188 41.9004 -35.4219 54.8574 -74.3965c27.585 0 49.5283 -22.3613 49.5283 -49.5283s-22.3613 -49.5283 -49.5283 -49.5283s-49.5283 22.2568 -49.5283 49.5283c0 19.958 12.2256 37.4072 29.2568 45.1396zM436.036 348.862
c48.3789 -44.7217 75.9639 -97.0713 75.9639 -153.183h-512l236.878 82.8613c9.4043 -27.6904 35.7363 -47.9609 66.665 -47.9609c39.0791 0 70.3213 31.7646 70.3213 70.3213c0 8.46387 -1.67188 16.6143 -4.49316 24.3457z" />
    <glyph glyph-name="024-hot-pot" unicode="&#xf117;" 
d="M389.082 263.646c30.4424 0 55.6396 -27.2607 60.5654 -56.3076h-384.549c4.89746 29.0322 30.0938 56.3076 60.5215 56.3076h109.375c-9.86621 0 -17.9023 8.03516 -17.9023 17.9307s8.02148 17.873 17.9023 17.873h44.7266c9.86719 0 17.917 -7.97754 17.917 -17.873
s-8.03613 -17.9307 -17.917 -17.9307h109.36zM450.534 176.604h61.4658v-25.6035h-61.4512v-153.535c0 -33.9736 -27.5078 -61.4512 -61.4521 -61.4512h-263.477c-33.915 0 -61.4365 27.4775 -61.4365 61.4512v158.649h-64.1836v25.6045h64.1836h0.900391h385.45v-5.11523z
M163.328 386.461c-3.45801 4.91211 -6.49512 10.5205 -8.20996 16.8857c-1.72852 6.2334 -2.07715 13.3389 -0.464844 19.8057c3.25488 13.1064 13.2236 22.4795 24.4268 24.833c-4.31543 -10.4766 -5.76855 -19.6172 -4.46094 -26.7656
c1.25 -7.0625 4.60645 -13.0781 9.40137 -19.748c1.17676 -1.6709 2.4707 -3.35645 3.86523 -4.99902c1.39551 -1.81641 3.35645 -4.16992 4.94043 -6.49512c3.16797 -4.7373 6.13281 -9.89551 7.91992 -16.2598c0.885742 -3.19727 1.48145 -6.74219 1.20605 -10.666
c-0.24707 -3.87988 -1.83105 -8.28223 -4.66504 -11.2617c-2.8623 -2.97852 -6.29199 -4.37402 -9.41602 -4.7373c-3.13867 -0.376953 -6.08789 -0.0283203 -8.79102 1.01758c2.28125 1.75781 4.22852 3.5166 5.62402 5.33301
c1.39453 1.8457 2.10645 3.69043 1.93262 5.05664c-0.145508 1.27832 -0.770508 2.13574 -1.45312 3.24023c-0.712891 1.11914 -1.67188 2.4707 -2.83398 3.89453c-2.3252 2.83301 -5.24609 5.98633 -8.38477 9.13965l-4.95508 4.96973
c-1.99023 2.13574 -3.89355 4.40332 -5.68164 6.75684zM229.721 386.461c-3.50195 4.91211 -6.48047 10.5205 -8.22461 16.8564c-1.72949 6.2334 -2.06348 13.3389 -0.450195 19.8057c3.24023 13.1064 13.1943 22.4795 24.3828 24.833
c-4.30078 -10.4766 -5.72559 -19.6162 -4.41699 -26.7363c1.24902 -7.0625 4.62012 -13.0781 9.42969 -19.748c1.14844 -1.6709 2.4707 -3.35645 3.83691 -4.99902c1.39453 -1.81641 3.37109 -4.16992 4.92578 -6.49512c3.16797 -4.7373 6.14648 -9.89551 7.96289 -16.2598
c0.886719 -3.19727 1.46777 -6.74219 1.19141 -10.666c-0.261719 -3.87988 -1.81641 -8.28223 -4.67871 -11.2617c-2.83398 -2.97852 -6.30664 -4.37402 -9.41602 -4.7373c-3.12402 -0.376953 -6.08887 -0.0283203 -8.82031 1.01758
c2.31055 1.75781 4.27246 3.5166 5.65234 5.33301c1.39551 1.8457 2.09277 3.69043 1.90332 5.05664c-0.116211 1.27832 -0.711914 2.13574 -1.42383 3.24023c-0.726562 1.11914 -1.68555 2.4707 -2.80469 3.89453c-2.38281 2.83301 -5.28906 5.98633 -8.42773 9.13965
l-4.94043 4.96973c-1.97656 2.13574 -3.89453 4.40332 -5.68164 6.75684zM290.213 386.461c-3.50195 4.91211 -6.50977 10.5205 -8.22461 16.8857c-1.72852 6.2334 -2.0625 13.3389 -0.464844 19.8057c3.22656 13.1064 13.209 22.4795 24.3975 24.833
c-4.28613 -10.4766 -5.73926 -19.6172 -4.41699 -26.7656c1.23535 -7.0625 4.5918 -13.0781 9.38672 -19.748c1.16309 -1.6709 2.4707 -3.35645 3.86523 -4.99902c1.39551 -1.81641 3.35645 -4.16992 4.94043 -6.49512c3.18262 -4.7373 6.13281 -9.89551 7.91992 -16.2598
c0.886719 -3.19727 1.48242 -6.74219 1.19141 -10.666c-0.24707 -3.87988 -1.81641 -8.28223 -4.65039 -11.2617c-2.8623 -2.97852 -6.32031 -4.37402 -9.44434 -4.7373c-3.0957 -0.376953 -6.05957 -0.0283203 -8.79199 1.01758
c2.31055 1.75781 4.27246 3.5166 5.65332 5.33301c1.39453 1.8457 2.12109 3.69043 1.93262 5.05664c-0.174805 1.27832 -0.770508 2.13574 -1.45312 3.24023c-0.711914 1.11914 -1.67188 2.4707 -2.83398 3.89453c-2.35352 2.83301 -5.24609 5.98633 -8.38477 9.13965
l-4.95508 4.96973c-1.99023 2.13574 -3.89355 4.40332 -5.66699 6.75684z" />
    <glyph glyph-name="027-cook" unicode="&#xf11a;" 
d="M429.465 174.41v95.5586h30.9492v-95.5586c-4.89453 1.51562 -10.0898 2.33203 -15.4766 2.33203c-5.38281 0 -10.582 -0.816406 -15.4727 -2.33203zM429.465 174.41zM258.098 342.781c47.8906 -0.117188 86.8125 -39.1094 86.8125 -87.0234
c0 -37.707 -24.0703 -70.4961 -58.8125 -82.3359v-102.258c0 -8.54688 -6.92969 -15.4766 -15.4766 -15.4766h-17.582v84.3945c0 8.54688 -6.92969 15.4727 -15.4766 15.4727s-15.4727 -6.92578 -15.4727 -15.4727v-84.3945h-34.1602v84.3945
c0 8.54688 -6.92969 15.4727 -15.4766 15.4727s-15.4766 -6.92578 -15.4766 -15.4727v-84.3945h-34.1562v84.3945c0 8.54688 -6.92969 15.4727 -15.4766 15.4727s-15.4766 -6.92578 -15.4766 -15.4727v-84.3945h-17.582c-8.54688 0 -15.4766 6.92969 -15.4766 15.4766
v102.258c-34.7422 11.8398 -58.8086 44.6289 -58.8086 82.332c0 47.918 38.9219 86.9102 86.8086 87.0273c7.32031 40.625 42.9414 71.5469 85.6445 71.5469s78.3242 -30.9219 85.6445 -71.5469zM258.098 342.781zM490.016 448c12.1211 0 21.9844 -9.85938 21.9844 -21.9805
v-103.117c0 -12.1211 -9.86328 -21.9805 -21.9844 -21.9805h-90.1562c-12.1211 0 -21.9844 9.85938 -21.9844 21.9805v103.113c0 12.125 9.86328 21.9844 21.9844 21.9844h90.1562zM406.422 350.758c0 -8.54688 6.92969 -15.4766 15.4766 -15.4766
s15.4766 6.92969 15.4766 15.4766v47.4062c0 8.54688 -6.92969 15.4766 -15.4766 15.4766s-15.4766 -6.92969 -15.4766 -15.4766v-47.4062zM483.457 350.758v47.4062c0 8.54688 -6.92969 15.4766 -15.4766 15.4766s-15.4766 -6.92969 -15.4766 -15.4766v-47.4062
c0 -8.54688 6.92969 -15.4766 15.4766 -15.4766s15.4766 6.92969 15.4766 15.4766zM483.457 350.758zM423.445 124.297c0 11.8516 9.64062 21.4961 21.4922 21.4961s21.4922 -9.64453 21.4922 -21.4961v-45.7656c0 -11.8516 -9.64062 -21.4922 -21.4922 -21.4922
s-21.4922 9.64062 -21.4922 21.4922v45.7656zM423.445 124.297z" />
    <glyph glyph-name="016-carrot" unicode="&#xf10f;" 
d="M325.873 270.446c3.19141 -2.5 6.07617 -5.38379 8.57422 -8.57422c11.5977 -14.7803 45.5615 -66.8447 -3.95117 -116.357c-53.5312 -53.54 -165.28 -136.479 -318.323 -208.699c-1.16016 -0.546875 -2.40625 -0.811523 -3.63574 -0.811523
c-2.21875 0 -4.4043 0.862305 -6.04199 2.5c-2.54297 2.54297 -3.2168 6.41699 -1.68066 9.66895c22.3838 47.4307 45.792 90.8662 69.0371 129.857l8.95215 -3.9082c8.25195 -3.43945 20.7021 -10.7529 26.0957 -16.1455c1.67188 -1.67285 3.85742 -2.5 6.0332 -2.5
c2.18555 0 4.37012 0.826172 6.04199 2.5c3.32812 3.32812 3.32812 8.72949 0 12.0664c-7.41504 7.40723 -21.8115 15.7441 -31.4629 19.7725l-6.70703 2.92773c10.1709 16.5986 20.2666 32.3506 30.2168 47.166l10.8975 -3.31934
c15.7188 -4.88184 29.2441 -11.9385 36.1826 -18.877c1.67188 -1.67188 3.85742 -2.5 6.0332 -2.5c2.18555 0 4.37012 0.827148 6.04199 2.5c3.32812 3.32812 3.32812 8.72949 0 12.0664c-12.2363 12.2285 -32.3164 19.7295 -43.2393 23.126l-5.82812 1.7666
c9.6084 13.8662 19.0205 26.8545 28.1523 38.9043l12.8096 -2.78223c16.2734 -4.00977 37.2236 -11.8691 47.2334 -21.8799c1.67188 -1.67188 3.85742 -2.5 6.0332 -2.5c2.18555 0 4.36914 0.827148 6.04297 2.5c3.32812 3.32812 3.32812 8.72949 0 12.0664
c-15.3018 15.292 -43.7197 23.5439 -55.4531 26.4375l-5.10254 1.1084c11.3066 14.3203 22.085 27.1299 32.1465 38.2998l14.2344 -3.84863c10.3086 -1.84375 39.9795 -9.54199 53.3008 -22.8623c1.67188 -1.67188 3.85742 -2.5 6.0332 -2.5
c2.18555 0 4.36914 0.827148 6.04297 2.5c3.32812 3.32812 3.32812 8.73047 0 12.0664c-19.8076 19.7979 -60.6406 27.2822 -61.6387 27.4277l-4.82129 1.31348c1.7998 1.86035 3.65234 3.83105 5.39258 5.57227c49.5215 49.5127 101.594 15.5488 116.357 3.95117z
M498.135 358.525c18.4912 -18.4922 18.4834 -48.5732 -0.00195312 -67.0566c-13.0664 -13.0654 -32.4023 -16.9404 -49.2148 -11.043c-1.87695 -8.79004 -6.21191 -16.8887 -12.6465 -23.3232c-9.24121 -9.24219 -21.3848 -13.8672 -33.5283 -13.8672
s-24.2871 4.61719 -33.5293 13.8672c-6.51953 6.52051 -10.7188 14.7207 -12.5781 23.4688l30.917 30.9092h30.5928c4.71973 0 8.53418 3.82324 8.53418 8.5332c0 4.71875 -3.81445 8.5332 -8.53418 8.5332h-13.5254l17.0684 17.0674h13.5254
c4.71875 0 8.5332 3.82324 8.5332 8.53418c0 4.71875 -3.81445 8.5332 -8.5332 8.5332h-8.5332v17.0674c0 4.71973 -3.81445 8.5332 -8.53418 8.5332c-4.70996 0 -8.5332 -3.81348 -8.5332 -8.5332v-22.0703l-17.0674 -17.0674v5.00098
c0 4.71973 -3.81445 8.5332 -8.5332 8.5332c-4.70996 0 -8.5332 -3.81348 -8.5332 -8.5332v-22.0674l-30.9951 -30.9941c-8.7207 1.86035 -16.8789 6.16211 -23.3818 12.6641c-18.4834 18.4834 -18.4922 48.5654 0 67.0576c6.43555 6.43457 14.5342 10.7695 23.3232 12.6465
c-5.90527 16.8027 -2.02344 36.1484 11.043 49.2148c18.4834 18.4834 48.5645 18.4834 67.0576 0c3.31055 -3.31152 6.10059 -7.15137 8.29395 -11.3584c17.7158 8.3877 39.1865 5.11133 53.5664 -9.26758c13.7061 -13.7061 17.46 -34.3906 10.1895 -51.8252
c1.27148 -1.00781 2.44922 -2.04883 3.55859 -3.15723z" />
    <glyph glyph-name="013-waste-bin" unicode="&#xf10c;" 
d="M120.372 -29.25l-35.0391 340.716h341.334l-35.041 -340.716s-7.62598 -34.75 -46.8789 -34.75h-177.494c-39.2549 0 -46.8809 34.75 -46.8809 34.75zM324.267 260.266l-17.0654 -256c0 -9.4248 7.6416 -17.0664 17.0654 -17.0664
c9.4248 0 17.0664 7.63965 17.0664 17.0664l17.0684 256c0 9.42578 -7.6416 17.0654 -17.0684 17.0654s-17.0664 -7.63965 -17.0664 -17.0654zM238.934 260.266v-256c0 -9.4248 7.63965 -17.0664 17.0664 -17.0664s17.0664 7.63965 17.0664 17.0664v256
c0 9.42578 -7.63965 17.0654 -17.0664 17.0654c-9.4248 0 -17.0664 -7.63965 -17.0664 -17.0654zM170.667 277.333c-9.4248 0 -17.0664 -7.6416 -17.0664 -17.0674l17.0664 -255.999c0 -9.42383 7.6416 -17.0654 17.0664 -17.0654
c9.42578 0 17.0674 7.63965 17.0674 17.0654l-17.0674 256c0 9.42676 -7.63965 17.0664 -17.0664 17.0664zM416.426 379.706c15.0928 0 27.3076 -11.457 27.3076 -25.6133c0 -14.1582 -12.2148 -25.6143 -27.3076 -25.6143h-320.852
c-15.0928 0 -27.3076 11.4561 -27.3076 25.6143c0 14.1562 12.2148 25.6113 27.3076 25.6113h75.0928v34.1611c0 22.6904 10.5059 34.1348 34.1318 34.1348h102.402c25.7578 0 34.1318 -8.24219 34.1318 -34.1348v-34.1592h75.0928zM307.201 379.706h0.00195312v34.1611
h-102.4l-0.00195312 -34.1611h102.4z" />
    <glyph glyph-name="014-pizza-1" unicode="&#xf10d;" 
d="M507.605 443.605c4.01953 -4.01562 5.42188 -9.96094 3.625 -15.3516l-121.953 -365.855h-20.8281c-133.867 0 -242.051 108.348 -242.051 242.051v20.8281l365.859 121.953c5.38672 1.79688 11.332 0.394531 15.3477 -3.625zM202.34 229.594
c5.85938 5.85547 5.85938 15.3555 0 21.2148l-16.0664 16.0625c-5.85938 5.85938 -15.3555 5.85938 -21.2148 0c-5.85547 -5.85547 -5.85547 -15.3516 0 -21.2109l16.0703 -16.0664c5.85547 -5.85938 15.3555 -5.85938 21.2109 0zM241 232.164
c0 -30.418 24.75 -55.1641 55.168 -55.1641s55.1641 24.7461 55.1641 55.1641c0 30.4219 -24.7461 55.168 -55.1641 55.168s-55.168 -24.7461 -55.168 -55.168zM346.938 133.191c5.85938 5.85938 5.85938 15.3555 0 21.2148c-5.85547 5.85938 -15.3555 5.85938 -21.2109 0
l-16.0664 -16.0664c-5.85938 -5.85938 -5.85938 -15.3555 0 -21.2148c5.85938 -5.85547 15.3555 -5.85547 21.2148 0zM379.074 293.859c5.85547 5.85938 5.85547 15.3555 0 21.2148l-16.0664 16.0664c-5.85938 5.85547 -15.3555 5.85547 -21.2148 0
c-5.85547 -5.85938 -5.85547 -15.3555 0 -21.2148l16.0664 -16.0664c5.85938 -5.85938 15.3594 -5.85547 21.2148 0zM379.074 293.859zM368.449 32.3984h10.8281l-28.7148 -86.1445c-2.04297 -6.125 -7.77344 -10.2539 -14.2305 -10.2539
c-185.555 0 -336.332 150.637 -336.332 336.316c0 6.45703 4.13281 12.2031 10.2578 14.2461l86.1406 28.7148v-10.8281c0 -150.461 121.777 -272.051 272.051 -272.051zM368.449 32.3984zM296.168 257.332c13.875 0 25.1641 -11.2891 25.1641 -25.168
c0 -13.875 -11.2891 -25.1641 -25.1641 -25.1641c-13.8789 0 -25.168 11.2891 -25.168 25.1641c0 13.8789 11.2891 25.168 25.168 25.168zM296.168 257.332z" />
    <glyph glyph-name="006-soup" unicode="&#xf105;" 
d="M0 163.774v35.7354h508.758v-35.7354h-27.585c-8.98633 0 -16.7188 -5.22363 -19.54 -13.792l-34.168 -103.235c-8.56738 -24.8682 -31.6602 -41.9004 -58.0957 -41.9004h-229.98c-26.4355 0 -49.9463 16.7188 -58.0957 41.9004l-34.168 103.235
c-2.92578 8.15039 -10.5537 13.792 -19.54 13.792h-27.585zM301.138 275.578c-2.08984 5.22461 -14.2109 30.8242 -17.5537 39.915c-6.06055 19.4346 -2.82129 38.1387 8.14941 49.9453c2.08984 1.98535 10.5537 8.46387 11.8076 10.1357
c3.65723 4.0752 10.1357 4.91113 14.6289 1.25391c4.07422 -3.65723 4.91016 -10.1357 1.25391 -14.6279c-21.8389 -11.2852 -18.7041 -32.1826 -15.8828 -41.4824c1.98535 -6.58301 14.2109 -31.3467 16.6133 -37.8252c4.0752 -11.3896 9.4043 -32.4961 -2.40234 -49.9463
c-1.98535 -2.82129 -7.31445 -6.79102 -14.2109 -2.82129c-4.80664 3.23926 -6.06055 9.2998 -2.82129 14.2109c6.89648 10.1357 2.40332 25.1816 0.417969 31.2422zM230.189 275.578c-1.98535 5.22461 -14.21 30.8242 -17.5537 39.915
c-6.06055 19.4346 -2.82129 38.1387 8.14941 49.9453c2.08984 1.98535 10.5537 8.46387 11.8076 10.1357c3.65723 4.0752 10.1357 4.91113 14.6289 1.25391c4.0752 -3.65723 4.91113 -10.1357 1.25391 -14.6279c-22.0479 -10.3447 -18.7041 -32.1826 -15.8828 -41.4824
c1.98535 -6.58301 14.2109 -31.3467 16.6143 -37.8252c4.07422 -11.3896 9.40332 -32.4961 -2.40332 -49.9463c-1.98535 -2.82129 -7.31445 -6.79102 -14.2109 -2.82129c-4.80664 3.23926 -6.06055 9.2998 -2.82129 14.2109
c6.89648 10.1357 2.40332 25.1816 0.417969 31.2422zM159.346 275.578c-1.98535 5.22461 -14.21 30.8242 -17.5537 39.915c-6.06055 19.4346 -2.82129 38.1387 8.15039 49.9453c2.08887 1.98535 10.5527 8.46387 11.8066 10.1357
c3.65723 4.0752 10.1357 4.91113 14.6289 1.25391c4.0752 -3.65723 4.91113 -10.1357 1.25391 -14.6279c-20.585 -10.3447 -18.7041 -32.1826 -15.8828 -41.4824c1.98535 -6.58301 14.2109 -31.3467 16.6143 -37.8252c4.0752 -11.3896 9.40332 -32.4961 -2.40332 -49.9463
c-1.98535 -2.82129 -7.31445 -6.79102 -14.2109 -2.82129c-4.80664 3.23926 -6.06055 9.2998 -2.82129 14.2109c6.89648 10.1357 2.40332 25.1816 0.417969 31.2422zM500.607 306.82c-23.5098 -11.3887 -61.7529 -36.1533 -85.3672 -86.5166h-31.2422
c9.82129 34.8994 36.9883 103.967 103.235 123.088c8.56738 2.40332 17.4492 -1.25391 21.9424 -8.56836c6.06055 -9.7168 1.98535 -23.0918 -8.56836 -28.0029z" />
    <glyph glyph-name="022-french-fries" unicode="&#xf115;" 
d="M81.3984 400.871v-115.672h-49.2617v115.672c0 8.27734 6.71094 15 15 15h19.2617c8.28906 0 15 -6.72266 15 -15zM81.3984 400.871zM319.195 384.801v-99.6016h-49.2578v99.6016c0 8.27734 6.71094 15 15 15h19.2578c8.29297 0 15 -6.72266 15 -15zM319.195 384.801z
M175.668 96.668c13.875 0 25.168 -11.2891 25.168 -25.168s-11.293 -25.168 -25.168 -25.168c-13.8789 0 -25.168 11.2891 -25.168 25.168s11.2891 25.168 25.168 25.168zM175.668 96.668zM347.512 250.203c2.84375 -3.17969 4.20312 -7.41797 3.73047 -11.6602
l-32.1328 -289.199c-0.84375 -7.59766 -7.26562 -13.3438 -14.9102 -13.3438h-257.066c-7.64062 0 -14.0625 5.74609 -14.9062 13.3438l-32.1328 289.199c-0.472656 4.24219 0.882812 8.48047 3.73047 11.6602c2.84375 3.17969 6.91016 4.99609 11.1758 4.99609h100.668
c8.28125 0 15 -6.71484 15 -15c0 -24.8516 20.1445 -45 45 -45c24.8516 0 45 20.1484 45 45c0 8.28516 6.71484 15 15 15h100.668c4.26562 0 8.32812 -1.81641 11.1758 -4.99609zM175.668 16.332c30.418 0 55.168 24.75 55.168 55.168s-24.75 55.168 -55.168 55.168
s-55.168 -24.75 -55.168 -55.168s24.75 -55.168 55.168 -55.168zM175.668 16.332zM235.668 285.199c-24.8125 0 -45 -20.1836 -45 -45v192.801c0 8.28125 6.71875 15 15 15h19.2695c8.28125 0 15 -6.71875 15 -15v-147.801h-4.26953zM235.668 285.199zM160.668 240.199
c0 24.8164 -20.1875 45 -45 45h-4.26953v115.672c0 8.27734 6.71875 15 15 15h19.2695c8.27734 0 15 -6.72266 15 -15v-160.672zM160.668 240.199z" />
    <glyph glyph-name="020-hamburger" unicode="&#xf113;" 
d="M284.055 158.801h-250.855c-18.3359 0 -33.1992 14.8633 -33.1992 33.1992s14.8633 33.1992 33.1992 33.1992h184.453zM284.055 158.801zM143.516 32.3984c-57.2383 0 -103.145 42.707 -110.375 96.4023h445.719c-7.24219 -53.7812 -53.2227 -96.4023 -110.375 -96.4023
h-224.969zM143.516 32.3984zM336.332 448c74.0781 0 135.211 -56.4141 142.738 -128.531h-446.137c7.52734 72.1172 68.6562 128.531 142.734 128.531h160.664zM336.332 448zM380.453 225.199l-60.1875 -60.1875l-60.1875 60.1875h120.375zM380.453 225.199z
M17.1328 255.199c-9.46094 0 -17.1328 7.67188 -17.1328 17.1328c0 9.46484 7.67188 17.1367 17.1328 17.1328h477.734c9.46094 0 17.1328 -7.66797 17.1328 -17.1328c0 -9.46094 -7.67188 -17.1328 -17.1328 -17.1328h-477.734zM17.1328 255.199zM478.801 225.199
c18.3359 0 33.1992 -14.8633 33.1992 -33.1992s-14.8633 -33.1992 -33.1992 -33.1992h-122.32l66.3984 66.3984h55.9219zM478.801 225.199z" />
    <glyph glyph-name="019-guava" unicode="&#xf112;" 
d="M251.138 411.53c92.5283 16.9922 158.076 -28.8398 169.79 -139.19c-10.8926 -3.75293 -22.0918 -8.18848 -43.2598 -10.6396c-19.8057 28.0615 -44.6895 50.6064 -58.6299 78.7295c-15.6455 31.5615 -41.0762 40.3076 -61.4004 34.5
c-18.9609 -5.39551 -16.0664 -13.8369 -29.4795 -6.00977c-2.08984 1.21973 -4.43066 2.49023 -7.02051 3.63965v75.4404h30v-36.4697zM340.068 261.45c86.4004 -105.862 28.8408 -241.159 -103.931 -265.82c-131.619 24.3789 -172.577 147.89 -127.34 232.24
c18.3789 34.252 52.0371 60.3359 71.3203 99.2402c14.1475 28.5039 28.9736 18.3164 35.5498 14.3301c19.9258 -12.0459 38.4756 -1.32031 38.5801 -1.32031c6.39355 3.36035 22.5947 17.9209 37.9102 -13.0098c12.3994 -25.0537 30.7578 -44.6982 47.9102 -65.6602z
M275.298 -24.7598l12.96 -18.8301l-24.71 -17.0098l-12.4102 18.0195v-21.4199h-30v21.4199l-12.4102 -18.0195l-24.71 17.0098l12.96 18.8301c32.9854 -11.4805 40.9492 -12.9932 78.3203 0z" />
    <glyph glyph-name="008-logout" unicode="&#xf107;" 
d="M510.371 221.487c2.1543 -5.20508 2.1543 -11.0938 0 -16.2959c-1.08789 -2.62402 -2.64551 -4.99219 -4.62891 -6.95508l-63.9795 -63.9795c-4.16016 -4.18164 -9.62109 -6.25098 -15.083 -6.25098s-10.9229 2.07031 -15.083 6.25098
c-8.34082 8.32031 -8.34082 21.8242 0 30.165l27.584 27.584h-119.168c-11.7969 0 -21.333 9.55762 -21.333 21.333c0 11.7764 9.53613 21.333 21.333 21.333h119.169l-27.584 27.584c-8.34082 8.32031 -8.34082 21.8242 0 30.165c8.3418 8.32031 21.8242 8.32031 30.165 0
l63.9795 -63.9785c1.9834 -1.98438 3.54102 -4.35254 4.62891 -6.95508zM362.68 149.333c11.7969 0 21.333 -9.55664 21.333 -21.333v-128.001c0 -11.7764 -9.53613 -21.333 -21.333 -21.333h-106.667v-21.333c0 -6.40039 -2.87988 -12.4385 -7.80762 -16.4912
c-3.83984 -3.1582 -8.63965 -4.84277 -13.5254 -4.84277c-1.38574 0 -2.79395 0.12793 -4.18066 0.426758l-213.333 42.667c-9.96289 1.98438 -17.1523 10.7314 -17.1523 20.9072v426.667c0 0.425781 0.27832 0.80957 0.299805 1.2373
c0.0205078 0.619141 -0.171875 1.21582 -0.0644531 1.85547c0.255859 1.79199 1.00195 3.37109 1.68457 4.99219c0.234375 0.59668 0.298828 1.21582 0.597656 1.79199c1.4082 2.66699 3.34863 4.90723 5.67383 6.74121
c0.170898 0.12793 0.235352 0.363281 0.407227 0.492188c0.447266 0.34082 1.02344 0.361328 1.49316 0.661133c1.89746 1.19336 3.9248 2.06836 6.16406 2.64453c0.960938 0.235352 1.87793 0.405273 2.88086 0.511719
c0.746094 0.0849609 1.42871 0.405273 2.19629 0.405273h341.333c11.7969 0 21.333 -9.55664 21.333 -21.334v-128c0 -11.7764 -9.53613 -21.333 -21.333 -21.333s-21.333 9.55664 -21.333 21.333v106.667h-174.635l74.0908 -22.2295
c9.02441 -2.70898 15.2109 -11.0283 15.2109 -20.4365v-341.334h85.333v106.667c0 11.7764 9.53613 21.333 21.333 21.333z" />
    <glyph glyph-name="021-hot-dog" unicode="&#xf114;" 
d="M319.93 433.172l-305.141 -305.133c-9.46094 27.6797 -3.14844 59.5625 18.9805 81.6914c55.5391 55.5391 148.949 148.961 204.492 204.488c22.0469 22.043 53.9688 28.3594 81.668 18.9531zM319.93 433.172zM192.059 -49.1797l305.141 305.129
c9.46094 -27.6875 3.15234 -59.5586 -18.9805 -81.6875c-55.5273 -55.543 -148.949 -148.961 -204.488 -204.492c-22.0508 -22.0508 -53.9609 -28.3711 -81.6719 -18.9492zM192.059 -49.1797zM484.082 285.258l-321.34 -321.336
c-18.0117 -18.0078 -41.9492 -27.9219 -67.4102 -27.9219c-52.6406 0 -95.332 42.5898 -95.332 95.332c0 25.4688 9.91797 49.4062 27.9219 67.4102l321.34 321.336c18.0078 18.0078 41.9414 27.9219 67.3984 27.9219c48.6914 0 95.3398 -38.7461 95.3398 -95.3398
c0 -25.4609 -9.91406 -49.3984 -27.918 -67.4023zM416.66 337.66c8.28516 0 15 6.71484 15 15s-6.71484 15 -15 15c-25.9883 0 -47.1328 -21.1445 -47.1328 -47.1328c0 -9.44922 -7.68359 -17.1328 -17.1328 -17.1328c-25.9883 0 -47.1328 -21.1445 -47.1328 -47.1328
c0 -9.44922 -7.6875 -17.1328 -17.1328 -17.1328c-25.9883 0 -47.1328 -21.1445 -47.1328 -47.1328c0 -9.44922 -7.6875 -17.1328 -17.1328 -17.1328c-25.9883 0 -47.1328 -21.1445 -47.1328 -47.1328c0 -9.44922 -7.6875 -17.1328 -17.1328 -17.1328
c-25.9883 0 -47.1328 -21.1445 -47.1328 -47.1328c0 -9.44922 -7.6875 -17.1367 -17.1328 -17.1367c-8.28516 0 -15 -6.71484 -15 -15c0 -8.28125 6.71484 -15 15 -15c25.9883 0 47.1328 21.1445 47.1328 47.1367c0 9.44531 7.68359 17.1328 17.1328 17.1328
c25.9883 0 47.1328 21.1406 47.1328 47.1328c0 9.44531 7.68359 17.1328 17.1328 17.1328c25.9883 0 47.1328 21.1445 47.1328 47.1328c0 9.44531 7.6875 17.1328 17.1328 17.1328c25.9883 0 47.1328 21.1445 47.1328 47.1328c0 9.44531 7.6875 17.1328 17.1328 17.1328
c25.9883 0 47.1328 21.1445 47.1328 47.1328c0 9.44531 7.6875 17.1328 17.1328 17.1328zM416.66 337.66z" />
    <glyph glyph-name="010-settings-work-tool" unicode="&#xf109;" 
d="M510.391 220.426c2.16797 -19.3896 2.14062 -38.9688 -0.114258 -58.2188c-0.889648 -7.49316 -7.64355 -13.1465 -14.9834 -12.5508l-3.16602 0.0820312c-22.6299 0 -43.6689 -13.9404 -52.3711 -34.7031c-9.25586 -22.0566 -3.47461 -47.7285 14.3438 -63.8643
c5.58691 -5.05566 6.25391 -13.5898 1.5293 -19.4561c-12.1748 -15.1631 -26.1006 -28.9365 -41.415 -40.9463c-5.89551 -4.55469 -14.2588 -3.88965 -19.3203 1.61621c-15.2305 16.7314 -42.333 23.0293 -63.4004 14.4248
c-21.7939 -8.92383 -35.8848 -30.8672 -35.0264 -54.5918c0.25 -7.44922 -5.25 -13.8418 -12.6738 -14.6611c-9.36719 -1.04199 -18.7354 -1.55664 -28.1025 -1.55664c-9.86816 0 -19.709 0.569336 -29.4912 1.71094c-7.47754 0.860352 -13.0078 7.41992 -12.5635 14.9541
c1.36035 23.9883 -12.5391 46.3203 -34.6357 55.5635c-21.0957 8.85449 -48.5029 2.58496 -63.8193 -14.3564c-5.08398 -5.60254 -13.6191 -6.26953 -19.4844 -1.54297c-14.9541 12.0361 -28.6035 25.8223 -40.499 40.9727
c-4.61523 5.85059 -3.91992 14.2598 1.55664 19.291c17.5107 16.0508 23.2637 41.4834 14.3145 63.3027c-8.97852 21.8486 -30.3809 35.6504 -52.6738 35.0811c-7.33594 0 -15.9824 5.36035 -16.7871 12.5879c-2.16797 19.3896 -2.14062 38.9863 0.111328 58.2197
c0.887695 7.37988 6.66895 12.8281 14.7861 12.5674c25.0146 0 46.8652 13.5615 55.7021 34.6045c9.25684 22.0713 3.50391 47.7393 -14.3135 63.875c-5.55957 5.05762 -6.25488 13.5781 -1.52832 19.457c12.1182 15.1221 26.0723 28.9072 41.415 40.9443
c5.86328 4.57031 14.2861 3.89258 19.3184 -1.625c15.2295 -16.748 42.4463 -22.9756 63.3721 -14.4277c21.8223 8.9375 35.8887 30.8818 35.0547 54.6201c-0.25 7.43555 5.25391 13.8281 12.6758 14.6475c19.1797 2.12793 38.4697 2.05957 57.5918 -0.152344
c7.50781 -0.874023 13.0117 -7.42188 12.5645 -14.9521c-1.36035 -23.9746 12.5381 -46.3086 34.5791 -55.5811c21.1797 -8.83691 48.5889 -2.55664 63.8486 14.3428c5.05957 5.60254 13.6211 6.25488 19.4561 1.57227c14.9004 -11.9375 28.5479 -25.71 40.5557 -40.958
c4.61523 -5.85059 3.94727 -14.2725 -1.55664 -19.3037c-17.4844 -16.0381 -23.2354 -41.4854 -14.3164 -63.3047c8.73047 -21.3037 29.5488 -35.0791 53.0088 -35.0791c7.25684 0 15.6484 -5.4082 16.458 -12.6055zM256.405 106.067
c47.0859 0 85.3877 38.3027 85.3877 85.3906c0 47.0859 -38.3018 85.3906 -85.3877 85.3906c-47.0889 0 -85.3906 -38.3047 -85.3906 -85.3906c0 -47.0879 38.3018 -85.3906 85.3906 -85.3906z" />
    <glyph glyph-name="011-food" unicode="&#xf10a;" 
d="M428.8 179.341c5.43848 -6.21875 12.4023 -10.7607 20.0889 -13.2617v-89.8809v-3.09961c-37.8828 -57.29 -102.868 -95.1621 -176.542 -95.1621c-70.1113 0 -132.352 34.2988 -170.856 86.9883v2.8916v167.805c23.5166 14.959 38.3789 41.1387 38.3789 69.8135v1.7041
v42.9297v1.9375v2.18848c36.2783 29.2324 82.3672 46.7607 132.478 46.7607c64.2305 0 121.856 -28.7861 160.679 -74.126l-0.306641 -2.27832l-13.6348 -101.354c-15.3633 66.8184 -75.3223 116.803 -146.737 116.803c-83.0156 0 -150.555 -67.5391 -150.555 -150.555
s67.5391 -150.556 150.555 -150.556c82.5205 0 149.738 66.7412 150.536 149.076c1.62402 -3.06348 3.59375 -5.96484 5.91699 -8.62402zM272.347 314.412c68.9072 0 124.97 -56.0605 124.97 -124.97s-56.0605 -124.97 -124.97 -124.97s-124.97 56.0605 -124.97 124.97
s56.0625 124.97 124.97 124.97zM511.431 423.308l0.567383 -463.569c0 -10.3623 -8.40039 -18.7627 -18.7627 -18.7627s-18.7627 8.40039 -18.7627 18.7627v229.704h-11.5684c-5.68848 0 -11.0977 2.4541 -14.8418 6.73535
c-3.74219 4.28223 -5.45605 9.9707 -4.69727 15.6074l28.8096 214.151c1.31543 9.78613 9.66602 17.0879 19.5391 17.0879c10.8896 0 19.7168 -8.82715 19.7168 -19.7168zM114.283 419.145v-115.419c0 -24.9365 -16.0625 -46.1787 -38.3789 -53.9619v-290.025
c0 -10.3623 -8.40039 -18.7627 -18.7627 -18.7627s-18.7627 8.40039 -18.7627 18.7627v290.025c-22.3164 7.7832 -38.3789 29.0254 -38.3789 53.9619v115.419c0 7.06641 5.72656 12.793 12.793 12.793s12.793 -5.72656 12.793 -12.793v-70.7861h18.7627v70.7861
c0 7.06641 5.72656 12.793 12.793 12.793s12.793 -5.72656 12.793 -12.793v-70.7861h18.7627v70.7861c0 7.06641 5.72656 12.793 12.793 12.793s12.793 -5.72656 12.793 -12.793z" />
    <glyph glyph-name="018-writing" unicode="&#xf111;" 
d="M352.459 228c0 -11.0459 -8.9541 -20 -20 -20h-206c-11.0459 0 -20 8.9541 -20 20s8.9541 20 20 20h206c11.0459 0 20 -8.9541 20 -20zM126.459 168h125.111c11.0459 0 20 -8.9541 20 -20s-8.9541 -20 -20 -20h-125.111c-11.0459 0 -20 8.9541 -20 20s8.9541 20 20 20z
M173.459 -24c11.0459 0 20 -8.9541 20 -20s-8.9541 -20 -20 -20h-66.8887c-44.1123 0 -80 35.8877 -80 80v352c0 44.1123 35.8877 80 80 80h245.889c44.1123 0 80 -35.8877 80 -80v-123c0 -11.0459 -8.9541 -20 -20 -20s-20 8.9541 -20 20v123c0 22.0557 -17.9443 40 -40 40
h-245.889c-22.0566 0 -40 -17.9443 -40 -40v-352c0 -22.0557 17.9434 -40 40 -40h66.8887zM467.884 158.428c23.3955 -23.3955 23.3955 -61.46 0.000976562 -84.8535l-109.573 -109.367c-2.43945 -2.43555 -5.46777 -4.19922 -8.78906 -5.11914l-80.7256 -22.3613
c-1.7627 -0.488281 -3.55859 -0.726562 -5.33789 -0.726562c-5.31738 0 -10.501 2.12305 -14.3174 6.03418c-5.09375 5.2207 -6.94043 12.7998 -4.82031 19.7803l23.9131 78.7246c0.958008 3.15234 2.67773 6.01758 5.00977 8.34473l109.803 109.561
c23.3789 23.3789 61.4434 23.3779 84.8369 -0.0166016zM333.776 -3.76758l73.6514 73.5137l-28.29 28.29l-74.0889 -73.9248l-11.8848 -39.1289zM439.615 101.87c7.78418 7.78613 7.78418 20.4736 -0.0146484 28.2715c-7.79785 7.79883 -20.4854 7.79883 -28.2832 0
l-3.8623 -3.85352l28.2852 -28.2852zM332.459 328c11.0459 0 20 -8.9541 20 -20s-8.9541 -20 -20 -20h-206c-11.0459 0 -20 8.9541 -20 20s8.9541 20 20 20h206z" />
    <glyph glyph-name="005-restaurant" unicode="&#xf104;" 
d="M50.4287 344.358v-213.322h-50.4023c0 27.6064 -2.82324 213.322 50.4023 213.322zM435.664 283.395c0 33.6699 17.0879 60.9639 38.168 60.9639c21.0791 0 38.168 -27.2939 38.168 -60.9639s-17.0889 -60.9639 -38.168 -60.9639
c-21.0801 0 -38.168 27.2939 -38.168 60.9639zM256.013 359.417c92.6494 0 167.417 -74.7676 167.417 -167.416c0 -92.2314 -74.7676 -167.417 -167.417 -167.417c-92.2305 0 -167.416 74.7676 -167.416 167.417c0 92.2305 74.7676 167.416 167.416 167.416z
M256.013 84.2939c59.6055 0 107.707 48.415 107.707 107.707c0 59.6045 -48.1016 107.706 -107.707 107.706c-59.6045 0 -107.706 -48.415 -107.706 -107.706c0 -59.6055 48.415 -107.707 107.706 -107.707zM256.013 279.003c48.1025 0 87.0029 -38.9004 87.0029 -87.002
c0 -47.998 -38.9004 -87.0029 -87.0029 -87.0029c-47.9971 0 -87.002 38.9004 -87.002 87.0029c0 47.9971 38.9004 87.002 87.002 87.002zM19.1621 110.331h32.626l1.9873 -51.5527c0.417969 -10.248 -7.73828 -19.1357 -18.2998 -19.1357
s-18.7188 8.57422 -18.2998 19.1357zM461.598 203.398c3.65918 -2.19531 19.8682 -2.19531 24.4688 0l6.06543 -144.62c0.417969 -10.248 -7.73828 -19.1357 -18.2998 -19.1357s-18.7178 8.57422 -18.2998 19.1357z" />
    <glyph glyph-name="007-cherries" unicode="&#xf106;" 
d="M453.203 91.9014c0 -58.1367 -39.5244 -106.967 -94.001 -120.978l4.49609 -21.54c1.25488 -5.33301 -2.40527 -10.5605 -7.7373 -11.8154c-5.75098 -0.836914 -10.9795 3.24121 -11.8154 8.15625l-3.66016 17.4609l-0.417969 -17.4609
c0 -5.22852 -4.80957 -9.72461 -10.1426 -9.72461v0c-5.22754 0 -9.72363 4.49609 -9.72363 10.1426l0.417969 17.043l-7.31934 -15.8926c-1.67285 -3.66016 -6.58789 -7.42383 -13.0703 -4.91504c-4.91406 2.40527 -7.31934 8.46973 -4.91406 13.3838l6.48242 14.2207
c-56.1494 11.8154 -98.4971 62.3184 -98.4971 122.128c0 67.1289 52.9082 122.128 120.455 124.951c-10.5605 34.6094 -11.3975 83.8584 -2.82324 146.49c-3.65918 16.625 -2.50977 33.7734 2.40527 50.8174c-77.6895 -54.4766 -105.398 -170.54 -109.058 -187.584
c11.8154 -2.82324 23.2119 -7.7373 33.7734 -13.8018c-39.1064 -26.4541 -64.7236 -70.7881 -64.7236 -120.873c0 -40.6748 17.043 -77.2705 43.915 -103.725c-13.8018 -4.81055 -47.3662 -13.3848 -62.2139 -6.4834l-0.835938 -16.7295
c-0.314453 -5.33301 -5.22852 -9.62012 -10.5605 -9.41113c-5.33301 0.418945 -9.8291 4.91504 -9.41113 10.5615l0.836914 18.2979l-7.31934 -16.3115c-1.9873 -3.66016 -7.42383 -7.52832 -13.3838 -4.91406c-4.91504 2.4043 -7.31934 8.46875 -4.91504 13.3838
l5.33301 11.8154l-9.41016 -9.72461c-1.9873 -2.09082 -7.94727 -5.95996 -14.2207 -0.417969c-4.07812 3.65918 -4.49609 10.1426 -0.417969 14.2197l10.5605 10.9795c-31.7871 22.7939 -52.4902 59.8096 -52.4902 101.738c0 68.8018 61.2734 132.271 135.198 124.532
c3.65918 18.2988 37.4326 168.031 146.595 217.279c3.66016 1.56836 7.73828 0.731445 10.5615 -1.67285c2.82227 -2.40527 4.28613 -7.21484 2.82227 -10.9795c56.8818 -23.6309 76.8535 -83.8584 43.498 -138.335c-27.6045 8.88867 -47.9941 26.0361 -58.9727 47.1582
c-9.30566 -56.5684 2.71875 -119.724 6.06445 -127.356c61.0645 -8.15527 108.64 -60.6455 108.64 -124.114z" />
    <glyph glyph-name="015-pizza-2" unicode="&#xf10e;" 
d="M437.02 373.02c48.3516 -48.3516 74.9805 -112.641 74.9805 -181.02c0 -45.7344 -12.2109 -90.6211 -35.3086 -129.812c-22.418 -38.0273 -54.4609 -69.8125 -92.6719 -91.918c-38.7422 -22.418 -83.0117 -34.2695 -128.02 -34.2695
c-68.3789 0 -132.668 26.6289 -181.02 74.9805s-74.9805 112.641 -74.9805 181.02c0 8.36719 6.78125 15.1484 15.1484 15.1484h214.613l-77.0234 133.414c-0.0195312 0.0351562 -0.0351562 0.0664062 -0.0507812 0.101562l-30.2422 52.3789
c-4.17969 7.24219 -1.70312 16.5 5.53125 20.6836c38.7461 22.4219 83.0156 34.2734 128.023 34.2734c68.3789 0 132.668 -26.6289 181.02 -74.9805zM481.184 207.148c-4.77344 71.6875 -43.1562 134.32 -99.5039 172.238l-15.1875 -26.3086
c47.3359 -32.5664 79.6719 -85.4297 84.332 -145.93h30.3594zM186.898 341.996l69.1016 -119.699l69.082 119.648c-21.0312 9.72656 -44.4297 15.168 -69.082 15.168c-23.9414 0 -47.5547 -5.19531 -69.1016 -15.1172zM282.238 176.852l69.0586 -119.613
c38.3359 27.1875 64.6094 70.3008 69.1133 119.613h-138.172zM325.082 42.0547l-69.082 119.648l-69.082 -119.648c21.0312 -9.72656 44.4297 -15.168 69.082 -15.168s48.0508 5.44141 69.082 15.168zM282.238 207.148h138.172
c-4.50781 49.3125 -30.7773 92.4258 -69.1133 119.613zM256 417.703c-34.6016 0 -68.6992 -7.93359 -99.4922 -23.0625l15.1992 -26.3359c26.1914 12.5195 55.0312 19.1055 84.293 19.1055c30.1641 0 58.75 -6.875 84.2812 -19.1328l15.1797 26.293
c-30.0234 14.8008 -63.7852 23.1328 -99.4609 23.1328zM229.762 176.852h-138.184c4.50391 -49.3125 30.7969 -92.418 69.1289 -119.609zM30.7969 176.852c4.77344 -71.6875 43.1719 -134.324 99.5234 -172.238l15.1875 26.3086
c-47.3359 32.5664 -79.6719 85.4297 -84.332 145.93h-30.3789zM156.535 -10.5781c30.0234 -14.8008 63.7891 -23.125 99.4648 -23.125c34.6016 0 68.6992 7.94141 99.4961 23.0664l-14.1328 24.4883l-1.08203 1.87109
c-25.5312 -12.2578 -54.1172 -19.1328 -84.2812 -19.1328s-58.75 6.875 -84.2812 19.1328zM381.719 4.53516c57.8516 38.9023 94.7578 102.84 99.4688 172.316h-30.3633c-4.66016 -60.5 -37 -113.363 -84.3359 -145.93l1.11328 -1.92188zM381.719 4.53516zM249.047 322.02
c0.367188 -8.17969 -7.22266 -15.1484 -15.1484 -15.1484c-8.48828 0 -14.7773 6.94141 -15.1445 15.1484c-0.367188 8.17969 7.22266 15.1484 15.1445 15.1484c8.49219 0 14.7812 -6.94141 15.1484 -15.1484zM249.047 322.02zM278.102 337.168
c8.49219 0 14.7812 -6.94141 15.1445 -15.1484c0.367188 -8.17969 -7.22266 -15.1484 -15.1445 -15.1484c-8.49219 0 -14.7812 6.94141 -15.1484 15.1484c-0.367188 8.17969 7.22266 15.1484 15.1484 15.1484zM278.102 337.168zM256 296.465
c8.49219 0 14.7812 -6.9375 15.1484 -15.1484c0.367188 -8.17969 -7.22656 -15.1445 -15.1484 -15.1445c-8.49219 0 -14.7812 6.9375 -15.1484 15.1445c-0.367188 8.18359 7.22656 15.1484 15.1484 15.1484zM256 296.465zM139.301 107.852
c-0.363281 8.17969 7.22656 15.1484 15.1484 15.1484c8.49219 0 14.7812 -6.94141 15.1484 -15.1484c0.367188 -8.17969 -7.22266 -15.1484 -15.1484 -15.1484c-8.49219 0 -14.7773 6.94141 -15.1484 15.1484zM139.301 107.852zM147.496 146.129
c0.367188 -8.17969 -7.22266 -15.1484 -15.1484 -15.1484c-8.48828 0 -14.7773 6.94141 -15.1445 15.1484c-0.367188 8.18359 7.22266 15.1484 15.1445 15.1484c8.49219 0 14.7812 -6.94141 15.1484 -15.1484zM147.496 146.129zM178.648 132.191
c-8.49219 0 -14.7812 6.94141 -15.1484 15.1484c-0.367188 8.18359 7.22656 15.1484 15.1484 15.1484c8.49219 0 14.7812 -6.94141 15.1484 -15.1484c0.367188 -8.17969 -7.22656 -15.1484 -15.1484 -15.1484zM178.648 132.191zM262.953 61.9805
c-0.367188 8.17969 7.22266 15.1484 15.1484 15.1484c8.48828 0 14.7773 -6.94141 15.1445 -15.1484c0.367188 -8.17969 -7.22266 -15.1484 -15.1445 -15.1484c-8.49219 0 -14.7812 6.94141 -15.1484 15.1484zM262.953 61.9805zM233.898 46.832
c-8.49219 0 -14.7773 6.94141 -15.1445 15.1484c-0.367188 8.17969 7.22266 15.1484 15.1445 15.1484c8.49219 0 14.7812 -6.94141 15.1484 -15.1484c0.367188 -8.17969 -7.22266 -15.1484 -15.1484 -15.1484zM233.898 46.832zM256 87.5352
c-8.49219 0 -14.7812 6.9375 -15.1484 15.1484c-0.367188 8.17969 7.22656 15.1445 15.1484 15.1445c8.49219 0 14.7812 -6.9375 15.1484 -15.1445c0.367188 -8.18359 -7.22656 -15.1484 -15.1484 -15.1484zM256 87.5352zM379.652 130.98
c-8.49219 0 -14.7812 6.94141 -15.1484 15.1484c-0.367188 8.18359 7.22266 15.1484 15.1484 15.1484c8.48828 0 14.7773 -6.94141 15.1445 -15.1484c0.367188 -8.17969 -7.22266 -15.1484 -15.1445 -15.1484zM379.652 130.98zM357.551 123
c8.49219 0 14.7773 -6.94141 15.1484 -15.1484c0.363281 -8.17969 -7.22656 -15.1484 -15.1484 -15.1484c-8.49219 0 -14.7812 6.94141 -15.1484 15.1484c-0.367188 8.17969 7.22266 15.1484 15.1484 15.1484zM357.551 123zM348.5 147.34
c0.367188 -8.17969 -7.22656 -15.1484 -15.1484 -15.1484c-8.49219 0 -14.7812 6.94141 -15.1484 15.1484c-0.367188 8.18359 7.22656 15.1484 15.1484 15.1484c8.49219 0 14.7812 -6.94141 15.1484 -15.1484zM348.5 147.34zM357.551 291.297
c8.49219 0 14.7773 -6.94141 15.1484 -15.1484c0.363281 -8.17969 -7.22656 -15.1484 -15.1484 -15.1484c-8.49219 0 -14.7812 6.94141 -15.1484 15.1484c-0.367188 8.17969 7.22266 15.1484 15.1484 15.1484zM357.551 291.297zM364.504 237.871
c-0.367188 8.17969 7.22266 15.1484 15.1484 15.1484c8.48828 0 14.7773 -6.94141 15.1445 -15.1484c0.367188 -8.18359 -7.22266 -15.1484 -15.1445 -15.1484c-8.49219 0 -14.7812 6.94141 -15.1484 15.1484zM364.504 237.871zM333.352 251.809
c8.49219 0 14.7812 -6.94141 15.1484 -15.1484c0.367188 -8.18359 -7.22656 -15.1484 -15.1484 -15.1484c-8.49219 0 -14.7812 6.94141 -15.1484 15.1484c-0.367188 8.17969 7.22656 15.1484 15.1484 15.1484zM333.352 251.809z" />
    <glyph glyph-name="001-rice" unicode="&#xf100;" 
d="M0 227.113v0h512c0 -110.46 -70.2646 -204.633 -168.509 -240.339v-41.4492h-174.982v41.4492c-98.2441 35.7061 -168.509 129.879 -168.509 240.339zM477.442 274.2c13.0498 -4.38574 24.0127 -14.1992 29.6504 -27.1455h-498.949
c6.47266 14.6162 19.8369 25.5791 36.124 28.3984c-6.05566 5.6377 -2.08789 69.0107 56.0654 62.5381c-1.98438 22.1338 11.2754 41.7617 28.293 49.6963c6.47363 3.02734 28.3984 10.8584 51.6807 -5.84668c-3.6543 32.4697 22.3428 57.9443 49.4883 56.7959
c17.8525 -0.730469 34.0352 -9.70898 42.5967 -24.3262c8.56152 7.72656 20.2549 12.6328 32.8877 12.6328c22.7598 0 41.8662 -15.4512 48.0254 -36.2285c7.30859 4.07227 15.3477 6.05566 23.9092 6.05566c27.5625 0 52.7246 -24.4307 49.4873 -54.3945
c30.9043 3.6543 54.3955 -21.9248 54.3955 -49.4873c0 -6.47363 -1.25293 -13.0508 -3.6543 -18.6885z" />
    <glyph glyph-name="025-crossed-knife-and-fork" unicode="&#xf118;" 
d="M381.631 7.60449c8.9375 -13.6865 8.61816 -31.5537 -0.834961 -46.6221c-9.31543 -14.8467 -25.3428 -23.1514 -40.8398 -21.1582c-8.09766 1.03906 -20.0703 5.38184 -31.1416 20.1387c-17.4092 23.2178 -39.1992 68.083 -60.2676 111.469
c-15.6592 32.2412 -31.7871 65.4502 -44.8516 86.8564c-2.18848 -1.34473 -3.93652 -2.38965 -5.57422 -3.36621c-4.66797 -2.78711 -8.69922 -5.19141 -20.7842 -13.4385c-4.4375 -3.03223 -9.57227 -4.27051 -14.8496 -3.59082
c-10.8066 1.39062 -29.6709 -1.01953 -59.1426 72.0449c-14.4834 35.916 -56.9873 160.921 -62.4326 183.344c-9.09082 37.4248 -6.4873 43.6699 -2.14551 47.9492c2.49902 2.46484 9.17676 4.58398 14.7803 -2.17676c40.3711 -48.6729 309.687 -403.259 328.084 -431.449z
M364.337 -28.6826c4.20996 6.71191 6.68848 16.9805 1.01953 25.6592c-17.873 27.3867 -249.324 333.52 -297.947 396.074c-4.49805 5.78809 -10.6143 15.9346 -4.87207 -2.46777c14.8008 -47.4541 65.9688 -191.933 84.0957 -216.526
c11.25 -15.2705 11.6729 -20.335 18.3389 -16.8857c0.498047 -0.0605469 0.834961 -0.0224609 1.41113 0.37207c12.5781 8.58301 28.498 18.0771 35.0234 22.29c2.00391 1.2959 4.31055 1.75879 6.50781 1.47656c2.67188 -0.345703 5.18555 -1.79102 6.8125 -4.19531
c14.5908 -21.5762 32.4258 -58.3037 51.3096 -97.1855c20.6719 -42.5645 42.0439 -86.5752 58.3359 -108.295c5.53418 -7.38281 11.7861 -11.7168 18.0693 -12.5234c8.00488 -1.03027 16.5996 3.76074 21.8955 12.207zM509.259 345.326
c3.73438 -3.85352 3.64258 -10.0068 -0.209961 -13.75c-24.6543 -23.917 -47.7051 -47.3018 -66.2285 -66.0869c-12.0908 -12.2637 -21.6367 -21.9502 -28.3809 -28.4902c-10.5586 -10.2451 -26.7295 -15.1807 -44.3779 -13.5391
c-1.75977 0.161133 -3.51953 0.385742 -5.25879 0.679688c-13.5215 2.24609 -26.3926 8.24414 -37.2803 17.3086l-55.2949 -54.4629c-2.30371 -2.23438 -5.42773 -3.10156 -8.36816 -2.61133c-1.97559 0.328125 -3.87305 1.26953 -5.37598 2.81836
c-3.7373 3.84766 -3.64551 10.001 0.207031 13.7383l55.2549 54.4229c-27.0527 32.6299 -28.9707 68.0107 -4.14062 92.1006l97.1543 94.2686c3.84961 3.7373 10 3.64844 13.7383 -0.207031c3.74023 -3.84766 3.64844 -10.001 -0.205078 -13.7383l-84.418 -81.916
l16.8076 -16.8223l78.1182 75.7969c3.84668 3.73828 10.0029 3.64551 13.7412 -0.207031c3.7373 -3.84668 3.64453 -10 -0.208008 -13.7412l-77.9131 -75.5977l17.2539 -17.2686l77.6572 75.3477c3.85254 3.74023 10.0029 3.64551 13.7412 -0.204102
c3.7373 -3.85059 3.64746 -10.0068 -0.205078 -13.7441l-77.4492 -75.1494l18.3281 -18.3418c3.93848 3.97656 8.29004 8.3877 13.0381 13.208c18.5898 18.8584 41.7266 42.3262 66.5332 66.3926c3.84766 3.74023 10.001 3.64844 13.7412 -0.204102zM400.903 250.95
c0.415039 0.40332 0.84082 0.821289 1.27832 1.24707l-80.0264 80.0928c-20.5859 -21.5352 -7.05762 -50.8115 12.8105 -71.29c10.1416 -10.4531 23.252 -16.9141 36.8916 -18.1816c11.8066 -1.09961 22.6621 1.94434 29.0459 8.13184zM214.778 112.392
c4.01172 -3.55859 4.37402 -9.70605 0.80957 -13.709c-28.3457 -31.8955 -107.981 -120.063 -135.653 -144.605c-11.0518 -9.80469 -24.7432 -12.5107 -37.5977 -10.377c-11.5518 1.91699 -22.4277 7.75098 -30.1074 15.8574
c-13.5918 14.3506 -20.5312 40.1367 4.6416 65.583c34.5654 34.9336 84.9189 74.4893 122.819 103.071c4.28711 3.23047 10.3799 2.37891 13.6113 -1.90918c3.23047 -4.28711 2.375 -10.3809 -1.90918 -13.6113c-37.4189 -28.2188 -87.0303 -67.1904 -120.706 -101.223
c-13.2627 -13.4131 -14.8467 -27.459 -4.34473 -38.5508c10.041 -10.6084 28.792 -14.8672 40.6953 -4.30762c23.9463 21.2393 94.9141 98.9707 134.021 142.973c3.56543 4.01367 9.70703 4.37695 13.7207 0.808594z" />
    <glyph glyph-name="009-gingerbread" unicode="&#xf108;" 
d="M449.141 225.217l-51.3076 102.606l4.93164 3.40527l1.5 0.40332c4.9668 1.35645 10.0869 2.03906 15.2158 2.03906c26.3281 0 49.5293 -17.7129 56.4189 -43.0791c4.07812 -14.9922 2.03027 -30.7207 -5.73926 -44.293
c-5.11133 -8.9375 -12.4326 -15.998 -21.0195 -21.082zM128.61 323.683l53.6074 -34.0166c-5.6582 7.79688 -13.9492 20.9746 -13.9492 41.5625c0 50.1309 9.98828 116.771 96.3184 116.771c30.3164 0 64.7373 -10.6533 81.624 -52.5029l4.63477 -13.8867
c3.70117 -13.7783 5.89258 -30.1182 5.89258 -49.7803c0 -20.7949 -4.6709 -31.96 -10.2939 -39.5137l36.4512 25.1777l49.834 -99.6602l-37.8877 -17.4082c-17.5244 -11.1836 -44.1484 -35.8135 -31.0078 -77.2402l24.5498 -42.8467l-105.319 -63.1914l-12.9258 18.2969
c-3.5127 5.00391 -11.6055 5.00391 -15.1357 0l-6.62012 -9.37695l-109.766 57.4961l22.6992 39.6221c13.3291 42.002 -14.0127 66.7031 -32.0225 77.8867l-44.9033 19.4385zM262.584 88.7021c17.3359 0 31.4385 14.1025 31.4385 31.4385s-14.1025 31.4385 -31.4385 31.4385
s-31.4385 -14.1025 -31.4385 -31.4385s14.1025 -31.4385 31.4385 -31.4385zM262.584 169.544c17.3359 0 31.4385 14.1025 31.4385 31.4385s-14.1025 31.4385 -31.4385 31.4385s-31.4385 -14.1025 -31.4385 -31.4385s14.1025 -31.4385 31.4385 -31.4385zM294.022 394.105
c-9.92578 0 -17.9648 -8.04883 -17.9648 -17.9648c0 -9.91699 8.03906 -17.9648 17.9648 -17.9648s17.9648 8.04785 17.9648 17.9648c0 9.91602 -8.03906 17.9648 -17.9648 17.9648zM231.146 394.105c-9.92578 0 -17.9648 -8.04883 -17.9648 -17.9648
c0 -9.91699 8.03906 -17.9648 17.9648 -17.9648s17.9648 8.04785 17.9648 17.9648c0 9.91602 -8.03906 17.9648 -17.9648 17.9648zM222.163 340.211c-4.96777 0 -8.98242 -4.01562 -8.98242 -8.98242c0 -23.2021 25.501 -39.0566 49.4033 -39.2988
c23.3721 0 49.4033 16.1416 49.4033 39.2988c0 4.9668 -4.01465 8.98242 -8.98242 8.98242c-4.9668 0 -8.98242 -4.01562 -8.98242 -8.98242c0 -10.7617 -15.5664 -21.334 -31.3398 -21.334c-16.2129 0.170898 -31.5371 10.5371 -31.5371 21.334
c0 4.9668 -4.01465 8.98242 -8.98242 8.98242zM237.937 11.2734l-8.5332 -12.0908l-107.116 55.8799l7.40137 12.917zM293.699 2.34473l-0.21582 0.107422l103.847 62.3027l6.07227 -10.6084l-99.5615 -66.3721l-10.2129 14.4443zM419.777 43.4746
c19.4736 -12.5029 30.3691 -35.9111 25.9414 -59.9307c-5.05762 -27.5488 -29.9033 -47.5439 -59.0596 -47.5439h-16.2852c-0.628906 0 -1.25781 0.0361328 -1.86914 0.0722656l-1.14941 0.0537109c-0.727539 0.0361328 -1.45508 0.0712891 -2.19141 0.134766
c-2.88379 0.259766 -5.84766 0.772461 -8.79395 1.50879l-2.21875 0.575195c-2.67676 0.772461 -5.43457 1.81445 -8.16504 3.08105c-0.799805 0.368164 -1.61719 0.753906 -2.45215 1.18555c-2.41602 1.2666 -4.72461 2.69434 -6.91699 4.25781
c-0.952148 0.672852 -1.9043 1.37402 -2.83789 2.1377c-1.97656 1.58984 -3.8623 3.35938 -5.6416 5.23633c-0.817383 0.853516 -1.625 1.70703 -2.39746 2.62305c-1.78809 2.12012 -3.43164 4.42871 -5.04883 7.05078
c-0.188477 0.170898 -0.56543 0.692383 -0.898438 1.2666l-5.58691 7.90527zM105.517 43.5469l113.404 -59.1582l-14.6777 -20.7949c-1.39258 -2.28125 -3.04492 -4.58984 -4.82324 -6.70996c-0.772461 -0.916016 -1.58105 -1.76953 -2.39844 -2.63184
c-1.7793 -1.86816 -3.66504 -3.6377 -5.69531 -5.27246c-0.871094 -0.71875 -1.83203 -1.41895 -2.81152 -2.11035c-2.17383 -1.54492 -4.47266 -2.97363 -6.87109 -4.23145c-0.844727 -0.439453 -1.66211 -0.826172 -2.51562 -1.21191
c-2.68555 -1.24902 -5.44336 -2.29102 -8.16504 -3.08105l-1.69727 -0.449219c-3.42285 -0.853516 -6.38672 -1.36523 -9.28809 -1.62598c-0.709961 -0.0625 -1.42773 -0.0986328 -2.16504 -0.134766l-1.14941 -0.0537109
c-0.620117 -0.0449219 -1.24902 -0.0810547 -1.87695 -0.0810547h-16.2852c-29.1572 0 -53.9941 19.9951 -59.0508 47.5439c-4.4375 24.0645 6.52051 47.5264 26.0664 60.0029zM67.7461 227.256c-10.8066 5.03906 -19.834 13.2402 -25.8965 23.8486
c-7.7793 13.5723 -9.81836 29.3008 -5.74023 44.293c6.88086 25.3662 30.082 43.0791 56.4189 43.0791c5.12891 0 10.2402 -0.691406 15.2158 -2.03906l2.46191 -1.07715l3.04492 -1.93164z" />
    <glyph glyph-name="023-photo-camera" unicode="&#xf116;" 
d="M256 273.066c56.4648 0 102.4 -45.9346 102.4 -102.399c0 -56.4658 -45.9355 -102.4 -102.4 -102.4s-102.4 45.9346 -102.4 102.4c0 56.4648 45.9355 102.399 102.4 102.399zM471.049 315.733c22.5879 0 40.9512 -18.3643 40.9512 -40.9512v-250.607
c0 -22.7412 -18.5 -41.2412 -41.2412 -41.2412h-429.518c-22.7412 0 -41.2412 18.5 -41.2412 41.2412v250.607c0 22.5869 18.3633 40.9512 40.9512 40.9512h10.249v42.667h51.2002v-42.667h11.2891l34.1338 85.333h216.354l34.1338 -85.333h72.7383zM85.333 315.733v25.5996
h-17.0664v-25.5996h17.0664zM256 17.0664c84.6934 0 153.6 68.9072 153.6 153.601s-68.9062 153.6 -153.6 153.6s-153.6 -68.9062 -153.6 -153.6s68.9062 -153.601 153.6 -153.601zM443.733 213.333c18.8242 0 34.1328 15.3096 34.1328 34.1338
s-15.3086 34.1328 -34.1328 34.1328s-34.1338 -15.3086 -34.1338 -34.1328s15.3096 -34.1338 34.1338 -34.1338z" />
    <glyph glyph-name="012-user" unicode="&#xf10b;" 
d="M255.996 448c141.38 0 256.002 -114.614 256.002 -255.997c0 -141.377 -114.622 -256.003 -256.002 -256.003s-255.994 114.626 -255.994 256.003c0 141.38 114.614 255.997 255.994 255.997zM256.775 71.2275h109.346c0 78.627 -67.8965 79.9238 -84.9961 99.8203
l-2.03125 10.8359c21.6055 11.2725 36.7881 37.8594 36.7881 68.8838c0 41.2227 -26.8154 74.6465 -59.8857 74.6465s-59.8857 -33.4238 -59.8857 -74.6465c0 -31.291 15.457 -58.0449 37.3535 -69.1416l-1.7832 -9.53516
c-15.5859 -20.9102 -85.8193 -20.8916 -85.8193 -100.86h109.351h1.56348v-0.00292969z" />
    <glyph glyph-name="004-burger" unicode="&#xf103;" 
d="M0 111.163v64.209h512v-64.209h-512zM481.568 -19.7646h-451.137c-16.6279 0 -30.4316 13.8037 -30.4316 30.4316v54.9014h512v-54.4834c0 -16.9414 -13.8037 -30.8496 -30.4316 -30.8496zM346.248 403.765c91.3994 0 165.752 -74.457 165.752 -165.752v-14.6406h-512
v14.6406c0 91.3994 74.3525 165.752 165.752 165.752h180.496zM138.98 300.549c1.25488 5.22852 -2.0918 10.876 -7.73828 12.9678c-6.16992 1.67285 -12.6543 2.09082 -18.7197 1.25488c-5.64648 -0.836914 -9.72461 -5.75195 -9.30664 -11.3994
c0.836914 -5.64648 5.75195 -9.72461 11.3984 -9.30664c4.07812 0.417969 8.15723 0 11.8174 -0.836914c6.16992 -1.88184 11.2939 2.40527 12.5488 7.32031zM249.935 328.157c3.66016 4.07812 3.24219 10.5615 -0.732422 14.1172
c-5.75098 4.91504 -11.8164 8.5752 -18.7188 11.3984c-5.22852 2.0918 -11.3984 -0.313477 -13.3857 -5.64648c-2.09082 -5.22852 0.314453 -11.3984 5.64746 -13.3857c4.39258 -2.0918 8.88867 -4.49707 12.5488 -7.73828
c2.0918 -1.56934 8.36621 -5.22949 14.6406 1.25488zM377.517 319.582c4.07812 3.66016 4.07812 10.5615 0 14.6406c-6.48438 6.58789 -13.8037 11.8164 -22.3789 15.8945c-5.22949 2.40527 -11.3994 0.418945 -13.8047 -4.91504
c-2.40527 -5.22852 -0.417969 -11.3984 4.91504 -13.8037c6.06543 -2.92773 11.7129 -6.90137 16.6279 -11.8164c2.0918 -1.9873 7.94727 -5.33398 14.6406 0z" />
    <glyph glyph-name="017-edit" unicode="&#xf110;" 
d="M473.172 127.556c7.05273 0 12.7686 -5.71484 12.7686 -12.7676v-113.372c-0.0400391 -35.2412 -28.5986 -63.7998 -63.8408 -63.8398h-358.259c-35.2422 0.0400391 -63.8008 28.5986 -63.8408 63.8398v332.729c0.0400391 35.2422 28.5986 63.8008 63.8408 63.8408
h113.366c7.05273 0 12.7676 -5.7207 12.7676 -12.7686c0 -7.05176 -5.71484 -12.7676 -12.7676 -12.7676h-113.366c-21.1475 -0.0253906 -38.2793 -17.1621 -38.3047 -38.3047v-332.723c0.0253906 -21.1475 17.1572 -38.2852 38.3047 -38.3047h358.259
c21.1475 0.0195312 38.2793 17.1572 38.3047 38.3047v113.366c0 7.05273 5.71582 12.7676 12.7676 12.7676zM473.172 127.556zM480.883 430.838l14.9824 -14.9824c22.4043 -22.4541 22.4043 -58.8027 0 -81.2568l-227.785 -227.796
c-1.56152 -1.56055 -3.49609 -2.68848 -5.62109 -3.27637l-108.145 -29.96c-4.43457 -1.22754 -9.18262 0.0244141 -12.4395 3.27637c-3.25195 3.25684 -4.50391 8.00488 -3.27148 12.4395l29.9551 108.145c0.588867 2.12402 1.71582 4.05957 3.27637 5.62109
l227.791 227.79c22.4385 22.4385 58.8184 22.4385 81.2568 0zM199.656 194.748l60.1191 -60.125l186.435 186.435l-60.125 60.124zM187.646 170.648l-18.4082 -66.4492l66.4434 18.4092zM477.811 352.653c12.4434 12.4736 12.4434 32.668 0 45.1475l-14.9873 14.9824
c-12.4639 12.4639 -32.6738 12.4639 -45.1377 0l-13.5459 -13.541l60.1299 -60.1299zM477.811 352.653z" />
    <glyph glyph-name="003-pizza" unicode="&#xf102;" 
d="M367.699 441.888c73.9795 -28.5264 129.254 -93.9365 144.301 -173.453l-41.0645 -7.73242c-12.2256 65.4102 -57.7832 119.014 -118.282 142.629zM345.025 383.791c54.4395 -21.2109 94.668 -69.9033 105.639 -127.269v0l-167.393 -31.6602zM376.268 267.912
c19.54 0 36.1533 16.2998 36.1533 36.1533c0 19.8525 -16.1953 36.1533 -36.1533 36.1533c-19.8525 0 -36.1533 -16.3008 -36.1533 -36.1533c0 -19.8535 16.1963 -36.1533 36.1533 -36.1533zM462.054 218.384c2.40332 -14.2109 4.0752 -28.4209 3.55273 -43.4678
c0 -128.418 -104.385 -232.804 -232.803 -232.804s-232.804 104.072 -232.804 232.804s104.386 232.803 232.804 232.907c29.6748 0 58.0957 -5.74609 84.5322 -15.8818l-11.3896 -29.2578c-23.1973 9.2998 -47.9609 13.793 -73.1426 13.793
c-110.864 0 -201.562 -90.5928 -201.562 -201.561s91.0107 -201.561 201.979 -201.561c110.968 0 201.561 90.1748 201.561 201.561c0 12.6436 -1.25391 25.1816 -3.65723 37.8252v0zM410.749 208.875c0 0 4.17969 -22.9873 2.50781 -33.541
c0 -99.5791 -81.3975 -180.872 -180.871 -180.872c-99.4746 0 -180.768 81.084 -180.768 180.663s81.293 180.872 180.872 180.872c39.7061 0 65.4102 -13.793 65.4102 -13.793l-64.9922 -166.975zM161.75 308.559c-5.3291 -1.98535 -7.73242 -8.15039 -5.22461 -13.4795
c1.56738 -3.9707 6.47852 -8.56836 13.375 -5.64258c4.0752 1.67188 8.88184 2.82129 13.375 3.65723c5.3291 0.835938 9.40332 6.16504 8.56836 11.8076c-0.835938 5.3291 -6.16504 9.4043 -11.8076 8.56836c-6.06055 -0.835938 -12.2256 -2.50781 -18.2861 -4.91113z
M129.254 266.345c-5.74707 -0.417969 -10.2402 -5.3291 -9.82227 -10.9717s5.3291 -10.1357 10.9717 -9.71777c6.89648 -4.38867 12.2256 -0.835938 14.2109 1.98535c3.34375 4.91113 2.50781 11.3896 -1.98535 14.6289c-3.65723 2.82129 -8.46387 4.49316 -13.375 4.0752z
M95.0859 148.062l12.6426 -8.98633c6.6875 -4.49316 12.2256 -0.835938 14.2109 1.98535c3.65723 4.91113 2.50781 11.3887 -1.98535 14.6279l-12.2256 8.98633c-4.91016 3.65723 -11.3887 2.50781 -14.6279 -1.98535c-3.65723 -4.91113 -2.50781 -11.3896 1.98535 -14.6279
zM128 62.2764c4.0752 4.07422 4.0752 10.6572 0 14.6279l-4.91113 4.91113c-4.0752 4.0752 -10.5537 4.0752 -14.6289 0c-4.07422 -4.0752 -4.07422 -10.5537 0 -14.6289l4.91113 -4.91016c5.64258 -5.43359 12.6436 -1.98535 14.6289 0zM123.925 198.844
c0 -17.0312 13.793 -30.9287 30.9287 -30.9287c17.1367 0 30.9297 13.793 30.9297 30.9287c0 17.1367 -13.793 30.9297 -30.9297 30.9297c-17.1357 0 -30.9287 -13.8975 -30.9287 -30.9297zM162.168 98.1162c4.0752 4.0752 4.0752 10.5527 0 15.0459l-7.73242 7.73242
c-4.0752 4.0752 -10.5527 4.0752 -14.6279 0s-4.0752 -10.5537 0 -14.6279l7.73242 -7.73242c5.74609 -5.95605 12.6426 -2.40332 14.6279 -0.417969zM213.368 25.3906c1.56738 5.64258 -1.25391 11.2852 -6.47852 12.957l-17.0312 5.64258
c-5.22461 1.67188 -11.2852 -1.14941 -12.957 -6.47852c-1.67188 -5.22461 1.14941 -11.2852 6.47852 -12.957l17.0312 -5.6416c7.10547 -1.67188 11.2852 1.98535 12.957 6.47754zM225.907 130.194c2.82129 4.91113 0.835938 10.9717 -4.0752 14.2109
c-3.65723 2.08984 -6.89648 4.91113 -9.71777 8.14941c-3.65723 4.0752 -10.1357 4.49316 -14.6289 0.835938c-4.0752 -3.65723 -4.49316 -10.1348 -0.835938 -14.6279c4.49316 -5.3291 9.82227 -9.4043 15.4648 -12.6436c7.00098 -3.23926 11.8076 0.835938 13.793 4.0752z
M225.489 239.49c4.0752 3.65723 4.91113 10.1357 1.25391 14.6289c-2.82129 3.23926 -5.3291 6.89648 -7.31445 10.9717c-2.40332 5.3291 -8.46387 7.31445 -13.793 4.91113s-7.31445 -8.46387 -4.91113 -13.793c2.82129 -5.74707 5.64258 -10.9717 10.1357 -15.4648
c6.89648 -6.89551 12.748 -2.50781 14.6289 -1.25391zM228.415 317.127c0.731445 -5.74707 6.06055 -9.82227 11.8066 -8.46387c0 0 7.10547 -8.0459 15.4648 -1.67188c4.49316 3.65723 4.91113 10.1357 1.25391 14.6279c-4.91113 5.64258 -12.6436 8.56836 -19.958 7.31445
c-5.74609 -0.835938 -9.40332 -6.16504 -8.56738 -11.8066zM264.986 43.2588c17.4492 0 31.6602 14.2109 31.6602 31.6602c0 17.4502 -14.2109 31.6611 -31.6602 31.6611c-17.4502 0 -31.6602 -14.2109 -31.6602 -31.6611c0 -17.4492 14.21 -31.6602 31.6602 -31.6602z
M309.604 121.208c5.3291 1.67188 8.98633 6.89648 7.73242 12.1211c-1.56738 6.47852 -7.31445 11.3896 -14.2109 11.8076c-5.64258 0.417969 -10.5537 -4.0752 -10.9717 -9.71777c0 -4.49316 2.40332 -8.46387 6.47852 -10.1357
c1.98535 -2.82129 5.53809 -5.43359 10.9717 -4.0752zM371.774 113.476c3.23926 4.91113 1.67188 11.3896 -3.23926 14.2109c-4.91113 3.23926 -11.3887 1.67188 -14.21 -3.23926l-4.91113 -7.73242c-3.23926 -4.91113 -1.67188 -11.3887 3.23926 -14.21
c1.56738 -1.25391 9.2998 -4.0752 14.21 3.23926zM375.85 170.841c1.67188 5.22461 -1.98535 10.9717 -7.73242 12.2256c-4.91113 1.25391 -9.7168 1.67188 -14.6279 1.25391c-5.64258 -0.417969 -9.71777 -5.3291 -9.2998 -10.9717
c0.417969 -5.74707 5.3291 -9.82227 10.9717 -8.98633c2.82129 0 5.3291 0 8.14941 -0.835938c0.731445 -0.417969 1.56738 -0.417969 2.40332 -0.417969c4.80664 0 8.88184 2.82129 10.1357 7.73242z" />
  </font>
</defs>
</svg>
