<svg xmlns="http://www.w3.org/2000/svg" style="display: none;"><symbol id="rice" viewBox="0 0 490.4 490.4"><title>rice</title><path d="M0,211.568c0,105.8,67.3,196,161.4,230.2v39.7H329v-39.7c94.1-34.2,161.4-124.4,161.4-230.2L0,211.568L0,211.568z"/><path d="M457.3,166.468c2.3-5.4,3.5-11.7,3.5-17.9c0-26.4-22.5-50.9-52.1-47.4c3.1-28.7-21-52.1-47.4-52.1 c-8.2,0-15.9,1.9-22.9,5.8c-5.9-19.9-24.2-34.7-46-34.7c-12.1,0-23.3,4.7-31.5,12.1c-8.2-14-23.7-22.6-40.8-23.3 c-26-1.1-50.9,23.3-47.4,54.4c-22.3-16-43.3-8.5-49.5-5.6c-16.3,7.6-29,26.4-27.1,47.6c-55.7-6.2-59.5,54.5-53.7,59.9 c-15.6,2.7-28.4,13.2-34.6,27.2h477.9C480.3,180.068,469.8,170.668,457.3,166.468z"/></symbol><symbol id="cake" viewBox="0 0 490 490"><title>cake</title><rect y="261.278" width="490" height="94.9"/><rect y="375.678" width="490" height="94.9"/><path d="M271.1,97.178c-16.3,7.4-28,24.1-28,43.2c0,26.1,21.4,47.4,47.4,47.4s47.4-21.4,47.4-47.4s-21-47.4-47.4-47.4 c-12.4-37.3-50.6-69.6-52.5-71.2c-4.3-3.5-10.5-3.1-14,1.2s-3.1,10.5,1.2,14C236.1,45.878,261.7,71.578,271.1,97.178z"/><path d="M417.3,94.878l-63.8,22.6c2.7,7.4,4.3,15.2,4.3,23.3c0,36.9-29.9,67.3-67.3,67.3c-29.6,0-54.8-19.4-63.8-45.9L0,241.478 h490C490,187.778,463.6,137.678,417.3,94.878z"/></symbol><symbol id="pizza" viewBox="0 0 490 490"><title>pizza</title><path d="M351.9,5.85l-14.4,36.9c57.9,22.6,101.5,73.9,113.2,136.5l39.3-7.4C475.6,95.75,422.7,33.15,351.9,5.85z"/><path d="M330.2,61.45l-59.1,152.1l160.2-30.3l0,0C420.8,128.35,382.3,81.75,330.2,61.45z M360.1,172.35 c-19.1,0-34.6-15.6-34.6-34.6s15.6-34.6,34.6-34.6c19.1,0,34.6,15.6,34.6,34.6S378.8,172.35,360.1,172.35z"/><path d="M442.2,219.75l-29.6,5.4l0,0c2.3,12.1,3.5,24.1,3.5,36.2c0,106.6-86.7,192.9-192.9,192.9s-193.3-86.7-193.3-192.9 s86.8-192.9,192.9-192.9c24.1,0,47.8,4.3,70,13.2l10.9-28c-25.3-9.7-52.5-15.2-80.9-15.2C99.9,38.55,0,138.15,0,261.35 s99.9,222.8,222.8,222.8s222.8-99.9,222.8-222.8C446.1,246.95,444.5,233.35,442.2,219.75z"/><path d="M393.1,228.85l-170.2,32.2l62.2-159.8c0,0-24.6-13.2-62.6-13.2c-95.3,0-173.1,77.8-173.1,173.1s77.8,172.9,173,172.9 s173.1-77.8,173.1-173.1C397.1,250.85,393.1,228.85,393.1,228.85z M154.8,133.45c5.8-2.3,11.7-3.9,17.5-4.7 c5.4-0.8,10.5,3.1,11.3,8.2c0.8,5.4-3.1,10.5-8.2,11.3c-4.3,0.8-8.9,1.9-12.8,3.5c-6.6,2.8-11.3-1.6-12.8-5.4 C147.4,141.25,149.7,135.35,154.8,133.45z M123.7,173.85c4.7-0.4,9.3,1.2,12.8,3.9c4.3,3.1,5.1,9.3,1.9,14 c-1.9,2.7-7,6.1-13.6,1.9c-5.4,0.4-10.1-3.9-10.5-9.3C113.9,178.95,118.2,174.25,123.7,173.85z M91,287.05 c-4.3-3.1-5.4-9.3-1.9-14c3.1-4.3,9.3-5.4,14-1.9l11.7,8.6c4.3,3.1,5.4,9.3,1.9,14c-1.9,2.7-7.2,6.2-13.6,1.9L91,287.05z M122.5,369.15c-1.9,1.9-8.6,5.2-14,0l-4.7-4.7c-3.9-3.9-3.9-10.1,0-14s10.1-3.9,14,0l4.7,4.7 C126.4,358.95,126.4,365.25,122.5,369.15z M118.6,238.45c0-16.3,13.2-29.6,29.6-29.6s29.6,13.2,29.6,29.6s-13.2,29.6-29.6,29.6 S118.6,254.75,118.6,238.45z M155.2,334.85c-1.9,1.9-8.5,5.3-14-0.4l-7.4-7.4c-3.9-3.9-3.9-10.1,0-14s10.1-3.9,14,0l7.4,7.4 C159.1,324.75,159.1,330.95,155.2,334.85z M204.2,404.45c-1.6,4.3-5.6,7.8-12.4,6.2l-16.3-5.4c-5.1-1.6-7.8-7.4-6.2-12.4 c1.6-5.1,7.4-7.8,12.4-6.2l16.3,5.4C203,393.65,205.7,399.05,204.2,404.45z M216.2,304.15c-1.9,3.1-6.5,7-13.2,3.9 c-5.4-3.1-10.5-7-14.8-12.1c-3.5-4.3-3.1-10.5,0.8-14c4.3-3.5,10.5-3.1,14,0.8c2.7,3.1,5.8,5.8,9.3,7.8 C217,293.65,218.9,299.45,216.2,304.15z M215.8,199.55c-1.8,1.2-7.4,5.4-14-1.2c-4.3-4.3-7-9.3-9.7-14.8 c-2.3-5.1-0.4-10.9,4.7-13.2c5.1-2.3,10.9-0.4,13.2,4.7c1.9,3.9,4.3,7.4,7,10.5C220.5,189.85,219.7,196.05,215.8,199.55z M218.6,125.25c-0.8-5.4,2.7-10.5,8.2-11.3c7-1.2,14.4,1.6,19.1,7c3.5,4.3,3.1,10.5-1.2,14c-8,6.1-14.8-1.6-14.8-1.6 C224.4,134.65,219.3,130.75,218.6,125.25z M253.6,387.35c-16.7,0-30.3-13.6-30.3-30.3s13.6-30.3,30.3-30.3s30.3,13.6,30.3,30.3 S270.3,387.35,253.6,387.35z M296.3,312.75c-5.2,1.3-8.6-1.2-10.5-3.9c-3.9-1.6-6.2-5.4-6.2-9.7c0.4-5.4,5.1-9.7,10.5-9.3 c6.6,0.4,12.1,5.1,13.6,11.3C304.9,306.15,301.4,311.15,296.3,312.75z M355.8,320.15l-4.7,7.4c-4.7,7-12.1,4.3-13.6,3.1 c-4.7-2.7-6.2-8.9-3.1-13.6l4.7-7.4c2.7-4.7,8.9-6.2,13.6-3.1C357.4,309.25,358.9,315.45,355.8,320.15z M359.7,265.25 c-1.2,4.7-5.1,7.4-9.7,7.4c-0.8,0-1.6,0-2.3-0.4c-2.7-0.8-5.1-0.8-7.8-0.8c-5.4,0.8-10.1-3.1-10.5-8.6 c-0.4-5.4,3.5-10.1,8.9-10.5c4.7-0.4,9.3,0,14,1.2C357.8,254.75,361.3,260.25,359.7,265.25z"/></symbol><symbol id="burger" viewBox="0 0 489.6 489.6"><title>burger</title><rect x="0" y="260.7" width="489.6" height="61.4"/><path d="M460.5,447.3H29.1C13.2,447.3,0,434.1,0,418.2v-52.5h489.6v52.1C489.6,434,476.4,447.3,460.5,447.3z"/><path d="M331.1,42.3H158.5C71.1,42.3,0,113.4,0,200.8v14h489.6v-14C489.6,113.5,418.5,42.3,331.1,42.3z M132.9,141 c-1.2,4.7-6.1,8.8-12,7c-3.5-0.8-7.4-1.2-11.3-0.8c-5.4,0.4-10.1-3.5-10.9-8.9c-0.4-5.4,3.5-10.1,8.9-10.9 c5.8-0.8,12-0.4,17.9,1.2C130.9,130.6,134.1,136,132.9,141z M239,114.6c-6,6.2-12,2.7-14,1.2c-3.5-3.1-7.8-5.4-12-7.4 c-5.1-1.9-7.4-7.8-5.4-12.8c1.9-5.1,7.8-7.4,12.8-5.4c6.6,2.7,12.4,6.2,17.9,10.9C242.1,104.5,242.5,110.7,239,114.6z M361,122.8 c-6.4,5.1-12,1.9-14,0c-4.7-4.7-10.1-8.5-15.9-11.3c-5.1-2.3-7-8.2-4.7-13.2c2.3-5.1,8.2-7,13.2-4.7c8.2,3.9,15.2,8.9,21.4,15.2 C364.9,112.7,364.9,119.3,361,122.8z"/></symbol><symbol id="restaurant" viewBox="0 0 489.625 489.625"><title>restaurant</title><path d="M48.225,99.112c-50.9,0-48.2,177.6-48.2,204h48.2V99.112z"/><ellipse cx="453.125" cy="157.412" rx="36.5" ry="58.3"/><path d="M244.825,84.712c-88.6,0-160.1,71.9-160.1,160.1c0,88.6,71.9,160.1,160.1,160.1c88.6,0,160.1-71.9,160.1-160.1 C404.925,156.212,333.425,84.712,244.825,84.712z M244.825,347.812c-56.7,0-103-46-103-103c0-56.7,46-103,103-103s103,46,103,103 C347.825,301.512,301.825,347.812,244.825,347.812z"/><path d="M244.825,161.612c-46,0-83.2,37.3-83.2,83.2c0,46,37.3,83.2,83.2,83.2c46,0,83.2-37.3,83.2-83.2 C328.025,198.812,290.825,161.612,244.825,161.612z"/><path d="M18.325,322.912l-1.9,49.3c-0.4,10.1,7.4,18.3,17.5,18.3s17.9-8.5,17.5-18.3l-1.9-49.3H18.325z"/><path d="M441.425,233.912l-5.8,138.3c-0.4,10.1,7.4,18.3,17.5,18.3s17.9-8.5,17.5-18.3l-5.8-138.3 C460.425,236.012,444.925,236.012,441.425,233.912z"/></symbol><symbol id="soup" viewBox="0 0 490.003 490.003"><title>soup</title><path d="M0,272.014h26.4c8.6,0,15.9,5.4,18.7,13.2l32.7,98.8c7.8,24.1,30.3,40.1,55.6,40.1h220.1c25.3,0,47.4-16.3,55.6-40.1 l32.7-98.8c2.7-8.2,10.1-13.2,18.7-13.2h26.4v-34.2H0V272.014z"/><path d="M288.2,165.014c1.9,5.8,6.2,20.2-0.4,29.9c-3.1,4.7-1.9,10.5,2.7,13.6c6.6,3.8,11.7,0,13.6-2.7 c11.3-16.7,6.2-36.9,2.3-47.8c-2.3-6.2-14-29.9-15.9-36.2c-2.7-8.9-5.7-28.9,15.2-39.7c3.5-4.3,2.7-10.5-1.2-14 c-4.3-3.5-10.5-2.7-14,1.2c-1.2,1.6-9.3,7.8-11.3,9.7c-10.5,11.3-13.6,29.2-7.8,47.8C274.6,135.514,286.2,160.014,288.2,165.014z "/><path d="M220.3,165.014c1.9,5.8,6.2,20.2-0.4,29.9c-3.1,4.7-1.9,10.5,2.7,13.6c6.6,3.8,11.7,0,13.6-2.7 c11.3-16.7,6.2-36.9,2.3-47.8c-2.3-6.2-14-29.9-15.9-36.2c-2.7-8.9-5.9-29.8,15.2-39.7c3.5-4.3,2.7-10.5-1.2-14 c-4.3-3.5-10.5-2.7-14,1.2c-1.2,1.6-9.3,7.8-11.3,9.7c-10.5,11.3-13.6,29.2-7.8,47.8C206.7,135.514,218.4,160.014,220.3,165.014z "/><path d="M152.5,165.014c1.9,5.8,6.2,20.2-0.4,29.9c-3.1,4.7-1.9,10.5,2.7,13.6c6.6,3.8,11.7,0,13.6-2.7 c11.3-16.7,6.2-36.9,2.3-47.8c-2.3-6.2-14-29.9-15.9-36.2c-2.7-8.9-4.5-29.8,15.2-39.7c3.5-4.3,2.7-10.5-1.2-14 c-4.3-3.5-10.5-2.7-14,1.2c-1.2,1.6-9.3,7.8-11.3,9.7c-10.5,11.3-13.6,29.2-7.8,47.8C138.9,135.514,150.6,160.014,152.5,165.014z "/><path d="M479.1,135.114c10.1-4.7,14-17.5,8.2-26.8c-4.3-7-12.8-10.5-21-8.2c-63.4,18.3-89.4,84.4-98.8,117.8h29.9 C420,169.714,456.6,146.014,479.1,135.114z"/></symbol><symbol id="cherries" viewBox="0 0 489.664 489.664"><title>cherries</title><path d="M433.432,340.564c0-60.7-45.5-110.9-103.9-118.7c-3.2-7.3-14.7-67.7-5.8-121.8c10.5,20.2,30,36.6,56.4,45.1 c31.9-52.1,12.8-109.7-41.6-132.3c1.4-3.6,0-8.2-2.7-10.5s-6.6-3.1-10.1-1.6c-104.4,47.1-136.7,190.3-140.2,207.8 c-70.7-7.4-129.3,53.3-129.3,119.1c0,40.1,19.8,75.5,50.2,97.3l-10.1,10.5c-3.9,3.9-3.5,10.1,0.4,13.6c6,5.3,11.7,1.6,13.6-0.4 l9-9.3l-5.1,11.3c-2.3,4.7,0,10.5,4.7,12.8c5.7,2.5,10.9-1.2,12.8-4.7l7-15.6l-0.8,17.5c-0.4,5.4,3.9,9.7,9,10.1 c5.1,0.2,9.8-3.9,10.1-9l0.8-16c14.2,6.6,46.3-1.6,59.5-6.2c-25.7-25.3-42-60.3-42-99.2c0-47.9,24.5-90.3,61.9-115.6 c-10.1-5.8-21-10.5-32.3-13.2c3.5-16.3,30-127.3,104.3-179.4c-4.7,16.3-5.8,32.7-2.3,48.6c-8.2,59.9-7.4,107,2.7,140.1 c-64.6,2.7-115.2,55.3-115.2,119.5c0,57.2,40.5,105.5,94.2,116.8l-6.2,13.6c-2.3,4.7,0,10.5,4.7,12.8c6.2,2.4,10.9-1.2,12.5-4.7 l7-15.2l-0.4,16.3c0,5.4,4.3,9.7,9.3,9.7l0,0c5.1,0,9.7-4.3,9.7-9.3l0.4-16.7l3.5,16.7c0.8,4.7,5.8,8.6,11.3,7.8 c5.1-1.2,8.6-6.2,7.4-11.3l-4.3-20.6C395.632,442.864,433.432,396.164,433.432,340.564z"/></symbol><symbol id="logout" viewBox="0 0 512 512"><title>logout</title><path d="M510.371,226.513c-1.088-2.603-2.645-4.971-4.629-6.955l-63.979-63.979c-8.341-8.32-21.824-8.32-30.165,0 c-8.341,8.341-8.341,21.845,0,30.165l27.584,27.584H320.013c-11.797,0-21.333,9.557-21.333,21.333s9.536,21.333,21.333,21.333 h119.168l-27.584,27.584c-8.341,8.341-8.341,21.845,0,30.165c4.16,4.181,9.621,6.251,15.083,6.251s10.923-2.069,15.083-6.251 l63.979-63.979c1.984-1.963,3.541-4.331,4.629-6.955C512.525,237.606,512.525,231.718,510.371,226.513z"/><path d="M362.68,298.667c-11.797,0-21.333,9.557-21.333,21.333v106.667h-85.333V85.333c0-9.408-6.187-17.728-15.211-20.437 l-74.091-22.229h174.635v106.667c0,11.776,9.536,21.333,21.333,21.333s21.333-9.557,21.333-21.333v-128 C384.013,9.557,374.477,0,362.68,0H21.347c-0.768,0-1.451,0.32-2.197,0.405c-1.003,0.107-1.92,0.277-2.88,0.512 c-2.24,0.576-4.267,1.451-6.165,2.645c-0.469,0.299-1.045,0.32-1.493,0.661C8.44,4.352,8.376,4.587,8.205,4.715 C5.88,6.549,3.939,8.789,2.531,11.456c-0.299,0.576-0.363,1.195-0.597,1.792c-0.683,1.621-1.429,3.2-1.685,4.992 c-0.107,0.64,0.085,1.237,0.064,1.856c-0.021,0.427-0.299,0.811-0.299,1.237V448c0,10.176,7.189,18.923,17.152,20.907 l213.333,42.667c1.387,0.299,2.795,0.427,4.181,0.427c4.885,0,9.685-1.685,13.525-4.843c4.928-4.053,7.808-10.091,7.808-16.491 v-21.333H362.68c11.797,0,21.333-9.557,21.333-21.333V320C384.013,308.224,374.477,298.667,362.68,298.667z"/></symbol><symbol id="gingerbread" viewBox="0 0 57 57"><title>gingerbread</title><path d="M50.002,24.802c0.956-0.566,1.771-1.352,2.34-2.347c0.865-1.511,1.093-3.262,0.639-4.931 c-0.767-2.824-3.35-4.796-6.281-4.796c-0.571,0-1.141,0.076-1.694,0.227L44.839,13l-0.549,0.379L50.002,24.802z"/><path d="M14.318,13.84L9.395,25.326l4.999,2.164c2.005,1.245,5.049,3.995,3.565,8.671l-2.527,4.411l12.22,6.401l0.737-1.044 c0.393-0.557,1.294-0.557,1.685,0l1.439,2.037l11.725-7.035l-2.733-4.77c-1.463-4.612,1.501-7.354,3.452-8.599l4.218-1.938 l-5.548-11.095l-4.058,2.803c0.626-0.841,1.146-2.084,1.146-4.399c0-2.189-0.244-4.008-0.656-5.542l-0.516-1.546 C36.663,1.186,32.831,0,29.456,0c-9.611,0-10.723,7.419-10.723,13c0,2.292,0.923,3.759,1.553,4.627L14.318,13.84z M29.233,40 c-1.93,0-3.5-1.57-3.5-3.5s1.57-3.5,3.5-3.5s3.5,1.57,3.5,3.5S31.163,40,29.233,40z M29.233,31c-1.93,0-3.5-1.57-3.5-3.5 s1.57-3.5,3.5-3.5s3.5,1.57,3.5,3.5S31.163,31,29.233,31z M32.733,6c1.105,0,2,0.896,2,2s-0.895,2-2,2s-2-0.896-2-2 S31.628,6,32.733,6z M25.733,6c1.105,0,2,0.896,2,2s-0.895,2-2,2s-2-0.896-2-2S24.628,6,25.733,6z M24.733,12c0.553,0,1,0.447,1,1 c0,1.202,1.706,2.356,3.511,2.375c1.756,0,3.489-1.177,3.489-2.375c0-0.553,0.447-1,1-1s1,0.447,1,1c0,2.578-2.898,4.375-5.5,4.375 c-2.661-0.027-5.5-1.792-5.5-4.375C23.733,12.447,24.18,12,24.733,12z"/><polygon points="26.489,48.62 14.438,42.307 13.614,43.745 25.539,49.966 "/><polygon points="32.697,49.614 32.689,49.628 33.826,51.236 44.91,43.847 44.234,42.666 32.673,49.602 "/><path d="M46.733,45.035L34.98,52.871l0.622,0.88c0.037,0.064,0.079,0.122,0.1,0.141c0.18,0.292,0.363,0.549,0.562,0.785 c0.086,0.102,0.176,0.197,0.267,0.292c0.198,0.209,0.408,0.406,0.628,0.583c0.104,0.085,0.21,0.163,0.316,0.238 c0.244,0.174,0.501,0.333,0.77,0.474c0.093,0.048,0.184,0.091,0.273,0.132c0.304,0.141,0.611,0.257,0.909,0.343l0.247,0.064 c0.328,0.082,0.658,0.139,0.979,0.168c0.082,0.007,0.163,0.011,0.244,0.015l0.128,0.006C41.093,56.996,41.163,57,41.233,57h1.813 c3.246,0,6.012-2.226,6.575-5.293C50.114,49.033,48.901,46.427,46.733,45.035z"/><path d="M11.747,45.027c-2.176,1.389-3.396,4.001-2.902,6.68C9.408,54.774,12.173,57,15.419,57h1.813 c0.07,0,0.14-0.004,0.209-0.009l0.128-0.006c0.082-0.004,0.162-0.008,0.241-0.015c0.323-0.029,0.653-0.086,1.034-0.181l0.189-0.05 c0.303-0.088,0.61-0.204,0.909-0.343c0.095-0.043,0.186-0.086,0.28-0.135c0.267-0.14,0.523-0.299,0.765-0.471 c0.109-0.077,0.216-0.155,0.313-0.235c0.226-0.182,0.436-0.379,0.634-0.587c0.091-0.096,0.181-0.191,0.267-0.293 c0.198-0.236,0.382-0.493,0.537-0.747l1.634-2.315L11.747,45.027z"/><path d="M7.542,24.575l5.066-11.82l-0.339-0.215l-0.274-0.12c-0.554-0.15-1.123-0.227-1.694-0.227 c-2.932,0-5.515,1.972-6.281,4.796c-0.454,1.669-0.227,3.42,0.639,4.931C5.334,23.101,6.339,24.014,7.542,24.575z"/></symbol><symbol id="settings-work-tool" viewBox="0 0 268.765 268.765"><title>settings-work-tool</title><path style="fill-rule:evenodd;clip-rule:evenodd;" d="M267.92,119.461c-0.425-3.778-4.83-6.617-8.639-6.617 c-12.315,0-23.243-7.231-27.826-18.414c-4.682-11.454-1.663-24.812,7.515-33.231c2.889-2.641,3.24-7.062,0.817-10.133 c-6.303-8.004-13.467-15.234-21.289-21.5c-3.063-2.458-7.557-2.116-10.213,0.825c-8.01,8.871-22.398,12.168-33.516,7.529 c-11.57-4.867-18.866-16.591-18.152-29.176c0.235-3.953-2.654-7.39-6.595-7.849c-10.038-1.161-20.164-1.197-30.232-0.08 c-3.896,0.43-6.785,3.786-6.654,7.689c0.438,12.461-6.946,23.98-18.401,28.672c-10.985,4.487-25.272,1.218-33.266-7.574 c-2.642-2.896-7.063-3.252-10.141-0.853c-8.054,6.319-15.379,13.555-21.74,21.493c-2.481,3.086-2.116,7.559,0.802,10.214 c9.353,8.47,12.373,21.944,7.514,33.53c-4.639,11.046-16.109,18.165-29.24,18.165c-4.261-0.137-7.296,2.723-7.762,6.597 c-1.182,10.096-1.196,20.383-0.058,30.561c0.422,3.794,4.961,6.608,8.812,6.608c11.702-0.299,22.937,6.946,27.65,18.415 c4.698,11.454,1.678,24.804-7.514,33.23c-2.875,2.641-3.24,7.055-0.817,10.126c6.244,7.953,13.409,15.19,21.259,21.508 c3.079,2.481,7.559,2.131,10.228-0.81c8.04-8.893,22.427-12.184,33.501-7.536c11.599,4.852,18.895,16.575,18.181,29.167 c-0.233,3.955,2.67,7.398,6.595,7.85c5.135,0.599,10.301,0.898,15.481,0.898c4.917,0,9.835-0.27,14.752-0.817 c3.897-0.43,6.784-3.786,6.653-7.696c-0.451-12.454,6.946-23.973,18.386-28.657c11.059-4.517,25.286-1.211,33.281,7.572 c2.657,2.89,7.047,3.239,10.142,0.848c8.039-6.304,15.349-13.534,21.74-21.494c2.48-3.079,2.13-7.559-0.803-10.213 c-9.353-8.47-12.388-21.946-7.529-33.524c4.568-10.899,15.612-18.217,27.491-18.217l1.662,0.043 c3.853,0.313,7.398-2.655,7.865-6.588C269.044,139.917,269.058,129.639,267.92,119.461z M134.595,179.491 c-24.718,0-44.824-20.106-44.824-44.824c0-24.717,20.106-44.824,44.824-44.824c24.717,0,44.823,20.107,44.823,44.824 C179.418,159.385,159.312,179.491,134.595,179.491z"/></symbol><symbol id="food" viewBox="0 0 300.167 300.167"><title>food</title><path d="M251.39,157.505c-1.362-1.559-2.517-3.26-3.469-5.056c-0.468,48.27-39.875,87.398-88.254,87.398 c-48.669,0-88.265-39.596-88.265-88.265s39.596-88.265,88.265-88.265c41.868,0,77.02,29.304,86.027,68.477l7.993-59.42l0.18-1.336 c-22.76-26.581-56.544-43.457-94.2-43.457c-29.378,0-56.398,10.276-77.667,27.414v1.283v1.136v25.168v0.999 c0,16.811-8.713,32.159-22.5,40.929v98.378v1.695c22.574,30.89,59.063,50.998,100.167,50.998c43.192,0,81.291-22.203,103.5-55.79 v-1.817V165.28C258.661,163.814,254.578,161.151,251.39,157.505z"/><path d="M159.667,78.318c-40.398,0-73.265,32.866-73.265,73.265s32.866,73.265,73.265,73.265s73.265-32.866,73.265-73.265 S200.065,78.318,159.667,78.318z"/><path d="M299.833,14.476c0-6.384-5.175-11.559-11.559-11.559c-5.788,0-10.684,4.281-11.455,10.018l-16.89,125.549 c-0.445,3.305,0.56,6.64,2.754,9.15c2.195,2.51,5.366,3.949,8.701,3.949h6.782V286.25c0,6.075,4.925,11,11,11s11-4.925,11-11 L299.833,14.476z"/><path d="M67,16.917c0-4.143-3.357-7.5-7.5-7.5s-7.5,3.357-7.5,7.5v41.499H41V16.917c0-4.143-3.357-7.5-7.5-7.5s-7.5,3.357-7.5,7.5 v41.499H15V16.917c0-4.143-3.357-7.5-7.5-7.5S0,12.774,0,16.917v67.666c0,14.619,9.417,27.073,22.5,31.636V286.25 c0,6.075,4.925,11,11,11s11-4.925,11-11V116.219C57.583,111.656,67,99.202,67,84.583V16.917z"/></symbol><symbol id="user" viewBox="0 0 299.997 299.997"><title>user</title><path d="M149.996,0C67.157,0,0.001,67.158,0.001,149.997c0,82.837,67.156,150,149.995,150s150-67.163,150-150 C299.996,67.156,232.835,0,149.996,0z M150.453,220.763v-0.002h-0.916H85.465c0-46.856,41.152-46.845,50.284-59.097l1.045-5.587 c-12.83-6.502-21.887-22.178-21.887-40.512c0-24.154,15.712-43.738,35.089-43.738c19.377,0,35.089,19.584,35.089,43.738 c0,18.178-8.896,33.756-21.555,40.361l1.19,6.349c10.019,11.658,49.802,12.418,49.802,58.488H150.453z"/></symbol><symbol id="waste-bin" viewBox="0 0 268.476 268.476"><title>waste-bin</title><path style="fill-rule:evenodd;clip-rule:evenodd;" d="M63.119,250.254c0,0,3.999,18.222,24.583,18.222h93.072 c20.583,0,24.582-18.222,24.582-18.222l18.374-178.66H44.746L63.119,250.254z M170.035,98.442c0-4.943,4.006-8.949,8.949-8.949 c4.943,0,8.95,4.006,8.95,8.949l-8.95,134.238c0,4.943-4.007,8.949-8.949,8.949c-4.942,0-8.949-4.007-8.949-8.949L170.035,98.442z M125.289,98.442c0-4.943,4.007-8.949,8.949-8.949c4.943,0,8.949,4.006,8.949,8.949v134.238c0,4.943-4.006,8.949-8.949,8.949 c-4.943,0-8.949-4.007-8.949-8.949V98.442z M89.492,89.492c4.943,0,8.949,4.006,8.949,8.949l8.95,134.238 c0,4.943-4.007,8.949-8.95,8.949c-4.942,0-8.949-4.007-8.949-8.949L80.543,98.442C80.543,93.499,84.55,89.492,89.492,89.492z M218.36,35.811h-39.376V17.899C178.984,4.322,174.593,0,161.086,0L107.39,0C95.001,0,89.492,6.001,89.492,17.899v17.913H50.116 c-7.914,0-14.319,6.007-14.319,13.43c0,7.424,6.405,13.431,14.319,13.431H218.36c7.914,0,14.319-6.007,14.319-13.431 C232.679,41.819,226.274,35.811,218.36,35.811z M161.086,35.811h-53.695l0.001-17.913h53.695V35.811z"/></symbol><symbol id="pizza-1" viewBox="0 0 512 512.00032"><title>pizza-1</title><path d="m507.605469 4.394531c-4.015625-4.019531-9.960938-5.421875-15.347657-3.625l-365.859374 121.953125v20.828125c0 133.703125 108.183593 242.050781 242.050781 242.050781h20.828125l121.953125-365.855468c1.796875-5.390625.394531-11.335938-3.625-15.351563zm-305.265625 214.011719c-5.855469 5.859375-15.355469 5.859375-21.210938 0l-16.070312-16.066406c-5.855469-5.859375-5.855469-15.355469 0-21.210938 5.859375-5.859375 15.355468-5.859375 21.214844 0l16.066406 16.0625c5.859375 5.859375 5.859375 15.359375 0 21.214844zm38.660156-2.570312c0-30.421876 24.75-55.167969 55.167969-55.167969s55.164062 24.746093 55.164062 55.167969c0 30.417968-24.746093 55.164062-55.164062 55.164062s-55.167969-24.746094-55.167969-55.164062zm105.9375 98.972656-16.0625 16.066406c-5.859375 5.855469-15.355469 5.855469-21.214844 0-5.859375-5.859375-5.859375-15.355469 0-21.214844l16.066406-16.066406c5.855469-5.859375 15.355469-5.859375 21.210938 0 5.859375 5.859375 5.859375 15.355469 0 21.214844zm32.136719-160.667969c-5.855469 5.855469-15.355469 5.859375-21.214844 0l-16.066406-16.066406c-5.855469-5.859375-5.855469-15.355469 0-21.214844 5.859375-5.855469 15.355469-5.855469 21.214843 0l16.066407 16.066406c5.855469 5.859375 5.855469 15.355469 0 21.214844zm0 0"/><path d="m368.449219 415.601562c-150.273438 0-272.050781-121.589843-272.050781-272.050781v-10.828125l-86.140626 28.714844c-6.125 2.042969-10.257812 7.789062-10.257812 14.246094 0 185.679687 150.777344 336.316406 336.332031 336.316406 6.457031 0 12.1875-4.128906 14.230469-10.253906l28.714844-86.144532zm0 0"/><path d="m296.167969 190.667969c-13.878907 0-25.167969 11.289062-25.167969 25.167969 0 13.875 11.289062 25.164062 25.167969 25.164062 13.875 0 25.164062-11.289062 25.164062-25.164062 0-13.878907-11.289062-25.167969-25.164062-25.167969zm0 0"/></symbol><symbol id="pizza-2" viewBox="0 0 512 512"><title>pizza-2</title><path d="m437.019531 74.980469c-48.351562-48.351563-112.640625-74.980469-181.019531-74.980469-45.007812 0-89.277344 11.851562-128.023438 34.273438-7.234374 4.183593-9.710937 13.441406-5.53125 20.683593l30.242188 52.378907c.015625.035156.03125.066406.050781.101562l77.023438 133.414062h-214.613281c-8.367188 0-15.148438 6.78125-15.148438 15.148438 0 68.378906 26.628906 132.667969 74.980469 181.019531 48.351562 48.351563 112.640625 74.980469 181.019531 74.980469 45.007812 0 89.277344-11.851562 128.019531-34.269531 38.210938-22.105469 70.253907-53.890625 92.671875-91.917969 23.097656-39.191406 35.308594-84.078125 35.308594-129.8125 0-68.378906-26.628906-132.667969-74.980469-181.019531zm44.164063 165.871093h-30.359375c-4.660157-60.5-36.996094-113.363281-84.332031-145.929687l15.1875-26.308594c56.347656 37.917969 94.730468 100.550781 99.503906 172.238281zm-294.285156-134.847656c21.546874-9.921875 45.160156-15.117187 69.101562-15.117187 24.652344 0 48.050781 5.441406 69.082031 15.167969l-69.082031 119.648437zm95.339843 165.144532h138.171875c-4.503906 49.3125-30.777344 92.425781-69.113281 119.613281zm42.84375 134.796874c-21.03125 9.726563-44.429687 15.167969-69.082031 15.167969s-48.050781-5.441406-69.082031-15.167969l69.082031-119.648437zm-42.84375-165.09375 69.058594-119.613281c38.335937 27.1875 64.605469 70.300781 69.113281 119.613281zm-26.238281-210.554687c35.675781 0 69.4375 8.332031 99.460938 23.132813l-15.179688 26.292968c-25.53125-12.257812-54.117188-19.132812-84.28125-19.132812-29.261719 0-58.101562 6.585937-84.292969 19.105468l-15.199219-26.335937c30.792969-15.128906 64.890626-23.0625 99.492188-23.0625zm-26.238281 240.851563-69.054688 119.609374c-38.332031-27.191406-64.625-70.296874-69.128906-119.609374zm-198.964844 0h30.378906c4.660157 60.5 36.996094 113.363281 84.332031 145.929687l-15.1875 26.308594c-56.351562-37.914063-94.75-100.550781-99.523437-172.238281zm125.738281 187.429687 15.183594-26.300781c25.53125 12.257812 54.117188 19.132812 84.28125 19.132812s58.75-6.875 84.28125-19.132812l1.082031 1.871094 14.132813 24.488281c-30.796875 15.125-64.894532 23.066406-99.496094 23.066406-35.675781 0-69.441406-8.324219-99.464844-23.125zm225.183594-15.113281-14.117188-24.464844-1.113281-1.921875c47.335938-32.566406 79.675781-85.429687 84.335938-145.929687h30.363281c-4.710938 69.476562-41.617188 133.414062-99.46875 172.316406zm0 0"/><path d="m249.046875 125.980469c-.367187-8.207031-6.65625-15.148438-15.148437-15.148438-7.921876 0-15.511719 6.96875-15.144532 15.148438.367188 8.207031 6.65625 15.148437 15.144532 15.148437 7.925781 0 15.515624-6.96875 15.148437-15.148437zm0 0"/><path d="m278.101562 110.832031c-7.925781 0-15.515624 6.96875-15.148437 15.148438.367187 8.207031 6.65625 15.148437 15.148437 15.148437 7.921876 0 15.511719-6.96875 15.144532-15.148437-.363282-8.207031-6.652344-15.148438-15.144532-15.148438zm0 0"/><path d="m256 151.535156c-7.921875 0-15.515625 6.964844-15.148438 15.148438.367188 8.207031 6.65625 15.144531 15.148438 15.144531 7.921875 0 15.515625-6.964844 15.148438-15.144531-.367188-8.210938-6.65625-15.148438-15.148438-15.148438zm0 0"/><path d="m139.300781 340.148438c.371094 8.207031 6.65625 15.148437 15.148438 15.148437 7.925781 0 15.515625-6.96875 15.148437-15.148437-.367187-8.207032-6.65625-15.148438-15.148437-15.148438-7.921875 0-15.511719 6.96875-15.148438 15.148438zm0 0"/><path d="m147.496094 301.871094c-.367188-8.207032-6.65625-15.148438-15.148438-15.148438-7.921875 0-15.511718 6.964844-15.144531 15.148438.367187 8.207031 6.65625 15.148437 15.144531 15.148437 7.925782 0 15.515625-6.96875 15.148438-15.148437zm0 0"/><path d="m178.648438 315.808594c7.921874 0 15.515624-6.96875 15.148437-15.148438-.367187-8.207031-6.65625-15.148437-15.148437-15.148437-7.921876 0-15.515626 6.964843-15.148438 15.148437.367188 8.207032 6.65625 15.148438 15.148438 15.148438zm0 0"/><path d="m262.953125 386.019531c.367187 8.207031 6.65625 15.148438 15.148437 15.148438 7.921876 0 15.511719-6.96875 15.144532-15.148438-.367188-8.207031-6.65625-15.148437-15.144532-15.148437-7.925781 0-15.515624 6.96875-15.148437 15.148437zm0 0"/><path d="m233.898438 401.167969c7.925781 0 15.515624-6.96875 15.148437-15.148438-.367187-8.207031-6.65625-15.148437-15.148437-15.148437-7.921876 0-15.511719 6.96875-15.144532 15.148437.367188 8.207031 6.652344 15.148438 15.144532 15.148438zm0 0"/><path d="m256 360.464844c7.921875 0 15.515625-6.964844 15.148438-15.148438-.367188-8.207031-6.65625-15.144531-15.148438-15.144531-7.921875 0-15.515625 6.964844-15.148438 15.144531.367188 8.210938 6.65625 15.148438 15.148438 15.148438zm0 0"/><path d="m379.652344 317.019531c7.921875 0 15.511718-6.96875 15.144531-15.148437-.367187-8.207032-6.65625-15.148438-15.144531-15.148438-7.925782 0-15.515625 6.964844-15.148438 15.148438.367188 8.207031 6.65625 15.148437 15.148438 15.148437zm0 0"/><path d="m357.550781 325c-7.925781 0-15.515625 6.96875-15.148437 15.148438.367187 8.207031 6.65625 15.148437 15.148437 15.148437 7.921875 0 15.511719-6.96875 15.148438-15.148437-.371094-8.207032-6.65625-15.148438-15.148438-15.148438zm0 0"/><path d="m348.5 300.660156c-.367188-8.207031-6.65625-15.148437-15.148438-15.148437-7.921874 0-15.515624 6.964843-15.148437 15.148437.367187 8.207032 6.65625 15.148438 15.148437 15.148438 7.921876 0 15.515626-6.96875 15.148438-15.148438zm0 0"/><path d="m357.550781 156.703125c-7.925781 0-15.515625 6.96875-15.148437 15.148437.367187 8.207032 6.65625 15.148438 15.148437 15.148438 7.921875 0 15.511719-6.96875 15.148438-15.148438-.371094-8.207031-6.65625-15.148437-15.148438-15.148437zm0 0"/><path d="m364.503906 210.128906c.367188 8.207032 6.65625 15.148438 15.148438 15.148438 7.921875 0 15.511718-6.964844 15.144531-15.148438-.367187-8.207031-6.65625-15.148437-15.144531-15.148437-7.925782 0-15.515625 6.96875-15.148438 15.148437zm0 0"/><path d="m333.351562 196.191406c-7.921874 0-15.515624 6.96875-15.148437 15.148438.367187 8.207031 6.65625 15.148437 15.148437 15.148437 7.921876 0 15.515626-6.964843 15.148438-15.148437-.367188-8.207032-6.65625-15.148438-15.148438-15.148438zm0 0"/></symbol><symbol id="carrot" viewBox="0 0 511.978 511.978"><title>carrot</title><path d="M325.859,177.546c-14.763-11.597-66.833-45.559-116.352,3.951c-1.741,1.741-3.593,3.712-5.393,5.572l4.821,1.314 c0.998,0.145,41.83,7.629,61.636,27.426c3.328,3.336,3.328,8.738,0,12.066c-1.673,1.673-3.857,2.5-6.042,2.5 c-2.176,0-4.361-0.828-6.033-2.5c-13.321-13.32-42.991-21.018-53.299-22.861l-14.234-3.849 c-10.061,11.17-20.838,23.979-32.145,38.298l5.103,1.109c11.733,2.893,40.149,11.145,55.45,26.436 c3.328,3.337,3.328,8.738,0,12.066c-1.673,1.673-3.857,2.5-6.042,2.5c-2.176,0-4.361-0.828-6.033-2.5 c-10.01-10.01-30.959-17.869-47.232-21.879l-12.809-2.782c-9.131,12.049-18.543,25.037-28.151,38.903l5.828,1.766 c10.923,3.396,31.002,10.897,43.238,23.125c3.328,3.337,3.328,8.738,0,12.066c-1.672,1.673-3.857,2.5-6.042,2.5 c-2.176,0-4.361-0.828-6.033-2.5c-6.938-6.938-20.463-13.995-36.181-18.876l-10.897-3.319 c-9.95,14.814-20.045,30.566-30.216,47.164l6.707,2.927c9.651,4.028,24.047,12.365,31.462,19.772 c3.328,3.337,3.328,8.738,0,12.066c-1.672,1.673-3.857,2.5-6.042,2.5c-2.176,0-4.361-0.828-6.033-2.5 c-5.393-5.393-17.843-12.706-26.095-16.145l-8.951-3.908c-23.245,38.989-46.652,82.423-69.035,129.852 c-1.536,3.251-0.862,7.125,1.681,9.668c1.638,1.638,3.823,2.5,6.042,2.5c1.229,0,2.475-0.265,3.635-0.811 c153.037-72.218,264.781-155.153,318.31-208.691c49.51-49.51,15.548-101.572,3.951-116.352 C331.935,182.93,329.05,180.046,325.859,177.546z"/><path d="M498.113,89.471c-1.109-1.109-2.287-2.15-3.558-3.157c7.27-17.434,3.516-38.118-10.189-51.823 c-14.379-14.379-35.849-17.655-53.564-9.267c-2.193-4.207-4.983-8.047-8.294-11.358c-18.492-18.483-48.572-18.483-67.055,0 c-13.065,13.065-16.947,32.41-11.042,49.212c-8.789,1.877-16.887,6.212-23.322,12.646c-18.492,18.492-18.483,48.572,0,67.055 c6.502,6.502,14.66,10.803,23.381,12.664l30.993-30.993v-22.067c0-4.719,3.823-8.533,8.533-8.533 c4.719,0,8.533,3.814,8.533,8.533v5.001l17.067-17.067V68.248c0-4.719,3.823-8.533,8.533-8.533c4.719,0,8.533,3.814,8.533,8.533 v17.067h8.533c4.719,0,8.533,3.814,8.533,8.533c0,4.71-3.814,8.533-8.533,8.533h-13.525l-17.067,17.067h13.525 c4.719,0,8.533,3.814,8.533,8.533c0,4.71-3.814,8.533-8.533,8.533h-30.592l-30.916,30.908c1.86,8.747,6.059,16.947,12.578,23.467 c9.242,9.25,21.385,13.867,33.528,13.867c12.143,0,24.286-4.625,33.527-13.867c6.434-6.434,10.769-14.532,12.646-23.322 c16.811,5.897,36.147,2.022,49.212-11.042C516.596,138.042,516.604,107.962,498.113,89.471z"/></symbol><symbol id="edit" viewBox="0 -1 401.52289 401"><title>edit</title><path d="m370.589844 250.972656c-5.523438 0-10 4.476563-10 10v88.789063c-.019532 16.5625-13.4375 29.984375-30 30h-280.589844c-16.5625-.015625-29.980469-13.4375-30-30v-260.589844c.019531-16.558594 13.4375-29.980469 30-30h88.789062c5.523438 0 10-4.476563 10-10 0-5.519531-4.476562-10-10-10h-88.789062c-27.601562.03125-49.96875 22.398437-50 50v260.59375c.03125 27.601563 22.398438 49.96875 50 50h280.589844c27.601562-.03125 49.96875-22.398437 50-50v-88.792969c0-5.523437-4.476563-10-10-10zm0 0"/><path d="m376.628906 13.441406c-17.574218-17.574218-46.066406-17.574218-63.640625 0l-178.40625 178.40625c-1.222656 1.222656-2.105469 2.738282-2.566406 4.402344l-23.460937 84.699219c-.964844 3.472656.015624 7.191406 2.5625 9.742187 2.550781 2.546875 6.269531 3.527344 9.742187 2.566406l84.699219-23.464843c1.664062-.460938 3.179687-1.34375 4.402344-2.566407l178.402343-178.410156c17.546875-17.585937 17.546875-46.054687 0-63.640625zm-220.257812 184.90625 146.011718-146.015625 47.089844 47.089844-146.015625 146.015625zm-9.40625 18.875 37.621094 37.625-52.039063 14.417969zm227.257812-142.546875-10.605468 10.605469-47.09375-47.09375 10.609374-10.605469c9.761719-9.761719 25.589844-9.761719 35.351563 0l11.738281 11.734375c9.746094 9.773438 9.746094 25.589844 0 35.359375zm0 0"/></symbol><symbol id="writing" viewBox="0 0 512 512"><title>writing</title><path d="M352.459,220c0-11.046-8.954-20-20-20h-206c-11.046,0-20,8.954-20,20s8.954,20,20,20h206 C343.505,240,352.459,231.046,352.459,220z"/><path d="M126.459,280c-11.046,0-20,8.954-20,20c0,11.046,8.954,20,20,20H251.57c11.046,0,20-8.954,20-20c0-11.046-8.954-20-20-20 H126.459z"/><path d="M173.459,472H106.57c-22.056,0-40-17.944-40-40V80c0-22.056,17.944-40,40-40h245.889c22.056,0,40,17.944,40,40v123 c0,11.046,8.954,20,20,20c11.046,0,20-8.954,20-20V80c0-44.112-35.888-80-80-80H106.57c-44.112,0-80,35.888-80,80v352 c0,44.112,35.888,80,80,80h66.889c11.046,0,20-8.954,20-20C193.459,480.954,184.505,472,173.459,472z"/><path d="M467.884,289.572c-23.394-23.394-61.458-23.395-84.837-0.016l-109.803,109.56c-2.332,2.327-4.052,5.193-5.01,8.345 l-23.913,78.725c-2.12,6.98-0.273,14.559,4.821,19.78c3.816,3.911,9,6.034,14.317,6.034c1.779,0,3.575-0.238,5.338-0.727 l80.725-22.361c3.322-0.92,6.35-2.683,8.79-5.119l109.573-109.367C491.279,351.032,491.279,312.968,467.884,289.572z M333.776,451.768l-40.612,11.25l11.885-39.129l74.089-73.925l28.29,28.29L333.776,451.768z M439.615,346.13l-3.875,3.867 l-28.285-28.285l3.862-3.854c7.798-7.798,20.486-7.798,28.284,0C447.399,325.656,447.399,338.344,439.615,346.13z"/><path d="M332.459,120h-206c-11.046,0-20,8.954-20,20s8.954,20,20,20h206c11.046,0,20-8.954,20-20S343.505,120,332.459,120z"/></symbol><symbol id="guava" viewBox="0 0 512 512"><title>guava</title><g> <g> <path d="M251.138,36.47V0h-30v75.44c2.59,1.15,4.93,2.42,7.02,3.64c13.413,7.827,10.519-0.614,29.48-6.01 c20.324-5.807,45.755,2.939,61.4,34.5c13.941,28.123,38.824,50.668,58.63,78.73c21.168-2.451,32.367-6.887,43.26-10.64 C409.214,65.31,343.666,19.478,251.138,36.47z"/> </g> </g><g> <g> <path d="M340.068,186.55c-17.152-20.962-35.51-40.607-47.91-65.66c-15.315-30.931-31.516-16.37-37.91-13.01 c-0.104,0-18.654,10.725-38.58-1.32c-6.576-3.987-21.402-14.174-35.55,14.33c-19.283,38.904-52.941,64.988-71.32,99.24 c-45.237,84.35-4.279,207.861,127.34,232.24C368.909,427.709,426.469,292.412,340.068,186.55z"/> </g> </g><g> <g> <path d="M275.298,472.76c-37.371,12.993-45.335,11.48-78.32,0l-12.96,18.83l24.71,17.01l12.41-18.02V512h30v-21.42l12.41,18.02 l24.71-17.01L275.298,472.76z"/> </g> </g></symbol><symbol id="hamburger" viewBox="0 -48 512 512"><title>hamburger</title><path d="m284.054688 289.199219-66.402344-66.398438h-184.453125c-18.335938 0-33.199219 14.863281-33.199219 33.199219s14.863281 33.199219 33.199219 33.199219zm0 0"/><path d="m143.515625 415.601562h224.96875c57.152344 0 103.132813-42.621093 110.375-96.402343h-445.71875c7.230469 53.695312 53.136719 96.402343 110.375 96.402343zm0 0"/><path d="m336.332031 0h-160.664062c-74.078125 0-135.207031 56.414062-142.734375 128.53125h446.136718c-7.527343-72.117188-68.660156-128.53125-142.738281-128.53125zm0 0"/><path d="m380.453125 222.800781h-120.375l60.1875 60.1875zm0 0"/><path d="m17.132812 192.800781h477.734376c9.460937 0 17.132812-7.671875 17.132812-17.132812 0-9.464844-7.671875-17.132813-17.132812-17.132813h-477.734376c-9.460937-.003906-17.132812 7.667969-17.132812 17.132813 0 9.460937 7.671875 17.132812 17.132812 17.132812zm0 0"/><path d="m478.800781 222.800781h-55.921875l-66.398437 66.398438h122.320312c18.335938 0 33.199219-14.863281 33.199219-33.199219s-14.863281-33.199219-33.199219-33.199219zm0 0"/></symbol><symbol id="hot-dog" viewBox="0 0 512 512"><title>hot-dog</title><path d="m319.929688 14.828125c-27.699219-9.40625-59.621094-3.089844-81.667969 18.953125-55.542969 55.527344-148.953125 148.949219-204.492188 204.488281-22.128906 22.128907-28.441406 54.011719-18.980469 81.691407zm0 0"/><path d="m192.058594 497.179688c27.710937 9.421874 59.621094 3.101562 81.671875-18.949219 55.539062-55.53125 148.960937-148.949219 204.488281-204.492188 22.132812-22.128906 28.441406-54 18.980469-81.6875zm0 0"/><path d="m484.082031 162.742188c18.003907-18.003907 27.917969-41.941407 27.917969-67.402344 0-56.59375-46.648438-95.339844-95.339844-95.339844-25.457031 0-49.390625 9.914062-67.398437 27.921875l-321.339844 321.335937c-18.003906 18.003907-27.921875 41.941407-27.921875 67.410157 0 52.742187 42.691406 95.332031 95.332031 95.332031 25.460938 0 49.398438-9.914062 67.410157-27.921875zm-67.421875-52.402344c-9.445312 0-17.132812 7.6875-17.132812 17.132812 0 25.988282-21.144532 47.132813-47.132813 47.132813-9.445312 0-17.132812 7.6875-17.132812 17.132812 0 25.988281-21.144531 47.132813-47.132813 47.132813-9.445312 0-17.132812 7.6875-17.132812 17.132812 0 25.988282-21.144532 47.132813-47.132813 47.132813-9.449219 0-17.132812 7.6875-17.132812 17.132812 0 25.992188-21.144531 47.132813-47.132813 47.132813-9.449218 0-17.132812 7.6875-17.132812 17.132812 0 25.992188-21.144532 47.136719-47.132813 47.136719-8.285156 0-15-6.71875-15-15 0-8.285156 6.714844-15 15-15 9.445313 0 17.132813-7.6875 17.132813-17.136719 0-25.988281 21.144531-47.132812 47.132812-47.132812 9.445313 0 17.132813-7.683594 17.132813-17.132813 0-25.988281 21.144531-47.132812 47.132812-47.132812 9.445313 0 17.132813-7.683594 17.132813-17.132813 0-25.988281 21.144531-47.132812 47.132812-47.132812 9.445313 0 17.132813-7.683594 17.132813-17.132813 0-25.988281 21.144531-47.132812 47.132812-47.132812 9.449219 0 17.132813-7.683594 17.132813-17.132813 0-25.988281 21.144531-47.132812 47.132812-47.132812 8.285156 0 15 6.714844 15 15s-6.714844 15-15 15zm0 0"/></symbol><symbol id="french-fries" viewBox="-80 0 512 512"><title>french-fries</title><path d="m81.398438 47.128906c0-8.277344-6.710938-15-15-15h-19.261719c-8.289063 0-15 6.722656-15 15v115.671875h49.261719zm0 0"/><path d="m319.195312 63.199219c0-8.277344-6.707031-15-15-15h-19.257812c-8.289062 0-15 6.722656-15 15v99.601562h49.257812zm0 0"/><path d="m175.667969 351.332031c-13.878907 0-25.167969 11.289063-25.167969 25.167969s11.289062 25.167969 25.167969 25.167969c13.875 0 25.167969-11.289063 25.167969-25.167969s-11.292969-25.167969-25.167969-25.167969zm0 0"/><path d="m347.511719 197.796875c-2.847657-3.179687-6.910157-4.996094-11.175781-4.996094h-100.667969c-8.285157 0-15 6.714844-15 15 0 24.851563-20.148438 45-45 45-24.855469 0-45-20.148437-45-45 0-8.285156-6.71875-15-15-15h-100.667969c-4.265625 0-8.332031 1.816407-11.175781 4.996094-2.847657 3.179687-4.203125 7.417969-3.730469 11.660156l32.132812 289.199219c.84375 7.597656 7.265626 13.34375 14.90625 13.34375h257.066407c7.644531 0 14.066406-5.746094 14.910156-13.34375l32.132813-289.199219c.472656-4.242187-.886719-8.480469-3.730469-11.660156zm-171.84375 233.871094c-30.417969 0-55.167969-24.75-55.167969-55.167969s24.75-55.167969 55.167969-55.167969 55.167969 24.75 55.167969 55.167969-24.75 55.167969-55.167969 55.167969zm0 0"/><path d="m235.667969 162.800781h4.269531v-147.800781c0-8.28125-6.71875-15-15-15h-19.269531c-8.28125 0-15 6.71875-15 15v192.800781c0-24.816406 20.1875-45 45-45zm0 0"/><path d="m160.667969 207.800781v-160.671875c0-8.277344-6.722657-15-15-15h-19.269531c-8.28125 0-15 6.722656-15 15v115.671875h4.269531c24.8125 0 45 20.183594 45 45zm0 0"/></symbol><symbol id="photo-camera" viewBox="0 0 60 60"><title>photo-camera</title><path d="M30,20.5c-6.617,0-12,5.383-12,12s5.383,12,12,12s12-5.383,12-12S36.617,20.5,30,20.5z"/><path d="M55.201,15.5h-8.524l-4-10H17.323l-4,10H12v-5H6v5H4.799C2.152,15.5,0,17.652,0,20.299v29.368 C0,52.332,2.168,54.5,4.833,54.5h50.334c2.665,0,4.833-2.168,4.833-4.833V20.299C60,17.652,57.848,15.5,55.201,15.5z M10,15.5H8v-3 h2V15.5z M30,50.5c-9.925,0-18-8.075-18-18s8.075-18,18-18s18,8.075,18,18S39.925,50.5,30,50.5z M52,27.5c-2.206,0-4-1.794-4-4 s1.794-4,4-4s4,1.794,4,4S54.206,27.5,52,27.5z"/></symbol><symbol id="hot-pot" viewBox="0 0 35.235 35.235"><title>hot-pot</title><path d="M26.776,12.687H19.25c0.68,0,1.233-0.553,1.233-1.234s-0.554-1.23-1.233-1.23h-3.078c-0.68,0-1.232,0.549-1.232,1.23 s0.553,1.234,1.232,1.234H8.645c-2.094,0-3.828,1.877-4.165,3.875h26.464C30.605,14.563,28.871,12.687,26.776,12.687z"/><path d="M31.005,18.677v-0.352H4.479H4.417H0v1.762h4.417v10.918c0,2.338,1.894,4.229,4.228,4.229h18.132 c2.336,0,4.229-1.891,4.229-4.229V20.439h4.229v-1.762H31.005z"/><path d="M11.24,4.235c0.123,0.162,0.254,0.318,0.391,0.465l0.341,0.342c0.216,0.217,0.417,0.434,0.577,0.629 c0.08,0.098,0.146,0.191,0.195,0.268c0.047,0.076,0.09,0.135,0.1,0.223c0.012,0.094-0.037,0.221-0.133,0.348 c-0.096,0.125-0.23,0.246-0.387,0.367c0.186,0.072,0.389,0.096,0.605,0.07c0.215-0.025,0.451-0.121,0.648-0.326 c0.195-0.205,0.304-0.508,0.321-0.775c0.019-0.27-0.022-0.514-0.083-0.734c-0.123-0.438-0.327-0.793-0.545-1.119 c-0.109-0.16-0.244-0.322-0.34-0.447c-0.096-0.113-0.185-0.229-0.266-0.344c-0.33-0.459-0.561-0.873-0.647-1.359 c-0.09-0.492,0.01-1.121,0.307-1.842c-0.771,0.162-1.457,0.807-1.681,1.709c-0.111,0.445-0.087,0.934,0.032,1.363 C10.793,3.511,11.002,3.897,11.24,4.235z"/><path d="M15.809,4.235C15.932,4.397,16.064,4.553,16.2,4.7l0.34,0.342c0.216,0.217,0.416,0.434,0.58,0.629 c0.077,0.098,0.143,0.191,0.193,0.268c0.049,0.076,0.09,0.135,0.098,0.223c0.013,0.094-0.035,0.221-0.131,0.348 c-0.095,0.125-0.23,0.246-0.389,0.367c0.188,0.072,0.392,0.096,0.607,0.07c0.214-0.025,0.453-0.121,0.648-0.326 c0.197-0.205,0.304-0.508,0.322-0.775c0.019-0.27-0.021-0.514-0.082-0.734c-0.125-0.438-0.33-0.793-0.548-1.119 c-0.107-0.16-0.243-0.322-0.339-0.447c-0.094-0.113-0.185-0.229-0.264-0.344c-0.331-0.459-0.563-0.873-0.649-1.359 c-0.09-0.49,0.008-1.119,0.304-1.84c-0.77,0.162-1.455,0.807-1.678,1.709c-0.111,0.445-0.088,0.934,0.031,1.363 C15.363,3.511,15.568,3.897,15.809,4.235z"/><path d="M19.972,4.235c0.122,0.162,0.253,0.318,0.39,0.465l0.341,0.342c0.216,0.217,0.415,0.434,0.577,0.629 c0.08,0.098,0.146,0.191,0.195,0.268c0.047,0.076,0.088,0.135,0.1,0.223c0.013,0.094-0.037,0.221-0.133,0.348 c-0.095,0.125-0.23,0.246-0.389,0.367c0.188,0.072,0.392,0.096,0.605,0.07c0.215-0.025,0.453-0.121,0.65-0.326 c0.195-0.205,0.303-0.508,0.32-0.775c0.02-0.27-0.021-0.514-0.082-0.734c-0.123-0.438-0.326-0.793-0.545-1.119 c-0.109-0.16-0.244-0.322-0.34-0.447c-0.096-0.113-0.186-0.229-0.266-0.344c-0.33-0.459-0.561-0.873-0.646-1.359 c-0.091-0.492,0.009-1.121,0.304-1.842c-0.77,0.162-1.457,0.807-1.679,1.709c-0.11,0.445-0.087,0.934,0.032,1.363 C19.524,3.511,19.731,3.897,19.972,4.235z"/></symbol><symbol id="crossed-knife-and-fork" viewBox="0 0 177.809 177.809"><title>crossed-knife-and-fork</title><g> <g> <path d="M132.534,152.942C126.145,143.152,32.616,20.01,18.596,3.107c-1.946-2.348-4.265-1.612-5.133-0.756 c-1.508,1.486-2.412,3.655,0.745,16.652C16.099,26.79,30.86,70.202,35.89,82.675c10.235,25.374,16.786,24.537,20.539,25.02 c1.833,0.236,3.616-0.194,5.157-1.247c4.197-2.864,5.597-3.699,7.218-4.667c0.569-0.339,1.176-0.702,1.936-1.169 c4.537,7.434,10.138,18.967,15.576,30.164c7.317,15.067,14.884,30.648,20.93,38.711c3.845,5.125,8.003,6.633,10.815,6.994 c5.382,0.692,10.948-2.192,14.183-7.348C135.527,163.9,135.638,157.695,132.534,152.942z M126.528,165.544 c-1.839,2.933-4.824,4.597-7.604,4.239c-2.182-0.28-4.353-1.785-6.275-4.349c-5.658-7.543-13.08-22.827-20.259-37.609 c-6.558-13.503-12.752-26.258-17.819-33.751c-0.565-0.835-1.438-1.337-2.366-1.457c-0.763-0.098-1.564,0.063-2.26,0.513 c-2.266,1.463-7.795,4.76-12.163,7.741c-0.2,0.137-0.317,0.15-0.49,0.129c-2.315,1.198-2.462-0.561-6.369-5.864 C44.628,86.595,26.858,36.42,21.718,19.94c-1.994-6.391,0.13-2.867,1.692-0.857c16.886,21.724,97.265,128.039,103.472,137.55 C128.851,159.647,127.99,163.213,126.528,165.544z"/> </g> </g><g> <g> <path d="M176.857,35.657c-1.299-1.338-3.436-1.37-4.772-0.071c-8.615,8.358-16.65,16.508-23.106,23.057 c-1.649,1.674-3.16,3.206-4.528,4.587l-6.365-6.37l26.897-26.098c1.338-1.298,1.369-3.436,0.071-4.773 c-1.298-1.337-3.434-1.37-4.772-0.071l-26.969,26.167l-5.992-5.997l27.058-26.254c1.338-1.299,1.37-3.436,0.072-4.772 c-1.298-1.338-3.436-1.37-4.772-0.072l-27.129,26.323l-5.837-5.842L146.03,7.023c1.338-1.298,1.37-3.435,0.071-4.771 c-1.298-1.339-3.434-1.37-4.771-0.072l-33.74,32.738c-8.623,8.366-7.957,20.653,1.438,31.985l-19.189,18.9 c-1.338,1.298-1.37,3.435-0.072,4.771c0.522,0.538,1.181,0.865,1.867,0.979c1.021,0.17,2.106-0.131,2.906-0.907l19.203-18.914 c3.781,3.148,8.251,5.231,12.947,6.011c0.604,0.102,1.215,0.18,1.826,0.236c6.129,0.57,11.745-1.144,15.412-4.702 c2.342-2.271,5.657-5.635,9.856-9.894c6.433-6.524,14.438-14.645,23-22.951C178.122,39.132,178.154,36.995,176.857,35.657z M139.227,68.432c-2.217,2.149-5.987,3.206-10.087,2.824c-4.737-0.44-9.29-2.684-12.812-6.314 c-6.9-7.112-11.598-17.279-4.449-24.758l27.792,27.815C139.519,68.147,139.371,68.292,139.227,68.432z"/> </g> </g><g> <g> <path d="M74.589,116.551c-1.394-1.239-3.527-1.113-4.765,0.281c-13.581,15.281-38.227,42.276-46.543,49.652 c-4.134,3.667-10.646,2.188-14.133-1.496c-3.647-3.852-3.097-8.73,1.509-13.388c11.695-11.819,28.924-25.353,41.919-35.153 c1.488-1.122,1.785-3.238,0.663-4.727s-3.238-1.785-4.727-0.663c-13.162,9.926-30.649,23.663-42.653,35.795 c-8.742,8.837-6.332,17.792-1.612,22.776c2.667,2.815,6.444,4.841,10.456,5.507c4.464,0.741,9.219-0.199,13.057-3.604 c9.61-8.523,37.266-39.142,47.11-50.219C76.108,119.922,75.982,117.787,74.589,116.551z"/> </g> </g></symbol><symbol id="chef" viewBox="-30 0 512 512"><title>chef</title><path d="m361.523438 321.464844c23.207031-4.535156 44.441406-16.238282 60.84375-33.753906 19.738281-21.074219 30.605468-48.597657 30.605468-77.503907 0-56.773437-41.566406-104-96.546875-112.136719-16.316406-57.453124-69.265625-98.070312-129.9375-98.070312-60.675781 0-113.625 40.617188-129.941406 98.070312-54.980469 8.136719-96.546875 55.363282-96.546875 112.136719 0 28.910157 10.867188 56.441407 30.597656 77.519531 16.40625 17.519532 37.636719 29.226563 60.851563 33.753907v190.519531h270.074219zm-30.007813 160.527344h-210.058594v-39.761719h210.058594zm13.96875-188.625-13.96875.964843v117.890625h-30.007813v-65.808594h-30.007812v65.808594h-30.011719v-65.808594h-30.003906v65.808594h-30.011719v-65.808594h-30.007812v65.808594h-30.007813v-117.882812l-13.976562-.957032c-43.441407-2.988281-77.472657-39.519531-77.472657-83.175781 0-44.582031 34.851563-81.160156 79.34375-83.273437l11.757813-.554688 2.257813-11.554687c9.59375-49.148438 52.960937-84.816407 103.121093-84.816407 50.15625 0 93.527344 35.667969 103.121094 84.816407l2.253906 11.554687 11.757813.554688c44.492187 2.113281 79.34375 38.691406 79.34375 83.273437 0 43.632813-34.03125 80.164063-77.480469 83.160157zm0 0"/></symbol><symbol id="cook" viewBox="0 -60 512 512"><title>cook</title><path d="m429.464844 273.589844c4.890625-1.515625 10.089844-2.332032 15.472656-2.332032 5.386719 0 10.582031.816407 15.476562 2.332032v-95.558594h-30.949218zm0 0"/><path d="m258.097656 105.21875c-7.320312-40.625-42.941406-71.546875-85.644531-71.546875s-78.324219 30.921875-85.644531 71.546875c-47.886719.117188-86.808594 39.109375-86.808594 87.027344 0 37.703125 24.066406 70.492187 58.808594 82.332031v102.257813c0 8.546874 6.929687 15.476562 15.476562 15.476562h17.582032v-84.394531c0-8.546875 6.929687-15.472657 15.476562-15.472657s15.476562 6.925782 15.476562 15.472657v84.394531h34.15625v-84.394531c0-8.546875 6.929688-15.472657 15.476563-15.472657s15.476563 6.925782 15.476563 15.472657v84.394531h34.160156v-84.394531c0-8.546875 6.925781-15.472657 15.472656-15.472657s15.476562 6.925782 15.476562 15.472657v84.394531h17.582032c8.546875 0 15.476562-6.929688 15.476562-15.476562v-102.257813c34.742188-11.839844 58.8125-44.628906 58.8125-82.335937 0-47.914063-38.921875-86.90625-86.8125-87.023438zm0 0"/><path d="m490.015625 0h-90.15625c-12.121094 0-21.984375 9.859375-21.984375 21.984375v103.113281c0 12.121094 9.863281 21.980469 21.984375 21.980469h90.15625c12.121094 0 21.984375-9.859375 21.984375-21.980469v-103.117187c0-12.121094-9.863281-21.980469-21.984375-21.980469zm-83.59375 97.242188v-47.40625c0-8.546876 6.929687-15.476563 15.476563-15.476563 8.546874 0 15.476562 6.929687 15.476562 15.476563v47.40625c0 8.546874-6.929688 15.476562-15.476562 15.476562-8.546876 0-15.476563-6.929688-15.476563-15.476562zm77.035156 0c0 8.546874-6.929687 15.476562-15.476562 15.476562s-15.476563-6.929688-15.476563-15.476562v-47.40625c0-8.546876 6.929688-15.476563 15.476563-15.476563s15.476562 6.929687 15.476562 15.476563zm0 0"/><path d="m423.445312 323.703125v45.765625c0 11.851562 9.640626 21.492188 21.492188 21.492188s21.492188-9.640626 21.492188-21.492188v-45.765625c0-11.851563-9.640626-21.496094-21.492188-21.496094s-21.492188 9.644531-21.492188 21.496094zm0 0"/></symbol></svg>